Graphik-Extralight.ufo
<glyph name="exclam" format="2">
  <advance width="262"/>
  <unicode hex="0021"/>
  <outline>
    <contour>
      <point x="131" y="-5" type="curve" smooth="yes"/>
      <point x="115" y="-5"/>
      <point x="102" y="8"/>
      <point x="102" y="24" type="curve" smooth="yes"/>
      <point x="102" y="40"/>
      <point x="115" y="53"/>
      <point x="131" y="53" type="curve" smooth="yes"/>
      <point x="147" y="53"/>
      <point x="160" y="40"/>
      <point x="160" y="24" type="curve" smooth="yes"/>
      <point x="160" y="8"/>
      <point x="147" y="-5"/>
    </contour>
    <contour>
      <point x="118" y="165" type="line"/>
      <point x="113" y="715" type="line"/>
      <point x="151" y="715" type="line"/>
      <point x="146" y="165" type="line"/>
    </contour>
  </outline>
</glyph>
<glyph name="quotedbl" format="2">
  <advance width="261"/>
  <unicode hex="0022"/>
  <outline>
    <contour>
      <point x="62" y="529" type="line"/>
      <point x="57" y="715" type="line"/>
      <point x="94" y="715" type="line"/>
      <point x="89" y="529" type="line"/>
    </contour>
    <contour>
      <point x="172" y="529" type="line"/>
      <point x="167" y="715" type="line"/>
      <point x="205" y="715" type="line"/>
      <point x="199" y="529" type="line"/>
    </contour>
  </outline>
</glyph>
<glyph name="numbersign" format="2">
  <advance width="484"/>
  <unicode hex="0023"/>
  <outline>
    <contour>
      <point x="262" y="99" type="line"/>
      <point x="292" y="303" type="line"/>
      <point x="156" y="303" type="line"/>
      <point x="127" y="99" type="line"/>
      <point x="97" y="99" type="line"/>
      <point x="127" y="303" type="line"/>
      <point x="32" y="303" type="line"/>
      <point x="32" y="333" type="line"/>
      <point x="131" y="333" type="line"/>
      <point x="156" y="505" type="line"/>
      <point x="60" y="505" type="line"/>
      <point x="60" y="535" type="line"/>
      <point x="161" y="535" type="line"/>
      <point x="187" y="715" type="line"/>
      <point x="217" y="715" type="line"/>
      <point x="190" y="535" type="line"/>
      <point x="326" y="535" type="line"/>
      <point x="352" y="715" type="line"/>
      <point x="382" y="715" type="line"/>
      <point x="355" y="535" type="line"/>
      <point x="452" y="535" type="line"/>
      <point x="452" y="505" type="line"/>
      <point x="351" y="505" type="line"/>
      <point x="326" y="333" type="line"/>
      <point x="424" y="333" type="line"/>
      <point x="424" y="303" type="line"/>
      <point x="321" y="303" type="line"/>
      <point x="292" y="99" type="line"/>
    </contour>
    <contour>
      <point x="186" y="505" type="line"/>
      <point x="161" y="333" type="line"/>
      <point x="296" y="333" type="line"/>
      <point x="321" y="505" type="line"/>
    </contour>
  </outline>
</glyph>
<glyph name="dollar" format="2">
  <advance width="593"/>
  <unicode hex="0024"/>
  <outline>
    <contour>
      <point x="280" y="-135" type="line"/>
      <point x="280" y="-6" type="line"/>
      <point x="126" y="1"/>
      <point x="56" y="88"/>
      <point x="42" y="197" type="curve"/>
      <point x="77" y="197" type="line"/>
      <point x="90" y="108"/>
      <point x="143" y="31"/>
      <point x="280" y="23" type="curve"/>
      <point x="280" y="360" type="line"/>
      <point x="132" y="385"/>
      <point x="68" y="438"/>
      <point x="68" y="540" type="curve" smooth="yes"/>
      <point x="68" y="647"/>
      <point x="154" y="718"/>
      <point x="280" y="722" type="curve"/>
      <point x="280" y="813" type="line"/>
      <point x="311" y="813" type="line"/>
      <point x="311" y="721" type="line"/>
      <point x="428" y="715"/>
      <point x="499" y="653"/>
      <point x="515" y="553" type="curve"/>
      <point x="481" y="553" type="line"/>
      <point x="465" y="636"/>
      <point x="410" y="686"/>
      <point x="311" y="691" type="curve"/>
      <point x="311" y="387" type="line"/>
      <point x="465" y="364"/>
      <point x="537" y="321"/>
      <point x="537" y="190" type="curve" smooth="yes"/>
      <point x="537" y="83"/>
      <point x="453" y="-4"/>
      <point x="311" y="-7" type="curve"/>
      <point x="311" y="-135" type="line"/>
    </contour>
    <contour>
      <point x="502" y="189" type="curve" smooth="yes"/>
      <point x="502" y="296"/>
      <point x="449" y="334"/>
      <point x="311" y="356" type="curve"/>
      <point x="311" y="23" type="line"/>
      <point x="432" y="26"/>
      <point x="502" y="97"/>
    </contour>
    <contour>
      <point x="102" y="542" type="curve" smooth="yes"/>
      <point x="102" y="462"/>
      <point x="145" y="416"/>
      <point x="280" y="392" type="curve"/>
      <point x="280" y="692" type="line"/>
      <point x="171" y="688"/>
      <point x="102" y="635"/>
    </contour>
  </outline>
</glyph>
<glyph name="percent" format="2">
  <advance width="755"/>
  <unicode hex="0025"/>
  <outline>
    <contour>
      <point x="196" y="435" type="curve" smooth="yes"/>
      <point x="261" y="435"/>
      <point x="315" y="482"/>
      <point x="315" y="563" type="curve" smooth="yes"/>
      <point x="315" y="642"/>
      <point x="263" y="691"/>
      <point x="196" y="691" type="curve" smooth="yes"/>
      <point x="132" y="691"/>
      <point x="77" y="643"/>
      <point x="77" y="562" type="curve" smooth="yes"/>
      <point x="77" y="482"/>
      <point x="132" y="435"/>
    </contour>
    <contour>
      <point x="196" y="407" type="curve" smooth="yes"/>
      <point x="118" y="407"/>
      <point x="45" y="467"/>
      <point x="45" y="561" type="curve" smooth="yes"/>
      <point x="45" y="656"/>
      <point x="116" y="720"/>
      <point x="196" y="720" type="curve" smooth="yes"/>
      <point x="279" y="720"/>
      <point x="348" y="656"/>
      <point x="348" y="563" type="curve" smooth="yes"/>
      <point x="348" y="467"/>
      <point x="276" y="407"/>
    </contour>
    <contour>
      <point x="126" y="0" type="line"/>
      <point x="593" y="715" type="line"/>
      <point x="627" y="715" type="line"/>
      <point x="160" y="0" type="line"/>
    </contour>
    <contour>
      <point x="557" y="23" type="curve" smooth="yes"/>
      <point x="622" y="23"/>
      <point x="676" y="69"/>
      <point x="676" y="151" type="curve" smooth="yes"/>
      <point x="676" y="230"/>
      <point x="624" y="279"/>
      <point x="557" y="279" type="curve" smooth="yes"/>
      <point x="493" y="279"/>
      <point x="438" y="230"/>
      <point x="438" y="149" type="curve" smooth="yes"/>
      <point x="438" y="69"/>
      <point x="493" y="23"/>
    </contour>
    <contour>
      <point x="557" y="-6" type="curve" smooth="yes"/>
      <point x="479" y="-6"/>
      <point x="406" y="54"/>
      <point x="406" y="149" type="curve" smooth="yes"/>
      <point x="406" y="243"/>
      <point x="477" y="307"/>
      <point x="557" y="307" type="curve" smooth="yes"/>
      <point x="640" y="307"/>
      <point x="709" y="243"/>
      <point x="709" y="151" type="curve" smooth="yes"/>
      <point x="709" y="54"/>
      <point x="637" y="-6"/>
    </contour>
  </outline>
</glyph>
<glyph name="ampersand" format="2">
  <advance width="649"/>
  <unicode hex="0026"/>
  <outline>
    <contour>
      <point x="606" y="357" type="line"/>
      <point x="490" y="147" type="line"/>
      <point x="617" y="0" type="line"/>
      <point x="574" y="0" type="line"/>
      <point x="471" y="119" type="line"/>
      <point x="426" y="55"/>
      <point x="359" y="-7"/>
      <point x="253" y="-7" type="curve" smooth="yes"/>
      <point x="124" y="-7"/>
      <point x="47" y="74"/>
      <point x="47" y="185" type="curve" smooth="yes"/>
      <point x="47" y="296"/>
      <point x="137" y="358"/>
      <point x="227" y="403" type="curve"/>
      <point x="177" y="463"/>
      <point x="148" y="509"/>
      <point x="148" y="569" type="curve" smooth="yes"/>
      <point x="148" y="656"/>
      <point x="215" y="719"/>
      <point x="301" y="719" type="curve" smooth="yes"/>
      <point x="388" y="719"/>
      <point x="443" y="655"/>
      <point x="443" y="577" type="curve" smooth="yes"/>
      <point x="443" y="492"/>
      <point x="371" y="437"/>
      <point x="277" y="395" type="curve"/>
      <point x="470" y="172" type="line"/>
      <point x="572" y="357" type="line"/>
    </contour>
    <contour>
      <point x="254" y="23" type="curve" smooth="yes"/>
      <point x="346" y="23"/>
      <point x="407" y="79"/>
      <point x="450" y="143" type="curve"/>
      <point x="245" y="382" type="line"/>
      <point x="163" y="342"/>
      <point x="83" y="284"/>
      <point x="83" y="187" type="curve" smooth="yes"/>
      <point x="83" y="92"/>
      <point x="144" y="23"/>
    </contour>
    <contour>
      <point x="182" y="568" type="curve" smooth="yes"/>
      <point x="182" y="515"/>
      <point x="211" y="472"/>
      <point x="260" y="415" type="curve"/>
      <point x="346" y="456"/>
      <point x="410" y="502"/>
      <point x="410" y="577" type="curve" smooth="yes"/>
      <point x="410" y="643"/>
      <point x="368" y="690"/>
      <point x="300" y="690" type="curve" smooth="yes"/>
      <point x="232" y="690"/>
      <point x="182" y="641"/>
    </contour>
  </outline>
</glyph>
<glyph name="quotesingle" format="2">
  <advance width="151"/>
  <unicode hex="0027"/>
  <outline>
    <contour>
      <point x="62" y="529" type="line"/>
      <point x="57" y="715" type="line"/>
      <point x="94" y="715" type="line"/>
      <point x="89" y="529" type="line"/>
    </contour>
  </outline>
</glyph>
<glyph name="parenleft" format="2">
  <advance width="285"/>
  <unicode hex="0028"/>
  <outline>
    <contour>
      <point x="221" y="-148" type="line"/>
      <point x="130" y="-40"/>
      <point x="57" y="113"/>
      <point x="57" y="312" type="curve" smooth="yes"/>
      <point x="57" y="511"/>
      <point x="130" y="665"/>
      <point x="221" y="773" type="curve"/>
      <point x="256" y="773" type="line"/>
      <point x="166" y="661"/>
      <point x="92" y="516"/>
      <point x="92" y="312" type="curve" smooth="yes"/>
      <point x="92" y="108"/>
      <point x="166" y="-36"/>
      <point x="256" y="-148" type="curve"/>
    </contour>
  </outline>
</glyph>
<glyph name="parenright" format="2">
  <advance width="285"/>
  <unicode hex="0029"/>
  <outline>
    <contour>
      <point x="29" y="-147" type="line"/>
      <point x="119" y="-35"/>
      <point x="193" y="109"/>
      <point x="193" y="313" type="curve" smooth="yes"/>
      <point x="193" y="517"/>
      <point x="119" y="662"/>
      <point x="29" y="774" type="curve"/>
      <point x="64" y="774" type="line"/>
      <point x="155" y="666"/>
      <point x="229" y="512"/>
      <point x="229" y="313" type="curve" smooth="yes"/>
      <point x="229" y="114"/>
      <point x="155" y="-39"/>
      <point x="64" y="-147" type="curve"/>
    </contour>
  </outline>
</glyph>
<glyph name="asterisk" format="2">
  <advance width="415"/>
  <unicode hex="002A"/>
  <outline>
    <contour>
      <point x="117" y="432" type="line"/>
      <point x="91" y="451" type="line"/>
      <point x="187" y="572" type="line"/>
      <point x="49" y="618" type="line"/>
      <point x="59" y="647" type="line"/>
      <point x="194" y="595" type="line"/>
      <point x="192" y="743" type="line"/>
      <point x="224" y="743" type="line"/>
      <point x="222" y="595" type="line"/>
      <point x="356" y="647" type="line"/>
      <point x="366" y="618" type="line"/>
      <point x="228" y="572" type="line"/>
      <point x="323" y="451" type="line"/>
      <point x="297" y="432" type="line"/>
      <point x="207" y="555" type="line"/>
    </contour>
  </outline>
</glyph>
<glyph name="plus" format="2">
  <advance width="505"/>
  <unicode hex="002B"/>
  <outline>
    <contour>
      <point x="237" y="113" type="line"/>
      <point x="237" y="327" type="line"/>
      <point x="37" y="327" type="line"/>
      <point x="37" y="357" type="line"/>
      <point x="237" y="357" type="line"/>
      <point x="237" y="572" type="line"/>
      <point x="268" y="572" type="line"/>
      <point x="268" y="357" type="line"/>
      <point x="468" y="357" type="line"/>
      <point x="468" y="327" type="line"/>
      <point x="268" y="327" type="line"/>
      <point x="268" y="113" type="line"/>
    </contour>
  </outline>
</glyph>
<glyph name="comma" format="2">
  <advance width="195"/>
  <unicode hex="002C"/>
  <outline>
    <contour>
      <point x="56" y="-113" type="line"/>
      <point x="31" y="-101" type="line"/>
      <point x="96" y="59" type="line"/>
      <point x="131" y="44" type="line"/>
    </contour>
  </outline>
</glyph>
<glyph name="period" format="2">
  <advance width="195"/>
  <unicode hex="002E"/>
  <outline>
    <contour>
      <point x="98" y="-5" type="curve" smooth="yes"/>
      <point x="81" y="-5"/>
      <point x="69" y="8"/>
      <point x="69" y="24" type="curve" smooth="yes"/>
      <point x="69" y="40"/>
      <point x="81" y="53"/>
      <point x="98" y="53" type="curve" smooth="yes"/>
      <point x="114" y="53"/>
      <point x="126" y="40"/>
      <point x="126" y="24" type="curve" smooth="yes"/>
      <point x="126" y="8"/>
      <point x="114" y="-5"/>
    </contour>
  </outline>
</glyph>
<glyph name="zero" format="2">
  <advance width="646"/>
  <unicode hex="0030"/>
  <outline>
    <contour>
      <point x="324" y="24" type="curve" smooth="yes"/>
      <point x="475" y="24"/>
      <point x="555" y="128"/>
      <point x="555" y="324" type="curve" smooth="yes"/>
      <point x="555" y="397" type="line" smooth="yes"/>
      <point x="555" y="578"/>
      <point x="468" y="692"/>
      <point x="321" y="692" type="curve" smooth="yes"/>
      <point x="175" y="692"/>
      <point x="91" y="583"/>
      <point x="91" y="394" type="curve" smooth="yes"/>
      <point x="91" y="321" type="line" smooth="yes"/>
      <point x="91" y="125"/>
      <point x="179" y="24"/>
    </contour>
    <contour>
      <point x="324" y="-7" type="curve" smooth="yes"/>
      <point x="155" y="-7"/>
      <point x="55" y="113"/>
      <point x="55" y="321" type="curve" smooth="yes"/>
      <point x="55" y="394" type="line" smooth="yes"/>
      <point x="55" y="601"/>
      <point x="154" y="722"/>
      <point x="321" y="722" type="curve" smooth="yes"/>
      <point x="487" y="722"/>
      <point x="591" y="600"/>
      <point x="591" y="396" type="curve" smooth="yes"/>
      <point x="591" y="323" type="line" smooth="yes"/>
      <point x="591" y="115"/>
      <point x="496" y="-7"/>
    </contour>
  </outline>
</glyph>
<glyph name="two" format="2">
  <advance width="527"/>
  <unicode hex="0032"/>
  <outline>
    <contour>
      <point x="21" y="0" type="line"/>
      <point x="21" y="9" type="line"/>
      <point x="310" y="304" type="line" smooth="yes"/>
      <point x="392" y="387"/>
      <point x="427" y="454"/>
      <point x="427" y="532" type="curve" smooth="yes"/>
      <point x="427" y="638"/>
      <point x="358" y="692"/>
      <point x="260" y="692" type="curve" smooth="yes"/>
      <point x="162" y="692"/>
      <point x="91" y="634"/>
      <point x="77" y="515" type="curve"/>
      <point x="43" y="515" type="line"/>
      <point x="54" y="647"/>
      <point x="142" y="722"/>
      <point x="260" y="722" type="curve" smooth="yes"/>
      <point x="377" y="722"/>
      <point x="463" y="655"/>
      <point x="463" y="531" type="curve" smooth="yes"/>
      <point x="463" y="445"/>
      <point x="419" y="369"/>
      <point x="333" y="283" type="curve" smooth="yes"/>
      <point x="80" y="31" type="line"/>
      <point x="477" y="31" type="line"/>
      <point x="477" y="0" type="line"/>
    </contour>
  </outline>
</glyph>
<glyph name="three" format="2">
  <advance width="544"/>
  <unicode hex="0033"/>
  <outline>
    <contour>
      <point x="268" y="-7" type="curve" smooth="yes"/>
      <point x="123" y="-7"/>
      <point x="40" y="89"/>
      <point x="35" y="196" type="curve"/>
      <point x="68" y="196" type="line"/>
      <point x="77" y="104"/>
      <point x="140" y="24"/>
      <point x="268" y="24" type="curve" smooth="yes"/>
      <point x="385" y="24"/>
      <point x="457" y="85"/>
      <point x="457" y="197" type="curve" smooth="yes"/>
      <point x="457" y="289"/>
      <point x="403" y="359"/>
      <point x="285" y="359" type="curve" smooth="yes"/>
      <point x="235" y="359" type="line"/>
      <point x="235" y="390" type="line"/>
      <point x="282" y="390" type="line" smooth="yes"/>
      <point x="391" y="390"/>
      <point x="433" y="461"/>
      <point x="433" y="535" type="curve" smooth="yes"/>
      <point x="433" y="624"/>
      <point x="378" y="691"/>
      <point x="276" y="691" type="curve" smooth="yes"/>
      <point x="171" y="691"/>
      <point x="105" y="622"/>
      <point x="95" y="533" type="curve"/>
      <point x="63" y="533" type="line"/>
      <point x="70" y="639"/>
      <point x="156" y="722"/>
      <point x="276" y="722" type="curve" smooth="yes"/>
      <point x="397" y="722"/>
      <point x="469" y="639"/>
      <point x="469" y="536" type="curve" smooth="yes"/>
      <point x="469" y="459"/>
      <point x="422" y="396"/>
      <point x="349" y="377" type="curve"/>
      <point x="434" y="360"/>
      <point x="494" y="297"/>
      <point x="494" y="197" type="curve" smooth="yes"/>
      <point x="494" y="68"/>
      <point x="402" y="-7"/>
    </contour>
  </outline>
</glyph>
<glyph name="four" format="2">
  <advance width="581"/>
  <unicode hex="0034"/>
  <outline>
    <contour>
      <point x="405" y="0" type="line"/>
      <point x="405" y="167" type="line"/>
      <point x="30" y="167" type="line"/>
      <point x="30" y="178" type="line"/>
      <point x="387" y="715" type="line"/>
      <point x="441" y="715" type="line"/>
      <point x="441" y="198" type="line"/>
      <point x="540" y="198" type="line"/>
      <point x="540" y="167" type="line"/>
      <point x="441" y="167" type="line"/>
      <point x="441" y="0" type="line"/>
    </contour>
    <contour>
      <point x="80" y="198" type="line"/>
      <point x="405" y="198" type="line"/>
      <point x="405" y="690" type="line"/>
    </contour>
  </outline>
</glyph>
<glyph name="five" format="2">
  <advance width="545"/>
  <unicode hex="0035"/>
  <outline>
    <contour>
      <point x="260" y="-7" type="curve" smooth="yes"/>
      <point x="121" y="-7"/>
      <point x="45" y="81"/>
      <point x="36" y="178" type="curve"/>
      <point x="70" y="178" type="line"/>
      <point x="81" y="98"/>
      <point x="140" y="24"/>
      <point x="260" y="24" type="curve" smooth="yes"/>
      <point x="385" y="24"/>
      <point x="458" y="104"/>
      <point x="458" y="230" type="curve" smooth="yes"/>
      <point x="458" y="351"/>
      <point x="377" y="430"/>
      <point x="273" y="430" type="curve" smooth="yes"/>
      <point x="183" y="430"/>
      <point x="126" y="392"/>
      <point x="90" y="347" type="curve"/>
      <point x="76" y="347" type="line"/>
      <point x="76" y="715" type="line"/>
      <point x="458" y="715" type="line"/>
      <point x="458" y="684" type="line"/>
      <point x="107" y="684" type="line"/>
      <point x="107" y="395" type="line"/>
      <point x="138" y="427"/>
      <point x="198" y="461"/>
      <point x="277" y="461" type="curve" smooth="yes"/>
      <point x="398" y="461"/>
      <point x="495" y="372"/>
      <point x="495" y="230" type="curve" smooth="yes"/>
      <point x="495" y="83"/>
      <point x="399" y="-7"/>
    </contour>
  </outline>
</glyph>
<glyph name="six" format="2">
  <advance width="588"/>
  <unicode hex="0036"/>
  <outline>
    <contour>
      <point x="304" y="-7" type="curve" smooth="yes"/>
      <point x="133" y="-7"/>
      <point x="60" y="116"/>
      <point x="60" y="279" type="curve" smooth="yes"/>
      <point x="60" y="352" type="line" smooth="yes"/>
      <point x="60" y="617"/>
      <point x="170" y="722"/>
      <point x="323" y="722" type="curve" smooth="yes"/>
      <point x="423" y="722"/>
      <point x="502" y="674"/>
      <point x="518" y="566" type="curve"/>
      <point x="484" y="566" type="line"/>
      <point x="469" y="652"/>
      <point x="412" y="691"/>
      <point x="321" y="691" type="curve" smooth="yes"/>
      <point x="189" y="691"/>
      <point x="97" y="604"/>
      <point x="96" y="360" type="curve" smooth="yes"/>
      <point x="96" y="312" type="line"/>
      <point x="128" y="404"/>
      <point x="221" y="449"/>
      <point x="306" y="449" type="curve" smooth="yes"/>
      <point x="459" y="449"/>
      <point x="540" y="351"/>
      <point x="540" y="223" type="curve" smooth="yes"/>
      <point x="540" y="88"/>
      <point x="446" y="-7"/>
    </contour>
    <contour>
      <point x="304" y="23" type="curve" smooth="yes"/>
      <point x="426" y="23"/>
      <point x="504" y="105"/>
      <point x="504" y="222" type="curve" smooth="yes"/>
      <point x="504" y="340"/>
      <point x="436" y="419"/>
      <point x="303" y="419" type="curve" smooth="yes"/>
      <point x="198" y="419"/>
      <point x="102" y="350"/>
      <point x="102" y="231" type="curve" smooth="yes"/>
      <point x="102" y="126"/>
      <point x="162" y="23"/>
    </contour>
  </outline>
</glyph>
<glyph name="seven" format="2">
  <advance width="491"/>
  <unicode hex="0037"/>
  <outline>
    <contour>
      <point x="151" y="0" type="line"/>
      <point x="428" y="685" type="line"/>
      <point x="26" y="685" type="line"/>
      <point x="26" y="715" type="line"/>
      <point x="474" y="715" type="line"/>
      <point x="474" y="708" type="line"/>
      <point x="189" y="0" type="line"/>
    </contour>
  </outline>
</glyph>
<glyph name="eight" format="2">
  <advance width="568"/>
  <unicode hex="0038"/>
  <outline>
    <contour>
      <point x="285" y="-7" type="curve" smooth="yes"/>
      <point x="159" y="-7"/>
      <point x="49" y="63"/>
      <point x="49" y="197" type="curve" smooth="yes"/>
      <point x="49" y="299"/>
      <point x="122" y="366"/>
      <point x="221" y="386" type="curve"/>
      <point x="144" y="404"/>
      <point x="80" y="458"/>
      <point x="80" y="546" type="curve" smooth="yes"/>
      <point x="80" y="655"/>
      <point x="178" y="722"/>
      <point x="285" y="722" type="curve" smooth="yes"/>
      <point x="393" y="722"/>
      <point x="488" y="653"/>
      <point x="488" y="548" type="curve" smooth="yes"/>
      <point x="488" y="458"/>
      <point x="430" y="405"/>
      <point x="352" y="386" type="curve"/>
      <point x="450" y="366"/>
      <point x="519" y="302"/>
      <point x="519" y="199" type="curve" smooth="yes"/>
      <point x="519" y="64"/>
      <point x="415" y="-7"/>
    </contour>
    <contour>
      <point x="285" y="24" type="curve" smooth="yes"/>
      <point x="401" y="24"/>
      <point x="483" y="82"/>
      <point x="483" y="200" type="curve" smooth="yes"/>
      <point x="483" y="309"/>
      <point x="394" y="370"/>
      <point x="287" y="370" type="curve" smooth="yes"/>
      <point x="179" y="370"/>
      <point x="85" y="308"/>
      <point x="85" y="198" type="curve" smooth="yes"/>
      <point x="85" y="81"/>
      <point x="175" y="24"/>
    </contour>
    <contour>
      <point x="288" y="400" type="curve" smooth="yes"/>
      <point x="379" y="400"/>
      <point x="452" y="450"/>
      <point x="452" y="548" type="curve" smooth="yes"/>
      <point x="452" y="632"/>
      <point x="381" y="692"/>
      <point x="285" y="692" type="curve" smooth="yes"/>
      <point x="188" y="692"/>
      <point x="117" y="635"/>
      <point x="117" y="546" type="curve" smooth="yes"/>
      <point x="117" y="449"/>
      <point x="204" y="400"/>
    </contour>
  </outline>
</glyph>
<glyph name="nine" format="2">
  <advance width="586"/>
  <unicode hex="0039"/>
  <outline>
    <contour>
      <point x="276" y="-7" type="curve" smooth="yes"/>
      <point x="169" y="-7"/>
      <point x="84" y="48"/>
      <point x="63" y="156" type="curve"/>
      <point x="98" y="156" type="line"/>
      <point x="117" y="71"/>
      <point x="181" y="24"/>
      <point x="276" y="24" type="curve" smooth="yes"/>
      <point x="410" y="24"/>
      <point x="492" y="90"/>
      <point x="492" y="334" type="curve" smooth="yes"/>
      <point x="492" y="397" type="line"/>
      <point x="460" y="308"/>
      <point x="366" y="266"/>
      <point x="279" y="266" type="curve" smooth="yes"/>
      <point x="129" y="266"/>
      <point x="48" y="361"/>
      <point x="48" y="492" type="curve" smooth="yes"/>
      <point x="48" y="630"/>
      <point x="142" y="722"/>
      <point x="283" y="722" type="curve" smooth="yes"/>
      <point x="454" y="722"/>
      <point x="528" y="600"/>
      <point x="528" y="442" type="curve" smooth="yes"/>
      <point x="528" y="337" type="line" smooth="yes"/>
      <point x="528" y="76"/>
      <point x="432" y="-7"/>
    </contour>
    <contour>
      <point x="282" y="295" type="curve" smooth="yes"/>
      <point x="389" y="295"/>
      <point x="487" y="363"/>
      <point x="487" y="478" type="curve" smooth="yes"/>
      <point x="487" y="586"/>
      <point x="426" y="692"/>
      <point x="283" y="692" type="curve" smooth="yes"/>
      <point x="162" y="692"/>
      <point x="84" y="611"/>
      <point x="84" y="493" type="curve" smooth="yes"/>
      <point x="84" y="377"/>
      <point x="151" y="295"/>
    </contour>
  </outline>
</glyph>
<glyph name="colon" format="2">
  <advance width="202"/>
  <unicode hex="003A"/>
  <outline>
    <contour>
      <point x="101" y="-5" type="curve" smooth="yes"/>
      <point x="85" y="-5"/>
      <point x="72" y="8"/>
      <point x="72" y="24" type="curve" smooth="yes"/>
      <point x="72" y="40"/>
      <point x="85" y="53"/>
      <point x="101" y="53" type="curve" smooth="yes"/>
      <point x="117" y="53"/>
      <point x="130" y="40"/>
      <point x="130" y="24" type="curve" smooth="yes"/>
      <point x="130" y="8"/>
      <point x="117" y="-5"/>
    </contour>
    <contour>
      <point x="101" y="337" type="curve" smooth="yes"/>
      <point x="85" y="337"/>
      <point x="72" y="350"/>
      <point x="72" y="366" type="curve" smooth="yes"/>
      <point x="72" y="382"/>
      <point x="85" y="395"/>
      <point x="101" y="395" type="curve" smooth="yes"/>
      <point x="117" y="395"/>
      <point x="130" y="382"/>
      <point x="130" y="366" type="curve" smooth="yes"/>
      <point x="130" y="350"/>
      <point x="117" y="337"/>
    </contour>
  </outline>
</glyph>
<glyph name="semicolon" format="2">
  <advance width="202"/>
  <unicode hex="003B"/>
  <outline>
    <contour>
      <point x="50" y="-113" type="line"/>
      <point x="25" y="-101" type="line"/>
      <point x="90" y="59" type="line"/>
      <point x="125" y="44" type="line"/>
    </contour>
    <contour>
      <point x="103" y="337" type="curve" smooth="yes"/>
      <point x="87" y="337"/>
      <point x="75" y="350"/>
      <point x="75" y="366" type="curve" smooth="yes"/>
      <point x="75" y="382"/>
      <point x="87" y="395"/>
      <point x="103" y="395" type="curve" smooth="yes"/>
      <point x="120" y="395"/>
      <point x="132" y="382"/>
      <point x="132" y="366" type="curve" smooth="yes"/>
      <point x="132" y="350"/>
      <point x="120" y="337"/>
    </contour>
  </outline>
</glyph>
<glyph name="less" format="2">
  <advance width="491"/>
  <unicode hex="003C"/>
  <outline>
    <contour>
      <point x="433" y="110" type="line"/>
      <point x="49" y="317" type="line"/>
      <point x="49" y="327" type="line"/>
      <point x="433" y="534" type="line"/>
      <point x="433" y="500" type="line"/>
      <point x="101" y="322" type="line"/>
      <point x="433" y="144" type="line"/>
    </contour>
  </outline>
</glyph>
<glyph name="equal" format="2">
  <advance width="484"/>
  <unicode hex="003D"/>
  <outline>
    <contour>
      <point x="40" y="224" type="line"/>
      <point x="40" y="254" type="line"/>
      <point x="444" y="254" type="line"/>
      <point x="444" y="224" type="line"/>
    </contour>
    <contour>
      <point x="40" y="383" type="line"/>
      <point x="40" y="413" type="line"/>
      <point x="444" y="413" type="line"/>
      <point x="444" y="383" type="line"/>
    </contour>
  </outline>
</glyph>
<glyph name="greater" format="2">
  <advance width="491"/>
  <unicode hex="003E"/>
  <outline>
    <contour>
      <point x="58" y="110" type="line"/>
      <point x="58" y="144" type="line"/>
      <point x="391" y="322" type="line"/>
      <point x="58" y="500" type="line"/>
      <point x="58" y="534" type="line"/>
      <point x="442" y="327" type="line"/>
      <point x="442" y="317" type="line"/>
    </contour>
  </outline>
</glyph>
<glyph name="question" format="2">
  <advance width="469"/>
  <unicode hex="003F"/>
  <outline>
    <contour>
      <point x="193" y="165" type="line"/>
      <point x="193" y="227" type="line" smooth="yes"/>
      <point x="193" y="305"/>
      <point x="234" y="346"/>
      <point x="292" y="404" type="curve" smooth="yes"/>
      <point x="343" y="455"/>
      <point x="385" y="493"/>
      <point x="385" y="565" type="curve" smooth="yes"/>
      <point x="385" y="639"/>
      <point x="338" y="692"/>
      <point x="240" y="692" type="curve" smooth="yes"/>
      <point x="145" y="692"/>
      <point x="79" y="631"/>
      <point x="72" y="530" type="curve"/>
      <point x="38" y="530" type="line"/>
      <point x="45" y="647"/>
      <point x="126" y="722"/>
      <point x="241" y="722" type="curve" smooth="yes"/>
      <point x="360" y="722"/>
      <point x="420" y="654"/>
      <point x="420" y="566" type="curve" smooth="yes"/>
      <point x="420" y="480"/>
      <point x="373" y="443"/>
      <point x="316" y="385" type="curve" smooth="yes"/>
      <point x="261" y="329"/>
      <point x="225" y="294"/>
      <point x="225" y="224" type="curve" smooth="yes"/>
      <point x="225" y="165" type="line"/>
    </contour>
    <contour>
      <point x="209" y="-5" type="curve" smooth="yes"/>
      <point x="193" y="-5"/>
      <point x="180" y="8"/>
      <point x="180" y="24" type="curve" smooth="yes"/>
      <point x="180" y="40"/>
      <point x="193" y="53"/>
      <point x="209" y="53" type="curve" smooth="yes"/>
      <point x="225" y="53"/>
      <point x="238" y="40"/>
      <point x="238" y="24" type="curve" smooth="yes"/>
      <point x="238" y="8"/>
      <point x="225" y="-5"/>
    </contour>
  </outline>
</glyph>
<glyph name="at" format="2">
  <advance width="905"/>
  <unicode hex="0040"/>
  <outline>
    <contour>
      <point x="461" y="-147" type="curve" smooth="yes"/>
      <point x="192" y="-147"/>
      <point x="47" y="49"/>
      <point x="47" y="263" type="curve" smooth="yes"/>
      <point x="47" y="507"/>
      <point x="248" y="688"/>
      <point x="471" y="688" type="curve" smooth="yes"/>
      <point x="710" y="688"/>
      <point x="862" y="528"/>
      <point x="862" y="322" type="curve" smooth="yes"/>
      <point x="862" y="142"/>
      <point x="773" y="72"/>
      <point x="693" y="72" type="curve" smooth="yes"/>
      <point x="624" y="72"/>
      <point x="584" y="112"/>
      <point x="581" y="182" type="curve"/>
      <point x="560" y="131"/>
      <point x="503" y="65"/>
      <point x="423" y="65" type="curve" smooth="yes"/>
      <point x="330" y="65"/>
      <point x="265" y="131"/>
      <point x="265" y="239" type="curve" smooth="yes"/>
      <point x="265" y="373"/>
      <point x="357" y="471"/>
      <point x="458" y="471" type="curve" smooth="yes"/>
      <point x="531" y="471"/>
      <point x="582" y="422"/>
      <point x="594" y="362" type="curve"/>
      <point x="605" y="462" type="line"/>
      <point x="639" y="462" type="line"/>
      <point x="612" y="229" type="line" smooth="yes"/>
      <point x="602" y="152"/>
      <point x="625" y="100"/>
      <point x="694" y="100" type="curve" smooth="yes"/>
      <point x="769" y="100"/>
      <point x="829" y="170"/>
      <point x="829" y="321" type="curve" smooth="yes"/>
      <point x="829" y="515"/>
      <point x="698" y="659"/>
      <point x="471" y="659" type="curve" smooth="yes"/>
      <point x="259" y="659"/>
      <point x="80" y="490"/>
      <point x="80" y="264" type="curve" smooth="yes"/>
      <point x="80" y="65"/>
      <point x="210" y="-118"/>
      <point x="461" y="-118" type="curve" smooth="yes"/>
      <point x="607" y="-118"/>
      <point x="701" y="-64"/>
      <point x="755" y="0" type="curve"/>
      <point x="789" y="0" type="line"/>
      <point x="741" y="-77"/>
      <point x="623" y="-147"/>
    </contour>
    <contour>
      <point x="427" y="93" type="curve" smooth="yes"/>
      <point x="514" y="93"/>
      <point x="585" y="186"/>
      <point x="585" y="292" type="curve" smooth="yes"/>
      <point x="585" y="386"/>
      <point x="535" y="442"/>
      <point x="459" y="442" type="curve" smooth="yes"/>
      <point x="377" y="442"/>
      <point x="300" y="360"/>
      <point x="300" y="239" type="curve" smooth="yes"/>
      <point x="300" y="148"/>
      <point x="351" y="93"/>
    </contour>
  </outline>
</glyph>
<glyph name="B" format="2">
  <advance width="592"/>
  <unicode hex="0042"/>
  <outline>
    <contour>
      <point x="94" y="0" type="line"/>
      <point x="94" y="715" type="line"/>
      <point x="289" y="715" type="line" smooth="yes"/>
      <point x="411" y="715"/>
      <point x="497" y="659"/>
      <point x="497" y="536" type="curve" smooth="yes"/>
      <point x="497" y="532" type="line" smooth="yes"/>
      <point x="497" y="445"/>
      <point x="446" y="393"/>
      <point x="366" y="375" type="curve"/>
      <point x="476" y="358"/>
      <point x="533" y="299"/>
      <point x="533" y="199" type="curve" smooth="yes"/>
      <point x="533" y="195" type="line" smooth="yes"/>
      <point x="533" y="67"/>
      <point x="450" y="0"/>
      <point x="319" y="0" type="curve" smooth="yes"/>
    </contour>
    <contour>
      <point x="129" y="30" type="line"/>
      <point x="318" y="30" type="line" smooth="yes"/>
      <point x="436" y="30"/>
      <point x="498" y="89"/>
      <point x="498" y="195" type="curve" smooth="yes"/>
      <point x="498" y="199" type="line" smooth="yes"/>
      <point x="498" y="304"/>
      <point x="427" y="358"/>
      <point x="295" y="358" type="curve" smooth="yes"/>
      <point x="129" y="358" type="line"/>
    </contour>
    <contour>
      <point x="129" y="387" type="line"/>
      <point x="291" y="387" type="line" smooth="yes"/>
      <point x="402" y="387"/>
      <point x="461" y="440"/>
      <point x="461" y="533" type="curve" smooth="yes"/>
      <point x="461" y="537" type="line" smooth="yes"/>
      <point x="461" y="637"/>
      <point x="397" y="685"/>
      <point x="288" y="685" type="curve" smooth="yes"/>
      <point x="129" y="685" type="line"/>
    </contour>
  </outline>
</glyph>
<glyph name="D" format="2">
  <advance width="680"/>
  <unicode hex="0044"/>
  <outline>
    <contour>
      <point x="130" y="31" type="line"/>
      <point x="273" y="31" type="line" smooth="yes"/>
      <point x="488" y="31"/>
      <point x="592" y="169"/>
      <point x="592" y="356" type="curve" smooth="yes"/>
      <point x="592" y="364" type="line" smooth="yes"/>
      <point x="592" y="546"/>
      <point x="491" y="685"/>
      <point x="272" y="685" type="curve" smooth="yes"/>
      <point x="130" y="685" type="line"/>
    </contour>
    <contour>
      <point x="94" y="0" type="line"/>
      <point x="94" y="715" type="line"/>
      <point x="277" y="715" type="line" smooth="yes"/>
      <point x="508" y="715"/>
      <point x="629" y="563"/>
      <point x="629" y="364" type="curve" smooth="yes"/>
      <point x="629" y="356" type="line" smooth="yes"/>
      <point x="629" y="158"/>
      <point x="516" y="0"/>
      <point x="275" y="0" type="curve" smooth="yes"/>
    </contour>
  </outline>
</glyph>
<glyph name="F" format="2">
  <advance width="537"/>
  <unicode hex="0046"/>
  <outline>
    <contour>
      <point x="94" y="0" type="line"/>
      <point x="94" y="715" type="line"/>
      <point x="493" y="715" type="line"/>
      <point x="493" y="685" type="line"/>
      <point x="130" y="685" type="line"/>
      <point x="130" y="381" type="line"/>
      <point x="417" y="381" type="line"/>
      <point x="417" y="351" type="line"/>
      <point x="130" y="351" type="line"/>
      <point x="130" y="0" type="line"/>
    </contour>
  </outline>
</glyph>
<glyph name="G" format="2">
  <advance width="750"/>
  <unicode hex="0047"/>
  <outline>
    <contour>
      <point x="393" y="-7" type="curve" smooth="yes"/>
      <point x="180" y="-7"/>
      <point x="51" y="143"/>
      <point x="51" y="353" type="curve" smooth="yes"/>
      <point x="51" y="361" type="line" smooth="yes"/>
      <point x="51" y="571"/>
      <point x="199" y="722"/>
      <point x="389" y="722" type="curve" smooth="yes"/>
      <point x="524" y="722"/>
      <point x="645" y="659"/>
      <point x="673" y="519" type="curve"/>
      <point x="637" y="519" type="line"/>
      <point x="608" y="639"/>
      <point x="511" y="692"/>
      <point x="390" y="692" type="curve" smooth="yes"/>
      <point x="214" y="692"/>
      <point x="88" y="555"/>
      <point x="88" y="362" type="curve" smooth="yes"/>
      <point x="88" y="354" type="line" smooth="yes"/>
      <point x="88" y="156"/>
      <point x="199" y="24"/>
      <point x="393" y="24" type="curve" smooth="yes"/>
      <point x="568" y="24"/>
      <point x="662" y="128"/>
      <point x="663" y="303" type="curve" smooth="yes"/>
      <point x="663" y="310" type="line"/>
      <point x="436" y="310" type="line"/>
      <point x="436" y="341" type="line"/>
      <point x="698" y="341" type="line"/>
      <point x="698" y="308" type="line" smooth="yes"/>
      <point x="698" y="103"/>
      <point x="577" y="-7"/>
    </contour>
  </outline>
</glyph>
<glyph name="H" format="2">
  <advance width="709"/>
  <unicode hex="0048"/>
  <outline>
    <contour>
      <point x="94" y="0" type="line"/>
      <point x="94" y="715" type="line"/>
      <point x="130" y="715" type="line"/>
      <point x="130" y="376" type="line"/>
      <point x="579" y="376" type="line"/>
      <point x="579" y="715" type="line"/>
      <point x="615" y="715" type="line"/>
      <point x="615" y="0" type="line"/>
      <point x="579" y="0" type="line"/>
      <point x="579" y="345" type="line"/>
      <point x="130" y="345" type="line"/>
      <point x="130" y="0" type="line"/>
    </contour>
  </outline>
</glyph>
<glyph name="J" format="2">
  <advance width="389"/>
  <unicode hex="004A"/>
  <outline>
    <contour>
      <point x="137" y="-5" type="curve" smooth="yes"/>
      <point x="89" y="-5"/>
      <point x="55" y="6"/>
      <point x="36" y="15" type="curve"/>
      <point x="36" y="47" type="line"/>
      <point x="60" y="36"/>
      <point x="92" y="25"/>
      <point x="135" y="25" type="curve" smooth="yes"/>
      <point x="220" y="25"/>
      <point x="272" y="67"/>
      <point x="272" y="173" type="curve" smooth="yes"/>
      <point x="272" y="715" type="line"/>
      <point x="308" y="715" type="line"/>
      <point x="308" y="172" type="line" smooth="yes"/>
      <point x="308" y="47"/>
      <point x="238" y="-5"/>
    </contour>
  </outline>
</glyph>
<glyph name="L" format="2">
  <advance width="528"/>
  <unicode hex="004C"/>
  <outline>
    <contour>
      <point x="94" y="0" type="line"/>
      <point x="94" y="715" type="line"/>
      <point x="130" y="715" type="line"/>
      <point x="130" y="31" type="line"/>
      <point x="490" y="31" type="line"/>
      <point x="490" y="0" type="line"/>
    </contour>
  </outline>
</glyph>
<glyph name="N" format="2">
  <advance width="707"/>
  <unicode hex="004E"/>
  <outline>
    <contour>
      <point x="94" y="0" type="line"/>
      <point x="94" y="715" type="line"/>
      <point x="145" y="715" type="line"/>
      <point x="578" y="48" type="line"/>
      <point x="578" y="715" type="line"/>
      <point x="613" y="715" type="line"/>
      <point x="613" y="0" type="line"/>
      <point x="569" y="0" type="line"/>
      <point x="129" y="678" type="line"/>
      <point x="129" y="0" type="line"/>
    </contour>
  </outline>
</glyph>
<glyph name="P" format="2">
  <advance width="559"/>
  <unicode hex="0050"/>
  <outline>
    <contour>
      <point x="94" y="0" type="line"/>
      <point x="94" y="715" type="line"/>
      <point x="274" y="715" type="line" smooth="yes"/>
      <point x="414" y="715"/>
      <point x="513" y="662"/>
      <point x="513" y="520" type="curve" smooth="yes"/>
      <point x="513" y="516" type="line" smooth="yes"/>
      <point x="513" y="372"/>
      <point x="416" y="315"/>
      <point x="276" y="315" type="curve" smooth="yes"/>
      <point x="129" y="315" type="line"/>
      <point x="129" y="0" type="line"/>
    </contour>
    <contour>
      <point x="129" y="345" type="line"/>
      <point x="277" y="345" type="line" smooth="yes"/>
      <point x="401" y="345"/>
      <point x="477" y="394"/>
      <point x="477" y="516" type="curve" smooth="yes"/>
      <point x="477" y="520" type="line" smooth="yes"/>
      <point x="477" y="644"/>
      <point x="395" y="685"/>
      <point x="275" y="685" type="curve" smooth="yes"/>
      <point x="129" y="685" type="line"/>
    </contour>
  </outline>
</glyph>
<glyph name="Q" format="2">
  <advance width="795"/>
  <unicode hex="0051"/>
  <outline>
    <contour>
      <point x="681" y="-42" type="line"/>
      <point x="591" y="52" type="line"/>
      <point x="537" y="14"/>
      <point x="471" y="-7"/>
      <point x="400" y="-7" type="curve" smooth="yes"/>
      <point x="200" y="-7"/>
      <point x="51" y="153"/>
      <point x="51" y="353" type="curve" smooth="yes"/>
      <point x="51" y="361" type="line" smooth="yes"/>
      <point x="51" y="564"/>
      <point x="202" y="722"/>
      <point x="398" y="722" type="curve" smooth="yes"/>
      <point x="595" y="722"/>
      <point x="744" y="565"/>
      <point x="744" y="364" type="curve" smooth="yes"/>
      <point x="744" y="356" type="line" smooth="yes"/>
      <point x="744" y="240"/>
      <point x="695" y="137"/>
      <point x="616" y="71" type="curve"/>
      <point x="703" y="-20" type="line"/>
    </contour>
    <contour>
      <point x="400" y="24" type="curve" smooth="yes"/>
      <point x="464" y="24"/>
      <point x="522" y="42"/>
      <point x="569" y="75" type="curve"/>
      <point x="456" y="195" type="line"/>
      <point x="479" y="217" type="line"/>
      <point x="595" y="94" type="line"/>
      <point x="665" y="154"/>
      <point x="707" y="247"/>
      <point x="707" y="356" type="curve" smooth="yes"/>
      <point x="707" y="364" type="line" smooth="yes"/>
      <point x="707" y="547"/>
      <point x="579" y="692"/>
      <point x="398" y="692" type="curve" smooth="yes"/>
      <point x="216" y="692"/>
      <point x="88" y="549"/>
      <point x="88" y="361" type="curve" smooth="yes"/>
      <point x="88" y="353" type="line" smooth="yes"/>
      <point x="88" y="167"/>
      <point x="222" y="24"/>
    </contour>
  </outline>
</glyph>
<glyph name="X" format="2">
  <advance width="638"/>
  <unicode hex="0058"/>
  <outline>
    <contour>
      <point x="47" y="0" type="line"/>
      <point x="300" y="372" type="line"/>
      <point x="70" y="715" type="line"/>
      <point x="110" y="715" type="line"/>
      <point x="323" y="398" type="line"/>
      <point x="535" y="715" type="line"/>
      <point x="573" y="715" type="line"/>
      <point x="342" y="371" type="line"/>
      <point x="592" y="0" type="line"/>
      <point x="552" y="0" type="line"/>
      <point x="319" y="345" type="line"/>
      <point x="84" y="0" type="line"/>
    </contour>
  </outline>
</glyph>
<glyph name="Z" format="2">
  <advance width="582"/>
  <unicode hex="005A"/>
  <outline>
    <contour>
      <point x="27" y="0" type="line"/>
      <point x="27" y="9" type="line"/>
      <point x="493" y="685" type="line"/>
      <point x="63" y="685" type="line"/>
      <point x="63" y="715" type="line"/>
      <point x="545" y="715" type="line"/>
      <point x="545" y="707" type="line"/>
      <point x="81" y="31" type="line"/>
      <point x="539" y="31" type="line"/>
      <point x="539" y="0" type="line"/>
    </contour>
  </outline>
</glyph>
<glyph name="bracketleft" format="2">
  <advance width="331"/>
  <unicode hex="005B"/>
  <outline>
    <contour>
      <point x="96" y="-148" type="line"/>
      <point x="96" y="776" type="line"/>
      <point x="290" y="776" type="line"/>
      <point x="290" y="748" type="line"/>
      <point x="131" y="748" type="line"/>
      <point x="131" y="-120" type="line"/>
      <point x="290" y="-120" type="line"/>
      <point x="290" y="-148" type="line"/>
    </contour>
  </outline>
</glyph>
<glyph name="backslash" format="2">
  <advance width="383"/>
  <unicode hex="005C"/>
  <outline>
    <contour>
      <point x="332" y="-148" type="line"/>
      <point x="41" y="776" type="line"/>
      <point x="75" y="776" type="line"/>
      <point x="366" y="-148" type="line"/>
    </contour>
  </outline>
</glyph>
<glyph name="bracketright" format="2">
  <advance width="331"/>
  <unicode hex="005D"/>
  <outline>
    <contour>
      <point x="40" y="-148" type="line"/>
      <point x="40" y="-120" type="line"/>
      <point x="200" y="-120" type="line"/>
      <point x="200" y="748" type="line"/>
      <point x="40" y="748" type="line"/>
      <point x="40" y="776" type="line"/>
      <point x="234" y="776" type="line"/>
      <point x="234" y="-148" type="line"/>
    </contour>
  </outline>
</glyph>
<glyph name="asciicircum" format="2">
  <advance width="461"/>
  <unicode hex="005E"/>
  <outline>
    <contour>
      <point x="47" y="431" type="line"/>
      <point x="214" y="715" type="line"/>
      <point x="247" y="715" type="line"/>
      <point x="414" y="431" type="line"/>
      <point x="378" y="431" type="line"/>
      <point x="230" y="682" type="line"/>
      <point x="83" y="431" type="line"/>
    </contour>
  </outline>
</glyph>
<glyph name="underscore" format="2">
  <advance width="387"/>
  <unicode hex="005F"/>
  <outline>
    <contour>
      <point x="-1" y="-146" type="line"/>
      <point x="-1" y="-117" type="line"/>
      <point x="388" y="-117" type="line"/>
      <point x="388" y="-146" type="line"/>
    </contour>
  </outline>
</glyph>
<glyph name="grave" format="2">
  <advance width="400"/>
  <unicode hex="0060"/>
  <outline>
    <contour>
      <point x="188" y="600" type="line"/>
      <point x="104" y="747" type="line"/>
      <point x="145" y="747" type="line"/>
      <point x="217" y="600" type="line"/>
    </contour>
  </outline>
</glyph>
<glyph name="b" format="2">
  <advance width="602"/>
  <unicode hex="0062"/>
  <outline>
    <contour>
      <point x="328" y="-8" type="curve" smooth="yes"/>
      <point x="213" y="-8"/>
      <point x="142" y="68"/>
      <point x="115" y="140" type="curve"/>
      <point x="115" y="0" type="line"/>
      <point x="81" y="0" type="line"/>
      <point x="81" y="773" type="line"/>
      <point x="115" y="773" type="line"/>
      <point x="115" y="379" type="line"/>
      <point x="145" y="458"/>
      <point x="225" y="531"/>
      <point x="328" y="531" type="curve" smooth="yes"/>
      <point x="456" y="531"/>
      <point x="560" y="429"/>
      <point x="560" y="266" type="curve" smooth="yes"/>
      <point x="560" y="258" type="line" smooth="yes"/>
      <point x="560" y="91"/>
      <point x="457" y="-8"/>
    </contour>
    <contour>
      <point x="326" y="22" type="curve" smooth="yes"/>
      <point x="441" y="22"/>
      <point x="525" y="108"/>
      <point x="525" y="257" type="curve" smooth="yes"/>
      <point x="525" y="265" type="line" smooth="yes"/>
      <point x="525" y="417"/>
      <point x="433" y="501"/>
      <point x="325" y="501" type="curve" smooth="yes"/>
      <point x="220" y="501"/>
      <point x="115" y="416"/>
      <point x="115" y="265" type="curve" smooth="yes"/>
      <point x="115" y="257" type="line" smooth="yes"/>
      <point x="115" y="108"/>
      <point x="212" y="22"/>
    </contour>
  </outline>
</glyph>
<glyph name="f" format="2">
  <advance width="324"/>
  <unicode hex="0066"/>
  <outline>
    <contour>
      <point x="107" y="0" type="line"/>
      <point x="107" y="494" type="line"/>
      <point x="25" y="494" type="line"/>
      <point x="25" y="523" type="line"/>
      <point x="107" y="523" type="line"/>
      <point x="107" y="622" type="line" smooth="yes"/>
      <point x="107" y="734"/>
      <point x="173" y="776"/>
      <point x="251" y="776" type="curve" smooth="yes"/>
      <point x="274" y="776"/>
      <point x="287" y="774"/>
      <point x="305" y="768" type="curve"/>
      <point x="305" y="738" type="line"/>
      <point x="290" y="743"/>
      <point x="273" y="747"/>
      <point x="251" y="747" type="curve" smooth="yes"/>
      <point x="191" y="747"/>
      <point x="142" y="716"/>
      <point x="142" y="625" type="curve" smooth="yes"/>
      <point x="142" y="523" type="line"/>
      <point x="298" y="523" type="line"/>
      <point x="298" y="494" type="line"/>
      <point x="142" y="494" type="line"/>
      <point x="142" y="0" type="line"/>
    </contour>
  </outline>
</glyph>
<glyph name="i" format="2">
  <advance width="200"/>
  <unicode hex="0069"/>
  <outline>
    <contour>
      <point x="83" y="0" type="line"/>
      <point x="83" y="523" type="line"/>
      <point x="117" y="523" type="line"/>
      <point x="117" y="0" type="line"/>
    </contour>
    <contour>
      <point x="100" y="637" type="curve" smooth="yes"/>
      <point x="85" y="637"/>
      <point x="73" y="650"/>
      <point x="73" y="664" type="curve" smooth="yes"/>
      <point x="73" y="678"/>
      <point x="85" y="690"/>
      <point x="100" y="690" type="curve" smooth="yes"/>
      <point x="115" y="690"/>
      <point x="126" y="678"/>
      <point x="126" y="664" type="curve" smooth="yes"/>
      <point x="126" y="650"/>
      <point x="115" y="637"/>
    </contour>
  </outline>
</glyph>
<glyph name="k" format="2">
  <advance width="468"/>
  <unicode hex="006B"/>
  <outline>
    <contour>
      <point x="407" y="0" type="line"/>
      <point x="118" y="277" type="line"/>
      <point x="393" y="523" type="line"/>
      <point x="435" y="523" type="line"/>
      <point x="160" y="278" type="line"/>
      <point x="451" y="0" type="line"/>
    </contour>
    <contour>
      <point x="81" y="0" type="line"/>
      <point x="81" y="773" type="line"/>
      <point x="115" y="773" type="line"/>
      <point x="115" y="0" type="line"/>
    </contour>
  </outline>
</glyph>
<glyph name="l" format="2">
  <advance width="201"/>
  <unicode hex="006C"/>
  <outline>
    <contour>
      <point x="83" y="0" type="line"/>
      <point x="83" y="773" type="line"/>
      <point x="118" y="773" type="line"/>
      <point x="118" y="0" type="line"/>
    </contour>
  </outline>
</glyph>
<glyph name="m" format="2">
  <advance width="900"/>
  <unicode hex="006D"/>
  <outline>
    <contour>
      <point x="81" y="0" type="line"/>
      <point x="81" y="523" type="line"/>
      <point x="115" y="523" type="line"/>
      <point x="115" y="412" type="line"/>
      <point x="139" y="474"/>
      <point x="205" y="531"/>
      <point x="296" y="531" type="curve" smooth="yes"/>
      <point x="381" y="531"/>
      <point x="441" y="494"/>
      <point x="460" y="402" type="curve"/>
      <point x="490" y="479"/>
      <point x="563" y="531"/>
      <point x="651" y="531" type="curve" smooth="yes"/>
      <point x="756" y="531"/>
      <point x="824" y="475"/>
      <point x="824" y="329" type="curve" smooth="yes"/>
      <point x="824" y="0" type="line"/>
      <point x="790" y="0" type="line"/>
      <point x="790" y="330" type="line" smooth="yes"/>
      <point x="790" y="453"/>
      <point x="738" y="501"/>
      <point x="646" y="501" type="curve" smooth="yes"/>
      <point x="559" y="501"/>
      <point x="470" y="437"/>
      <point x="470" y="318" type="curve" smooth="yes"/>
      <point x="470" y="0" type="line"/>
      <point x="436" y="0" type="line"/>
      <point x="436" y="330" type="line" smooth="yes"/>
      <point x="436" y="453"/>
      <point x="384" y="501"/>
      <point x="292" y="501" type="curve" smooth="yes"/>
      <point x="204" y="501"/>
      <point x="115" y="437"/>
      <point x="115" y="318" type="curve" smooth="yes"/>
      <point x="115" y="0" type="line"/>
    </contour>
  </outline>
</glyph>
<glyph name="q" format="2">
  <advance width="602"/>
  <unicode hex="0071"/>
  <outline>
    <contour>
      <point x="487" y="-182" type="line"/>
      <point x="487" y="140" type="line"/>
      <point x="462" y="71"/>
      <point x="389" y="-8"/>
      <point x="277" y="-8" type="curve" smooth="yes"/>
      <point x="146" y="-8"/>
      <point x="42" y="88"/>
      <point x="42" y="256" type="curve" smooth="yes"/>
      <point x="42" y="264" type="line" smooth="yes"/>
      <point x="42" y="426"/>
      <point x="150" y="531"/>
      <point x="285" y="531" type="curve" smooth="yes"/>
      <point x="397" y="531"/>
      <point x="459" y="460"/>
      <point x="487" y="387" type="curve"/>
      <point x="487" y="523" type="line"/>
      <point x="521" y="523" type="line"/>
      <point x="521" y="-182" type="line"/>
    </contour>
    <contour>
      <point x="279" y="22" type="curve" smooth="yes"/>
      <point x="391" y="22"/>
      <point x="488" y="108"/>
      <point x="488" y="257" type="curve" smooth="yes"/>
      <point x="488" y="265" type="line" smooth="yes"/>
      <point x="488" y="416"/>
      <point x="401" y="501"/>
      <point x="287" y="501" type="curve" smooth="yes"/>
      <point x="171" y="501"/>
      <point x="77" y="415"/>
      <point x="77" y="265" type="curve" smooth="yes"/>
      <point x="77" y="257" type="line" smooth="yes"/>
      <point x="77" y="107"/>
      <point x="165" y="22"/>
    </contour>
  </outline>
</glyph>
<glyph name="v" format="2">
  <advance width="508"/>
  <unicode hex="0076"/>
  <outline>
    <contour>
      <point x="232" y="0" type="line"/>
      <point x="26" y="523" type="line"/>
      <point x="63" y="523" type="line"/>
      <point x="256" y="33" type="line"/>
      <point x="447" y="523" type="line"/>
      <point x="482" y="523" type="line"/>
      <point x="278" y="0" type="line"/>
    </contour>
  </outline>
</glyph>
<glyph name="braceleft" format="2">
  <advance width="351"/>
  <unicode hex="007B"/>
  <outline>
    <contour>
      <point x="311" y="-145" type="line"/>
      <point x="181" y="-145"/>
      <point x="112" y="-97"/>
      <point x="141" y="48" type="curve" smooth="yes"/>
      <point x="165" y="168" type="line" smooth="yes"/>
      <point x="180" y="246"/>
      <point x="149" y="302"/>
      <point x="43" y="302" type="curve"/>
      <point x="43" y="330" type="line"/>
      <point x="149" y="331"/>
      <point x="180" y="386"/>
      <point x="165" y="464" type="curve" smooth="yes"/>
      <point x="141" y="585" type="line" smooth="yes"/>
      <point x="112" y="729"/>
      <point x="181" y="777"/>
      <point x="311" y="777" type="curve"/>
      <point x="311" y="749" type="line"/>
      <point x="204" y="748"/>
      <point x="148" y="716"/>
      <point x="173" y="586" type="curve" smooth="yes"/>
      <point x="197" y="463" type="line" smooth="yes"/>
      <point x="215" y="375"/>
      <point x="173" y="332"/>
      <point x="106" y="316" type="curve"/>
      <point x="173" y="301"/>
      <point x="215" y="258"/>
      <point x="197" y="169" type="curve" smooth="yes"/>
      <point x="173" y="46" type="line" smooth="yes"/>
      <point x="148" y="-84"/>
      <point x="204" y="-116"/>
      <point x="311" y="-117" type="curve"/>
    </contour>
  </outline>
</glyph>
<glyph name="braceright" format="2">
  <advance width="351"/>
  <unicode hex="007D"/>
  <outline>
    <contour>
      <point x="40" y="-145" type="curve"/>
      <point x="40" y="-117" type="line"/>
      <point x="147" y="-116"/>
      <point x="204" y="-84"/>
      <point x="178" y="46" type="curve" smooth="yes"/>
      <point x="154" y="169" type="line" smooth="yes"/>
      <point x="137" y="258"/>
      <point x="178" y="301"/>
      <point x="245" y="316" type="curve"/>
      <point x="178" y="332"/>
      <point x="137" y="375"/>
      <point x="154" y="463" type="curve" smooth="yes"/>
      <point x="178" y="586" type="line" smooth="yes"/>
      <point x="204" y="716"/>
      <point x="147" y="748"/>
      <point x="40" y="749" type="curve"/>
      <point x="40" y="777" type="line"/>
      <point x="170" y="777"/>
      <point x="239" y="729"/>
      <point x="211" y="585" type="curve" smooth="yes"/>
      <point x="186" y="464" type="line" smooth="yes"/>
      <point x="171" y="386"/>
      <point x="202" y="331"/>
      <point x="308" y="330" type="curve"/>
      <point x="308" y="302" type="line"/>
      <point x="202" y="302"/>
      <point x="171" y="246"/>
      <point x="186" y="168" type="curve" smooth="yes"/>
      <point x="211" y="48" type="line" smooth="yes"/>
      <point x="239" y="-97"/>
      <point x="170" y="-145"/>
    </contour>
  </outline>
</glyph>
<glyph name="asciitilde" format="2">
  <advance width="433"/>
  <unicode hex="007E"/>
  <outline>
    <contour>
      <point x="48" y="237" type="line"/>
      <point x="55" y="296"/>
      <point x="89" y="336"/>
      <point x="138" y="336" type="curve" smooth="yes"/>
      <point x="201" y="336"/>
      <point x="245" y="270"/>
      <point x="295" y="270" type="curve" smooth="yes"/>
      <point x="328" y="270"/>
      <point x="351" y="301"/>
      <point x="355" y="338" type="curve"/>
      <point x="385" y="338" type="line"/>
      <point x="379" y="279"/>
      <point x="344" y="239"/>
      <point x="296" y="239" type="curve" smooth="yes"/>
      <point x="231" y="239"/>
      <point x="188" y="305"/>
      <point x="139" y="305" type="curve" smooth="yes"/>
      <point x="105" y="305"/>
      <point x="83" y="274"/>
      <point x="78" y="237" type="curve"/>
    </contour>
  </outline>
</glyph>
<glyph name="exclamdown" format="2">
  <advance width="263"/>
  <unicode hex="00A1"/>
  <outline>
    <contour>
      <point x="111" y="-117" type="line"/>
      <point x="116" y="434" type="line"/>
      <point x="144" y="434" type="line"/>
      <point x="149" y="-117" type="line"/>
    </contour>
    <contour>
      <point x="131" y="546" type="curve" smooth="yes"/>
      <point x="115" y="546"/>
      <point x="103" y="559"/>
      <point x="103" y="574" type="curve" smooth="yes"/>
      <point x="103" y="590"/>
      <point x="115" y="603"/>
      <point x="131" y="603" type="curve" smooth="yes"/>
      <point x="148" y="603"/>
      <point x="160" y="590"/>
      <point x="160" y="574" type="curve" smooth="yes"/>
      <point x="160" y="559"/>
      <point x="148" y="546"/>
    </contour>
  </outline>
</glyph>
<glyph name="cent" format="2">
  <advance width="546"/>
  <unicode hex="00A2"/>
  <outline>
    <contour>
      <point x="271" y="-135" type="line"/>
      <point x="271" y="-7" type="line"/>
      <point x="142" y="0"/>
      <point x="42" y="99"/>
      <point x="42" y="257" type="curve" smooth="yes"/>
      <point x="42" y="265" type="line" smooth="yes"/>
      <point x="42" y="423"/>
      <point x="144" y="522"/>
      <point x="271" y="530" type="curve"/>
      <point x="271" y="629" type="line"/>
      <point x="302" y="629" type="line"/>
      <point x="302" y="530" type="line"/>
      <point x="401" y="525"/>
      <point x="488" y="465"/>
      <point x="502" y="362" type="curve"/>
      <point x="468" y="362" type="line"/>
      <point x="456" y="448"/>
      <point x="385" y="496"/>
      <point x="302" y="500" type="curve"/>
      <point x="302" y="22" type="line"/>
      <point x="390" y="28"/>
      <point x="461" y="82"/>
      <point x="476" y="177" type="curve"/>
      <point x="508" y="177" type="line"/>
      <point x="492" y="70"/>
      <point x="409" y="-1"/>
      <point x="302" y="-7" type="curve"/>
      <point x="302" y="-135" type="line"/>
    </contour>
    <contour>
      <point x="77" y="257" type="line" smooth="yes"/>
      <point x="77" y="113"/>
      <point x="162" y="30"/>
      <point x="271" y="22" type="curve"/>
      <point x="271" y="500" type="line"/>
      <point x="162" y="493"/>
      <point x="77" y="409"/>
      <point x="77" y="265" type="curve" smooth="yes"/>
    </contour>
  </outline>
</glyph>
<glyph name="sterling" format="2">
  <advance width="585"/>
  <unicode hex="00A3"/>
  <outline>
    <contour>
      <point x="50" y="334" type="line"/>
      <point x="50" y="363" type="line"/>
      <point x="124" y="363" type="line"/>
      <point x="110" y="410"/>
      <point x="97" y="459"/>
      <point x="97" y="520" type="curve" smooth="yes"/>
      <point x="97" y="642"/>
      <point x="186" y="722"/>
      <point x="311" y="722" type="curve" smooth="yes"/>
      <point x="439" y="722"/>
      <point x="508" y="650"/>
      <point x="519" y="543" type="curve"/>
      <point x="484" y="543" type="line"/>
      <point x="470" y="637"/>
      <point x="419" y="691"/>
      <point x="311" y="691" type="curve" smooth="yes"/>
      <point x="206" y="691"/>
      <point x="134" y="621"/>
      <point x="134" y="520" type="curve" smooth="yes"/>
      <point x="134" y="459"/>
      <point x="147" y="411"/>
      <point x="161" y="363" type="curve"/>
      <point x="400" y="363" type="line"/>
      <point x="400" y="334" type="line"/>
      <point x="170" y="334" type="line"/>
      <point x="181" y="292"/>
      <point x="191" y="248"/>
      <point x="191" y="195" type="curve" smooth="yes"/>
      <point x="191" y="159"/>
      <point x="182" y="128"/>
      <point x="169" y="102" type="curve"/>
      <point x="249" y="97"/>
      <point x="331" y="24"/>
      <point x="409" y="24" type="curve" smooth="yes"/>
      <point x="476" y="24"/>
      <point x="516" y="66"/>
      <point x="520" y="140" type="curve"/>
      <point x="553" y="140" type="line"/>
      <point x="547" y="50"/>
      <point x="492" y="-7"/>
      <point x="412" y="-7" type="curve" smooth="yes"/>
      <point x="317" y="-7"/>
      <point x="238" y="72"/>
      <point x="163" y="72" type="curve" smooth="yes"/>
      <point x="113" y="72"/>
      <point x="83" y="41"/>
      <point x="77" y="0" type="curve"/>
      <point x="44" y="0" type="line"/>
      <point x="50" y="44"/>
      <point x="79" y="88"/>
      <point x="133" y="99" type="curve"/>
      <point x="148" y="125"/>
      <point x="158" y="158"/>
      <point x="158" y="195" type="curve" smooth="yes"/>
      <point x="158" y="247"/>
      <point x="147" y="290"/>
      <point x="134" y="334" type="curve"/>
    </contour>
  </outline>
</glyph>
<glyph name="yen" format="2">
  <advance width="531"/>
  <unicode hex="00A5"/>
  <outline>
    <contour>
      <point x="65" y="318" type="line"/>
      <point x="65" y="347" type="line"/>
      <point x="247" y="347" type="line"/>
      <point x="28" y="715" type="line"/>
      <point x="67" y="715" type="line"/>
      <point x="274" y="366" type="line"/>
      <point x="467" y="715" type="line"/>
      <point x="503" y="715" type="line"/>
      <point x="299" y="347" type="line"/>
      <point x="477" y="347" type="line"/>
      <point x="477" y="318" type="line"/>
      <point x="291" y="318" type="line"/>
      <point x="291" y="211" type="line"/>
      <point x="477" y="211" type="line"/>
      <point x="477" y="182" type="line"/>
      <point x="291" y="182" type="line"/>
      <point x="291" y="0" type="line"/>
      <point x="255" y="0" type="line"/>
      <point x="255" y="182" type="line"/>
      <point x="65" y="182" type="line"/>
      <point x="65" y="211" type="line"/>
      <point x="255" y="211" type="line"/>
      <point x="255" y="318" type="line"/>
    </contour>
  </outline>
</glyph>
<glyph name="section" format="2">
  <advance width="532"/>
  <unicode hex="00A7"/>
  <outline>
    <contour>
      <point x="266" y="-137" type="curve" smooth="yes"/>
      <point x="166" y="-137"/>
      <point x="90" y="-84"/>
      <point x="83" y="10" type="curve"/>
      <point x="119" y="10" type="line"/>
      <point x="125" y="-63"/>
      <point x="181" y="-107"/>
      <point x="266" y="-107" type="curve" smooth="yes"/>
      <point x="354" y="-107"/>
      <point x="398" y="-59"/>
      <point x="398" y="12" type="curve" smooth="yes"/>
      <point x="398" y="92"/>
      <point x="355" y="120"/>
      <point x="236" y="151" type="curve" smooth="yes"/>
      <point x="124" y="181"/>
      <point x="49" y="216"/>
      <point x="49" y="312" type="curve" smooth="yes"/>
      <point x="49" y="385"/>
      <point x="111" y="434"/>
      <point x="187" y="450" type="curve"/>
      <point x="138" y="478"/>
      <point x="110" y="510"/>
      <point x="110" y="578" type="curve" smooth="yes"/>
      <point x="110" y="666"/>
      <point x="185" y="724"/>
      <point x="274" y="724" type="curve" smooth="yes"/>
      <point x="371" y="724"/>
      <point x="428" y="673"/>
      <point x="435" y="585" type="curve"/>
      <point x="400" y="585" type="line"/>
      <point x="393" y="655"/>
      <point x="357" y="694"/>
      <point x="275" y="694" type="curve" smooth="yes"/>
      <point x="202" y="694"/>
      <point x="144" y="653"/>
      <point x="144" y="579" type="curve" smooth="yes"/>
      <point x="144" y="505"/>
      <point x="184" y="476"/>
      <point x="299" y="442" type="curve" smooth="yes"/>
      <point x="410" y="409"/>
      <point x="484" y="373"/>
      <point x="484" y="280" type="curve" smooth="yes"/>
      <point x="484" y="205"/>
      <point x="431" y="161"/>
      <point x="354" y="143" type="curve"/>
      <point x="406" y="117"/>
      <point x="432" y="76"/>
      <point x="432" y="12" type="curve" smooth="yes"/>
      <point x="432" y="-76"/>
      <point x="368" y="-137"/>
    </contour>
    <contour>
      <point x="325" y="160" type="line"/>
      <point x="403" y="175"/>
      <point x="449" y="211"/>
      <point x="449" y="278" type="curve" smooth="yes"/>
      <point x="449" y="351"/>
      <point x="393" y="378"/>
      <point x="292" y="409" type="curve" smooth="yes"/>
      <point x="216" y="434" type="line"/>
      <point x="142" y="421"/>
      <point x="84" y="381"/>
      <point x="84" y="314" type="curve" smooth="yes"/>
      <point x="84" y="237"/>
      <point x="145" y="212"/>
      <point x="244" y="183" type="curve" smooth="yes"/>
    </contour>
  </outline>
</glyph>
<glyph name="dieresis" format="2">
  <advance width="400"/>
  <unicode hex="00A8"/>
  <outline>
    <contour>
      <point x="123" y="638" type="curve" smooth="yes"/>
      <point x="109" y="638"/>
      <point x="97" y="650"/>
      <point x="97" y="664" type="curve" smooth="yes"/>
      <point x="97" y="678"/>
      <point x="109" y="690"/>
      <point x="123" y="690" type="curve" smooth="yes"/>
      <point x="138" y="690"/>
      <point x="149" y="678"/>
      <point x="149" y="664" type="curve" smooth="yes"/>
      <point x="149" y="650"/>
      <point x="138" y="638"/>
    </contour>
    <contour>
      <point x="277" y="638" type="curve" smooth="yes"/>
      <point x="262" y="638"/>
      <point x="251" y="650"/>
      <point x="251" y="664" type="curve" smooth="yes"/>
      <point x="251" y="678"/>
      <point x="262" y="690"/>
      <point x="277" y="690" type="curve" smooth="yes"/>
      <point x="292" y="690"/>
      <point x="303" y="678"/>
      <point x="303" y="664" type="curve" smooth="yes"/>
      <point x="303" y="650"/>
      <point x="292" y="638"/>
    </contour>
  </outline>
</glyph>
<glyph name="copyright" format="2">
  <advance width="844"/>
  <unicode hex="00A9"/>
  <outline>
    <contour>
      <point x="425" y="148" type="curve" smooth="yes"/>
      <point x="304" y="148"/>
      <point x="228" y="234"/>
      <point x="228" y="358" type="curve" smooth="yes"/>
      <point x="228" y="365" type="line" smooth="yes"/>
      <point x="228" y="488"/>
      <point x="315" y="575"/>
      <point x="424" y="575" type="curve" smooth="yes"/>
      <point x="512" y="575"/>
      <point x="581" y="530"/>
      <point x="595" y="445" type="curve"/>
      <point x="562" y="445" type="line"/>
      <point x="548" y="511"/>
      <point x="500" y="547"/>
      <point x="424" y="547" type="curve" smooth="yes"/>
      <point x="331" y="547"/>
      <point x="262" y="474"/>
      <point x="262" y="365" type="curve" smooth="yes"/>
      <point x="262" y="359" type="line" smooth="yes"/>
      <point x="262" y="247"/>
      <point x="325" y="177"/>
      <point x="425" y="177" type="curve" smooth="yes"/>
      <point x="500" y="177"/>
      <point x="554" y="217"/>
      <point x="568" y="288" type="curve"/>
      <point x="600" y="288" type="line"/>
      <point x="585" y="199"/>
      <point x="515" y="148"/>
    </contour>
    <contour>
      <point x="421" y="-9" type="curve" smooth="yes"/>
      <point x="218" y="-9"/>
      <point x="55" y="150"/>
      <point x="55" y="357" type="curve" smooth="yes"/>
      <point x="55" y="561"/>
      <point x="217" y="724"/>
      <point x="423" y="724" type="curve" smooth="yes"/>
      <point x="631" y="724"/>
      <point x="789" y="562"/>
      <point x="789" y="359" type="curve" smooth="yes"/>
      <point x="789" y="151"/>
      <point x="627" y="-9"/>
    </contour>
    <contour>
      <point x="421" y="17" type="curve" smooth="yes"/>
      <point x="609" y="17"/>
      <point x="760" y="163"/>
      <point x="760" y="359" type="curve" smooth="yes"/>
      <point x="760" y="551"/>
      <point x="614" y="698"/>
      <point x="423" y="698" type="curve" smooth="yes"/>
      <point x="234" y="698"/>
      <point x="84" y="550"/>
      <point x="84" y="357" type="curve" smooth="yes"/>
      <point x="84" y="162"/>
      <point x="236" y="17"/>
    </contour>
  </outline>
</glyph>
<glyph name="ordfeminine" format="2">
  <advance width="418"/>
  <unicode hex="00AA"/>
  <outline>
    <contour>
      <point x="179" y="310" type="curve" smooth="yes"/>
      <point x="98" y="310"/>
      <point x="42" y="349"/>
      <point x="42" y="422" type="curve" smooth="yes"/>
      <point x="42" y="516"/>
      <point x="125" y="543"/>
      <point x="225" y="543" type="curve" smooth="yes"/>
      <point x="320" y="543" type="line"/>
      <point x="320" y="580" type="line" smooth="yes"/>
      <point x="320" y="659"/>
      <point x="287" y="694"/>
      <point x="212" y="694" type="curve" smooth="yes"/>
      <point x="150" y="694"/>
      <point x="104" y="667"/>
      <point x="93" y="606" type="curve"/>
      <point x="60" y="606" type="line"/>
      <point x="70" y="685"/>
      <point x="137" y="722"/>
      <point x="214" y="722" type="curve" smooth="yes"/>
      <point x="302" y="722"/>
      <point x="353" y="676"/>
      <point x="353" y="580" type="curve" smooth="yes"/>
      <point x="353" y="315" type="line"/>
      <point x="320" y="315" type="line"/>
      <point x="320" y="382" type="line"/>
      <point x="297" y="343"/>
      <point x="250" y="310"/>
    </contour>
    <contour>
      <point x="183" y="337" type="curve" smooth="yes"/>
      <point x="258" y="337"/>
      <point x="320" y="382"/>
      <point x="320" y="440" type="curve" smooth="yes"/>
      <point x="320" y="517" type="line"/>
      <point x="225" y="517" type="line" smooth="yes"/>
      <point x="141" y="517"/>
      <point x="75" y="500"/>
      <point x="75" y="423" type="curve" smooth="yes"/>
      <point x="75" y="367"/>
      <point x="113" y="337"/>
    </contour>
  </outline>
</glyph>
<glyph name="guillemotleft" format="2">
  <advance width="415"/>
  <unicode hex="00AB"/>
  <outline>
    <contour>
      <point x="189" y="83" type="line"/>
      <point x="52" y="261" type="line"/>
      <point x="189" y="439" type="line"/>
      <point x="225" y="439" type="line"/>
      <point x="89" y="261" type="line"/>
      <point x="225" y="83" type="line"/>
    </contour>
    <contour>
      <point x="334" y="83" type="line"/>
      <point x="197" y="261" type="line"/>
      <point x="334" y="439" type="line"/>
      <point x="370" y="439" type="line"/>
      <point x="234" y="261" type="line"/>
      <point x="370" y="83" type="line"/>
    </contour>
  </outline>
</glyph>
<glyph name="registered" format="2">
  <advance width="514"/>
  <unicode hex="00AE"/>
  <outline>
    <contour>
      <point x="184" y="389" type="line"/>
      <point x="184" y="626" type="line"/>
      <point x="257" y="626" type="line" smooth="yes"/>
      <point x="307" y="626"/>
      <point x="341" y="604"/>
      <point x="341" y="560" type="curve" smooth="yes"/>
      <point x="341" y="559" type="line" smooth="yes"/>
      <point x="341" y="521"/>
      <point x="316" y="501"/>
      <point x="281" y="496" type="curve"/>
      <point x="354" y="389" type="line"/>
      <point x="323" y="389" type="line"/>
      <point x="251" y="493" type="line"/>
      <point x="211" y="493" type="line"/>
      <point x="211" y="389" type="line"/>
    </contour>
    <contour>
      <point x="211" y="515" type="line"/>
      <point x="258" y="515" type="line" smooth="yes"/>
      <point x="296" y="515"/>
      <point x="313" y="528"/>
      <point x="313" y="558" type="curve" smooth="yes"/>
      <point x="313" y="559" type="line" smooth="yes"/>
      <point x="313" y="591"/>
      <point x="295" y="603"/>
      <point x="258" y="603" type="curve" smooth="yes"/>
      <point x="211" y="603" type="line"/>
    </contour>
    <contour>
      <point x="257" y="282" type="curve" smooth="yes"/>
      <point x="134" y="282"/>
      <point x="35" y="377"/>
      <point x="35" y="502" type="curve" smooth="yes"/>
      <point x="35" y="625"/>
      <point x="133" y="724"/>
      <point x="257" y="724" type="curve" smooth="yes"/>
      <point x="383" y="724"/>
      <point x="479" y="626"/>
      <point x="479" y="503" type="curve" smooth="yes"/>
      <point x="479" y="378"/>
      <point x="381" y="282"/>
    </contour>
    <contour>
      <point x="257" y="304" type="curve" smooth="yes"/>
      <point x="368" y="304"/>
      <point x="454" y="389"/>
      <point x="454" y="503" type="curve" smooth="yes"/>
      <point x="454" y="616"/>
      <point x="370" y="702"/>
      <point x="257" y="702" type="curve" smooth="yes"/>
      <point x="145" y="702"/>
      <point x="60" y="615"/>
      <point x="60" y="502" type="curve" smooth="yes"/>
      <point x="60" y="388"/>
      <point x="147" y="304"/>
    </contour>
  </outline>
</glyph>
<glyph name="macron" format="2">
  <advance width="400"/>
  <unicode hex="00AF"/>
  <outline>
    <contour>
      <point x="85" y="647" type="line"/>
      <point x="85" y="675" type="line"/>
      <point x="315" y="675" type="line"/>
      <point x="315" y="647" type="line"/>
    </contour>
  </outline>
</glyph>
<glyph name="degree" format="2">
  <advance width="395"/>
  <unicode hex="00B0"/>
  <outline>
    <contour>
      <point x="198" y="467" type="curve" smooth="yes"/>
      <point x="263" y="467"/>
      <point x="311" y="519"/>
      <point x="311" y="581" type="curve" smooth="yes"/>
      <point x="311" y="645"/>
      <point x="263" y="698"/>
      <point x="198" y="698" type="curve" smooth="yes"/>
      <point x="132" y="698"/>
      <point x="83" y="645"/>
      <point x="83" y="581" type="curve" smooth="yes"/>
      <point x="83" y="519"/>
      <point x="132" y="467"/>
    </contour>
    <contour>
      <point x="198" y="441" type="curve" smooth="yes"/>
      <point x="117" y="441"/>
      <point x="52" y="504"/>
      <point x="52" y="581" type="curve" smooth="yes"/>
      <point x="52" y="660"/>
      <point x="117" y="724"/>
      <point x="198" y="724" type="curve" smooth="yes"/>
      <point x="278" y="724"/>
      <point x="343" y="660"/>
      <point x="343" y="581" type="curve" smooth="yes"/>
      <point x="343" y="504"/>
      <point x="278" y="441"/>
    </contour>
  </outline>
</glyph>
<glyph name="plusminus" format="2">
  <advance width="505"/>
  <unicode hex="00B1"/>
  <outline>
    <contour>
      <point x="237" y="123" type="line"/>
      <point x="237" y="332" type="line"/>
      <point x="37" y="332" type="line"/>
      <point x="37" y="362" type="line"/>
      <point x="237" y="362" type="line"/>
      <point x="237" y="572" type="line"/>
      <point x="268" y="572" type="line"/>
      <point x="268" y="362" type="line"/>
      <point x="468" y="362" type="line"/>
      <point x="468" y="332" type="line"/>
      <point x="268" y="332" type="line"/>
      <point x="268" y="123" type="line"/>
    </contour>
    <contour>
      <point x="37" y="0" type="line"/>
      <point x="37" y="30" type="line"/>
      <point x="468" y="30" type="line"/>
      <point x="468" y="0" type="line"/>
    </contour>
  </outline>
</glyph>
<glyph name="threesuperior" format="2">
  <advance width="307"/>
  <unicode hex="00B3"/>
  <outline>
    <contour>
      <point x="154" y="367" type="curve" smooth="yes"/>
      <point x="77" y="367"/>
      <point x="30" y="413"/>
      <point x="26" y="469" type="curve"/>
      <point x="55" y="469" type="line"/>
      <point x="60" y="428"/>
      <point x="92" y="392"/>
      <point x="153" y="392" type="curve" smooth="yes"/>
      <point x="208" y="392"/>
      <point x="240" y="420"/>
      <point x="240" y="467" type="curve" smooth="yes"/>
      <point x="240" y="509"/>
      <point x="210" y="539"/>
      <point x="159" y="539" type="curve" smooth="yes"/>
      <point x="132" y="539" type="line"/>
      <point x="132" y="563" type="line"/>
      <point x="157" y="563" type="line" smooth="yes"/>
      <point x="206" y="563"/>
      <point x="230" y="592"/>
      <point x="230" y="628" type="curve" smooth="yes"/>
      <point x="230" y="668"/>
      <point x="199" y="695"/>
      <point x="153" y="695" type="curve" smooth="yes"/>
      <point x="99" y="695"/>
      <point x="72" y="662"/>
      <point x="67" y="622" type="curve"/>
      <point x="39" y="622" type="line"/>
      <point x="43" y="675"/>
      <point x="84" y="718"/>
      <point x="153" y="718" type="curve" smooth="yes"/>
      <point x="217" y="718"/>
      <point x="259" y="681"/>
      <point x="259" y="629" type="curve" smooth="yes"/>
      <point x="259" y="589"/>
      <point x="235" y="562"/>
      <point x="199" y="552" type="curve"/>
      <point x="239" y="544"/>
      <point x="271" y="514"/>
      <point x="271" y="467" type="curve" smooth="yes"/>
      <point x="271" y="404"/>
      <point x="224" y="367"/>
    </contour>
  </outline>
</glyph>
<glyph name="acute" format="2">
  <advance width="400"/>
  <unicode hex="00B4"/>
  <outline>
    <contour>
      <point x="184" y="600" type="line"/>
      <point x="255" y="747" type="line"/>
      <point x="296" y="747" type="line"/>
      <point x="212" y="600" type="line"/>
    </contour>
  </outline>
</glyph>
<glyph name="paragraph" format="2">
  <advance width="542"/>
  <unicode hex="00B6"/>
  <outline>
    <contour>
      <point x="269" y="-100" type="line"/>
      <point x="269" y="357" type="line"/>
      <point x="255" y="357" type="line" smooth="yes"/>
      <point x="131" y="357"/>
      <point x="44" y="415"/>
      <point x="44" y="532" type="curve" smooth="yes"/>
      <point x="44" y="656"/>
      <point x="135" y="715"/>
      <point x="255" y="715" type="curve" smooth="yes"/>
      <point x="447" y="715" type="line"/>
      <point x="447" y="-100" type="line"/>
      <point x="416" y="-100" type="line"/>
      <point x="416" y="689" type="line"/>
      <point x="299" y="689" type="line"/>
      <point x="299" y="-100" type="line"/>
    </contour>
  </outline>
</glyph>
<glyph name="periodcentered" format="2">
  <advance width="195"/>
  <unicode hex="00B7"/>
  <outline>
    <contour>
      <point x="98" y="293" type="curve" smooth="yes"/>
      <point x="81" y="293"/>
      <point x="69" y="306"/>
      <point x="69" y="322" type="curve" smooth="yes"/>
      <point x="69" y="338"/>
      <point x="81" y="351"/>
      <point x="98" y="351" type="curve" smooth="yes"/>
      <point x="114" y="351"/>
      <point x="126" y="338"/>
      <point x="126" y="322" type="curve" smooth="yes"/>
      <point x="126" y="306"/>
      <point x="114" y="293"/>
    </contour>
  </outline>
</glyph>
<glyph name="cedilla" format="2">
  <advance width="400"/>
  <unicode hex="00B8"/>
  <outline>
    <contour>
      <point x="211" y="-211" type="curve" smooth="yes"/>
      <point x="161" y="-211"/>
      <point x="124" y="-182"/>
      <point x="119" y="-136" type="curve"/>
      <point x="151" y="-136" type="line"/>
      <point x="155" y="-164"/>
      <point x="176" y="-183"/>
      <point x="210" y="-183" type="curve" smooth="yes"/>
      <point x="245" y="-183"/>
      <point x="266" y="-163"/>
      <point x="266" y="-134" type="curve" smooth="yes"/>
      <point x="266" y="-99"/>
      <point x="241" y="-89"/>
      <point x="214" y="-89" type="curve" smooth="yes"/>
      <point x="195" y="-89"/>
      <point x="181" y="-96"/>
      <point x="175" y="-99" type="curve"/>
      <point x="155" y="-81" type="line"/>
      <point x="201" y="0" type="line"/>
      <point x="233" y="0" type="line"/>
      <point x="195" y="-67" type="line"/>
      <point x="245" y="-52"/>
      <point x="299" y="-73"/>
      <point x="299" y="-135" type="curve" smooth="yes"/>
      <point x="299" y="-184"/>
      <point x="261" y="-211"/>
    </contour>
  </outline>
</glyph>
<glyph name="ordmasculine" format="2">
  <advance width="464"/>
  <unicode hex="00BA"/>
  <outline>
    <contour>
      <point x="232" y="338" type="curve" smooth="yes"/>
      <point x="320" y="338"/>
      <point x="390" y="404"/>
      <point x="390" y="513" type="curve" smooth="yes"/>
      <point x="390" y="519" type="line" smooth="yes"/>
      <point x="390" y="629"/>
      <point x="320" y="693"/>
      <point x="233" y="693" type="curve" smooth="yes"/>
      <point x="146" y="693"/>
      <point x="74" y="626"/>
      <point x="74" y="518" type="curve" smooth="yes"/>
      <point x="74" y="512" type="line" smooth="yes"/>
      <point x="74" y="406"/>
      <point x="144" y="338"/>
    </contour>
    <contour>
      <point x="231" y="310" type="curve" smooth="yes"/>
      <point x="125" y="310"/>
      <point x="40" y="392"/>
      <point x="40" y="512" type="curve" smooth="yes"/>
      <point x="40" y="518" type="line" smooth="yes"/>
      <point x="40" y="642"/>
      <point x="128" y="721"/>
      <point x="233" y="721" type="curve" smooth="yes"/>
      <point x="339" y="721"/>
      <point x="424" y="645"/>
      <point x="424" y="519" type="curve" smooth="yes"/>
      <point x="424" y="513" type="line" smooth="yes"/>
      <point x="424" y="388"/>
      <point x="338" y="310"/>
    </contour>
  </outline>
</glyph>
<glyph name="guillemotright" format="2">
  <advance width="415"/>
  <unicode hex="00BB"/>
  <outline>
    <contour>
      <point x="45" y="83" type="line"/>
      <point x="181" y="261" type="line"/>
      <point x="45" y="439" type="line"/>
      <point x="81" y="439" type="line"/>
      <point x="219" y="261" type="line"/>
      <point x="81" y="83" type="line"/>
    </contour>
    <contour>
      <point x="190" y="83" type="line"/>
      <point x="326" y="261" type="line"/>
      <point x="190" y="439" type="line"/>
      <point x="226" y="439" type="line"/>
      <point x="364" y="261" type="line"/>
      <point x="226" y="83" type="line"/>
    </contour>
  </outline>
</glyph>
<glyph name="onequarter" format="2">
  <advance width="650"/>
  <unicode hex="00BC"/>
  <outline>
    <contour>
      <point x="114" y="371" type="line"/>
      <point x="114" y="680" type="line"/>
      <point x="23" y="615" type="line"/>
      <point x="23" y="644" type="line"/>
      <point x="122" y="715" type="line"/>
      <point x="145" y="715" type="line"/>
      <point x="145" y="371" type="line"/>
    </contour>
    <contour>
      <point x="44" y="0" type="line"/>
      <point x="566" y="715" type="line"/>
      <point x="597" y="715" type="line"/>
      <point x="75" y="0" type="line"/>
    </contour>
    <contour>
      <point x="543" y="0" type="line"/>
      <point x="543" y="77" type="line"/>
      <point x="361" y="77" type="line"/>
      <point x="361" y="88" type="line"/>
      <point x="532" y="344" type="line"/>
      <point x="573" y="344" type="line"/>
      <point x="573" y="102" type="line"/>
      <point x="620" y="102" type="line"/>
      <point x="620" y="77" type="line"/>
      <point x="573" y="77" type="line"/>
      <point x="573" y="0" type="line"/>
    </contour>
    <contour>
      <point x="398" y="102" type="line"/>
      <point x="543" y="102" type="line"/>
      <point x="543" y="322" type="line"/>
    </contour>
  </outline>
</glyph>
<glyph name="onehalf" format="2">
  <advance width="658"/>
  <unicode hex="00BD"/>
  <outline>
    <contour>
      <point x="25" y="0" type="line"/>
      <point x="547" y="715" type="line"/>
      <point x="578" y="715" type="line"/>
      <point x="56" y="0" type="line"/>
    </contour>
    <contour>
      <point x="116" y="371" type="line"/>
      <point x="116" y="680" type="line"/>
      <point x="25" y="615" type="line"/>
      <point x="25" y="644" type="line"/>
      <point x="124" y="715" type="line"/>
      <point x="147" y="715" type="line"/>
      <point x="147" y="371" type="line"/>
    </contour>
    <contour>
      <point x="386" y="0" type="line"/>
      <point x="386" y="8" type="line"/>
      <point x="516" y="137" type="line" smooth="yes"/>
      <point x="564" y="183"/>
      <point x="585" y="213"/>
      <point x="585" y="252" type="curve" smooth="yes"/>
      <point x="585" y="297"/>
      <point x="553" y="323"/>
      <point x="508" y="323" type="curve" smooth="yes"/>
      <point x="457" y="323"/>
      <point x="429" y="291"/>
      <point x="423" y="238" type="curve"/>
      <point x="395" y="238" type="line"/>
      <point x="400" y="307"/>
      <point x="443" y="348"/>
      <point x="509" y="348" type="curve" smooth="yes"/>
      <point x="573" y="348"/>
      <point x="615" y="309"/>
      <point x="615" y="252" type="curve" smooth="yes"/>
      <point x="615" y="205"/>
      <point x="592" y="173"/>
      <point x="539" y="122" type="curve" smooth="yes"/>
      <point x="437" y="25" type="line"/>
      <point x="618" y="25" type="line"/>
      <point x="618" y="0" type="line"/>
    </contour>
  </outline>
</glyph>
<glyph name="threequarters" format="2">
  <advance width="671"/>
  <unicode hex="00BE"/>
  <outline>
    <contour>
      <point x="157" y="367" type="curve" smooth="yes"/>
      <point x="80" y="367"/>
      <point x="33" y="413"/>
      <point x="29" y="469" type="curve"/>
      <point x="58" y="469" type="line"/>
      <point x="63" y="428"/>
      <point x="95" y="392"/>
      <point x="156" y="392" type="curve" smooth="yes"/>
      <point x="211" y="392"/>
      <point x="243" y="420"/>
      <point x="243" y="467" type="curve" smooth="yes"/>
      <point x="243" y="509"/>
      <point x="213" y="539"/>
      <point x="162" y="539" type="curve" smooth="yes"/>
      <point x="135" y="539" type="line"/>
      <point x="135" y="563" type="line"/>
      <point x="160" y="563" type="line" smooth="yes"/>
      <point x="209" y="563"/>
      <point x="233" y="592"/>
      <point x="233" y="628" type="curve" smooth="yes"/>
      <point x="233" y="668"/>
      <point x="202" y="695"/>
      <point x="156" y="695" type="curve" smooth="yes"/>
      <point x="102" y="695"/>
      <point x="75" y="662"/>
      <point x="70" y="622" type="curve"/>
      <point x="42" y="622" type="line"/>
      <point x="46" y="675"/>
      <point x="87" y="718"/>
      <point x="156" y="718" type="curve" smooth="yes"/>
      <point x="220" y="718"/>
      <point x="262" y="681"/>
      <point x="262" y="629" type="curve" smooth="yes"/>
      <point x="262" y="589"/>
      <point x="238" y="562"/>
      <point x="202" y="552" type="curve"/>
      <point x="242" y="544"/>
      <point x="274" y="514"/>
      <point x="274" y="467" type="curve" smooth="yes"/>
      <point x="274" y="404"/>
      <point x="227" y="367"/>
    </contour>
    <contour>
      <point x="87" y="0" type="line"/>
      <point x="609" y="715" type="line"/>
      <point x="640" y="715" type="line"/>
      <point x="118" y="0" type="line"/>
    </contour>
    <contour>
      <point x="558" y="0" type="line"/>
      <point x="558" y="77" type="line"/>
      <point x="376" y="77" type="line"/>
      <point x="376" y="88" type="line"/>
      <point x="547" y="344" type="line"/>
      <point x="588" y="344" type="line"/>
      <point x="588" y="102" type="line"/>
      <point x="635" y="102" type="line"/>
      <point x="635" y="77" type="line"/>
      <point x="588" y="77" type="line"/>
      <point x="588" y="0" type="line"/>
    </contour>
    <contour>
      <point x="413" y="102" type="line"/>
      <point x="558" y="102" type="line"/>
      <point x="558" y="322" type="line"/>
    </contour>
  </outline>
</glyph>
<glyph name="questiondown" format="2">
  <advance width="469"/>
  <unicode hex="00BF"/>
  <outline>
    <contour>
      <point x="276" y="434" type="line"/>
      <point x="276" y="372" type="line" smooth="yes"/>
      <point x="276" y="293"/>
      <point x="235" y="252"/>
      <point x="177" y="194" type="curve" smooth="yes"/>
      <point x="126" y="143"/>
      <point x="84" y="105"/>
      <point x="84" y="33" type="curve" smooth="yes"/>
      <point x="84" y="-41"/>
      <point x="131" y="-94"/>
      <point x="229" y="-94" type="curve" smooth="yes"/>
      <point x="324" y="-94"/>
      <point x="390" y="-33"/>
      <point x="397" y="68" type="curve"/>
      <point x="431" y="68" type="line"/>
      <point x="424" y="-49"/>
      <point x="343" y="-124"/>
      <point x="228" y="-124" type="curve" smooth="yes"/>
      <point x="109" y="-124"/>
      <point x="49" y="-56"/>
      <point x="49" y="33" type="curve" smooth="yes"/>
      <point x="49" y="118"/>
      <point x="96" y="155"/>
      <point x="153" y="213" type="curve" smooth="yes"/>
      <point x="208" y="269"/>
      <point x="244" y="304"/>
      <point x="244" y="374" type="curve" smooth="yes"/>
      <point x="244" y="434" type="line"/>
    </contour>
    <contour>
      <point x="260" y="603" type="curve" smooth="yes"/>
      <point x="276" y="603"/>
      <point x="289" y="590"/>
      <point x="289" y="574" type="curve" smooth="yes"/>
      <point x="289" y="559"/>
      <point x="276" y="546"/>
      <point x="260" y="546" type="curve" smooth="yes"/>
      <point x="244" y="546"/>
      <point x="231" y="559"/>
      <point x="231" y="574" type="curve" smooth="yes"/>
      <point x="231" y="590"/>
      <point x="244" y="603"/>
    </contour>
  </outline>
</glyph>
<glyph name="Acircumflex" format="2">
  <advance width="641"/>
  <unicode hex="00C2"/>
  <outline>
    <contour>
      <point x="32" y="0" type="line"/>
      <point x="296" y="715" type="line"/>
      <point x="344" y="715" type="line"/>
      <point x="610" y="0" type="line"/>
      <point x="574" y="0" type="line"/>
      <point x="489" y="228" type="line"/>
      <point x="150" y="228" type="line"/>
      <point x="66" y="0" type="line"/>
    </contour>
    <contour>
      <point x="319" y="686" type="line"/>
      <point x="161" y="258" type="line"/>
      <point x="478" y="258" type="line"/>
    </contour>
    <contour>
      <point x="186" y="771" type="line"/>
      <point x="298" y="891" type="line"/>
      <point x="332" y="891" type="line"/>
      <point x="442" y="771" type="line"/>
      <point x="412" y="771" type="line"/>
      <point x="315" y="861" type="line"/>
      <point x="216" y="771" type="line"/>
    </contour>
  </outline>
</glyph>
<glyph name="Atilde" format="2">
  <advance width="641"/>
  <unicode hex="00C3"/>
  <outline>
    <contour>
      <point x="32" y="0" type="line"/>
      <point x="296" y="715" type="line"/>
      <point x="344" y="715" type="line"/>
      <point x="610" y="0" type="line"/>
      <point x="574" y="0" type="line"/>
      <point x="489" y="228" type="line"/>
      <point x="150" y="228" type="line"/>
      <point x="66" y="0" type="line"/>
    </contour>
    <contour>
      <point x="319" y="686" type="line"/>
      <point x="161" y="258" type="line"/>
      <point x="478" y="258" type="line"/>
    </contour>
    <contour>
      <point x="381" y="773" type="curve" smooth="yes"/>
      <point x="330" y="773"/>
      <point x="288" y="833"/>
      <point x="249" y="833" type="curve" smooth="yes"/>
      <point x="223" y="833"/>
      <point x="203" y="813"/>
      <point x="198" y="774" type="curve"/>
      <point x="171" y="774" type="line"/>
      <point x="178" y="833"/>
      <point x="209" y="863"/>
      <point x="249" y="863" type="curve" smooth="yes"/>
      <point x="298" y="863"/>
      <point x="341" y="803"/>
      <point x="381" y="803" type="curve" smooth="yes"/>
      <point x="406" y="803"/>
      <point x="426" y="823"/>
      <point x="431" y="862" type="curve"/>
      <point x="458" y="862" type="line"/>
      <point x="451" y="803"/>
      <point x="420" y="773"/>
    </contour>
  </outline>
</glyph>
<glyph name="Adieresis" format="2">
  <advance width="641"/>
  <unicode hex="00C4"/>
  <outline>
    <contour>
      <point x="32" y="0" type="line"/>
      <point x="296" y="715" type="line"/>
      <point x="344" y="715" type="line"/>
      <point x="610" y="0" type="line"/>
      <point x="574" y="0" type="line"/>
      <point x="489" y="228" type="line"/>
      <point x="150" y="228" type="line"/>
      <point x="66" y="0" type="line"/>
    </contour>
    <contour>
      <point x="319" y="686" type="line"/>
      <point x="161" y="258" type="line"/>
      <point x="478" y="258" type="line"/>
    </contour>
    <contour>
      <point x="231" y="788" type="curve" smooth="yes"/>
      <point x="216" y="788"/>
      <point x="205" y="800"/>
      <point x="205" y="814" type="curve" smooth="yes"/>
      <point x="205" y="828"/>
      <point x="216" y="840"/>
      <point x="231" y="840" type="curve" smooth="yes"/>
      <point x="246" y="840"/>
      <point x="257" y="828"/>
      <point x="257" y="814" type="curve" smooth="yes"/>
      <point x="257" y="800"/>
      <point x="246" y="788"/>
    </contour>
    <contour>
      <point x="397" y="788" type="curve" smooth="yes"/>
      <point x="382" y="788"/>
      <point x="371" y="800"/>
      <point x="371" y="814" type="curve" smooth="yes"/>
      <point x="371" y="828"/>
      <point x="382" y="840"/>
      <point x="397" y="840" type="curve" smooth="yes"/>
      <point x="412" y="840"/>
      <point x="423" y="828"/>
      <point x="423" y="814" type="curve" smooth="yes"/>
      <point x="423" y="800"/>
      <point x="412" y="788"/>
    </contour>
  </outline>
</glyph>
<glyph name="Aring" format="2">
  <advance width="641"/>
  <unicode hex="00C5"/>
  <outline>
    <contour>
      <point x="32" y="0" type="line"/>
      <point x="296" y="715" type="line"/>
      <point x="344" y="715" type="line"/>
      <point x="610" y="0" type="line"/>
      <point x="574" y="0" type="line"/>
      <point x="489" y="228" type="line"/>
      <point x="150" y="228" type="line"/>
      <point x="66" y="0" type="line"/>
    </contour>
    <contour>
      <point x="319" y="686" type="line"/>
      <point x="161" y="258" type="line"/>
      <point x="478" y="258" type="line"/>
    </contour>
    <contour>
      <point x="314" y="752" type="curve" smooth="yes"/>
      <point x="264" y="752"/>
      <point x="222" y="793"/>
      <point x="222" y="841" type="curve" smooth="yes"/>
      <point x="222" y="891"/>
      <point x="264" y="932"/>
      <point x="314" y="932" type="curve" smooth="yes"/>
      <point x="366" y="932"/>
      <point x="407" y="891"/>
      <point x="407" y="841" type="curve" smooth="yes"/>
      <point x="407" y="793"/>
      <point x="366" y="752"/>
    </contour>
    <contour>
      <point x="314" y="774" type="curve" smooth="yes"/>
      <point x="352" y="774"/>
      <point x="381" y="804"/>
      <point x="381" y="841" type="curve" smooth="yes"/>
      <point x="381" y="880"/>
      <point x="352" y="909"/>
      <point x="314" y="909" type="curve" smooth="yes"/>
      <point x="278" y="909"/>
      <point x="248" y="880"/>
      <point x="248" y="841" type="curve" smooth="yes"/>
      <point x="248" y="804"/>
      <point x="278" y="774"/>
    </contour>
  </outline>
</glyph>
<glyph name="AE" format="2">
  <advance width="943"/>
  <unicode hex="00C6"/>
  <outline>
    <contour>
      <point x="28" y="0" type="line"/>
      <point x="387" y="715" type="line"/>
      <point x="878" y="715" type="line"/>
      <point x="878" y="685" type="line"/>
      <point x="507" y="685" type="line"/>
      <point x="507" y="384" type="line"/>
      <point x="808" y="384" type="line"/>
      <point x="808" y="353" type="line"/>
      <point x="507" y="353" type="line"/>
      <point x="507" y="31" type="line"/>
      <point x="896" y="31" type="line"/>
      <point x="896" y="0" type="line"/>
      <point x="471" y="0" type="line"/>
      <point x="471" y="228" type="line"/>
      <point x="180" y="228" type="line"/>
      <point x="66" y="0" type="line"/>
    </contour>
    <contour>
      <point x="408" y="685" type="line"/>
      <point x="195" y="258" type="line"/>
      <point x="471" y="258" type="line"/>
      <point x="471" y="685" type="line"/>
    </contour>
  </outline>
</glyph>
<glyph name="Ccedilla" format="2">
  <advance width="723"/>
  <unicode hex="00C7"/>
  <outline>
    <contour>
      <point x="366" y="-211" type="curve" smooth="yes"/>
      <point x="316" y="-211"/>
      <point x="279" y="-182"/>
      <point x="274" y="-136" type="curve"/>
      <point x="306" y="-136" type="line"/>
      <point x="310" y="-164"/>
      <point x="331" y="-183"/>
      <point x="365" y="-183" type="curve" smooth="yes"/>
      <point x="400" y="-183"/>
      <point x="421" y="-163"/>
      <point x="421" y="-134" type="curve" smooth="yes"/>
      <point x="421" y="-99"/>
      <point x="396" y="-89"/>
      <point x="369" y="-89" type="curve" smooth="yes"/>
      <point x="350" y="-89"/>
      <point x="336" y="-96"/>
      <point x="330" y="-99" type="curve"/>
      <point x="310" y="-81" type="line"/>
      <point x="352" y="-6" type="line"/>
      <point x="168" y="8"/>
      <point x="51" y="150"/>
      <point x="51" y="353" type="curve" smooth="yes"/>
      <point x="51" y="361" type="line" smooth="yes"/>
      <point x="51" y="572"/>
      <point x="199" y="722"/>
      <point x="382" y="722" type="curve" smooth="yes"/>
      <point x="528" y="722"/>
      <point x="644" y="646"/>
      <point x="669" y="506" type="curve"/>
      <point x="633" y="506" type="line"/>
      <point x="608" y="624"/>
      <point x="520" y="692"/>
      <point x="382" y="692" type="curve" smooth="yes"/>
      <point x="214" y="692"/>
      <point x="88" y="556"/>
      <point x="88" y="362" type="curve" smooth="yes"/>
      <point x="88" y="354" type="line" smooth="yes"/>
      <point x="88" y="155"/>
      <point x="203" y="24"/>
      <point x="383" y="24" type="curve" smooth="yes"/>
      <point x="519" y="24"/>
      <point x="619" y="99"/>
      <point x="645" y="225" type="curve"/>
      <point x="678" y="225" type="line"/>
      <point x="651" y="78"/>
      <point x="534" y="-6"/>
      <point x="384" y="-7" type="curve"/>
      <point x="350" y="-67" type="line"/>
      <point x="400" y="-52"/>
      <point x="454" y="-73"/>
      <point x="454" y="-135" type="curve" smooth="yes"/>
      <point x="454" y="-184"/>
      <point x="416" y="-211"/>
    </contour>
  </outline>
</glyph>
<glyph name="Egrave" format="2">
  <advance width="566"/>
  <unicode hex="00C8"/>
  <outline>
    <contour>
      <point x="286" y="771" type="line"/>
      <point x="205" y="891" type="line"/>
      <point x="247" y="891" type="line"/>
      <point x="315" y="771" type="line"/>
    </contour>
    <contour>
      <point x="94" y="0" type="line"/>
      <point x="94" y="715" type="line"/>
      <point x="500" y="715" type="line"/>
      <point x="500" y="685" type="line"/>
      <point x="130" y="685" type="line"/>
      <point x="130" y="384" type="line"/>
      <point x="431" y="384" type="line"/>
      <point x="431" y="353" type="line"/>
      <point x="130" y="353" type="line"/>
      <point x="130" y="31" type="line"/>
      <point x="518" y="31" type="line"/>
      <point x="518" y="0" type="line"/>
    </contour>
  </outline>
</glyph>
<glyph name="Ecircumflex" format="2">
  <advance width="566"/>
  <unicode hex="00CA"/>
  <outline>
    <contour>
      <point x="167" y="771" type="line"/>
      <point x="279" y="891" type="line"/>
      <point x="313" y="891" type="line"/>
      <point x="423" y="771" type="line"/>
      <point x="393" y="771" type="line"/>
      <point x="296" y="861" type="line"/>
      <point x="197" y="771" type="line"/>
    </contour>
    <contour>
      <point x="94" y="0" type="line"/>
      <point x="94" y="715" type="line"/>
      <point x="500" y="715" type="line"/>
      <point x="500" y="685" type="line"/>
      <point x="130" y="685" type="line"/>
      <point x="130" y="384" type="line"/>
      <point x="431" y="384" type="line"/>
      <point x="431" y="353" type="line"/>
      <point x="130" y="353" type="line"/>
      <point x="130" y="31" type="line"/>
      <point x="518" y="31" type="line"/>
      <point x="518" y="0" type="line"/>
    </contour>
  </outline>
</glyph>
<glyph name="Edieresis" format="2">
  <advance width="566"/>
  <unicode hex="00CB"/>
  <outline>
    <contour>
      <point x="94" y="0" type="line"/>
      <point x="94" y="715" type="line"/>
      <point x="500" y="715" type="line"/>
      <point x="500" y="685" type="line"/>
      <point x="130" y="685" type="line"/>
      <point x="130" y="384" type="line"/>
      <point x="431" y="384" type="line"/>
      <point x="431" y="353" type="line"/>
      <point x="130" y="353" type="line"/>
      <point x="130" y="31" type="line"/>
      <point x="518" y="31" type="line"/>
      <point x="518" y="0" type="line"/>
    </contour>
    <contour>
      <point x="212" y="788" type="curve" smooth="yes"/>
      <point x="197" y="788"/>
      <point x="186" y="800"/>
      <point x="186" y="814" type="curve" smooth="yes"/>
      <point x="186" y="828"/>
      <point x="197" y="840"/>
      <point x="212" y="840" type="curve" smooth="yes"/>
      <point x="227" y="840"/>
      <point x="238" y="828"/>
      <point x="238" y="814" type="curve" smooth="yes"/>
      <point x="238" y="800"/>
      <point x="227" y="788"/>
    </contour>
    <contour>
      <point x="378" y="788" type="curve" smooth="yes"/>
      <point x="363" y="788"/>
      <point x="352" y="800"/>
      <point x="352" y="814" type="curve" smooth="yes"/>
      <point x="352" y="828"/>
      <point x="363" y="840"/>
      <point x="378" y="840" type="curve" smooth="yes"/>
      <point x="393" y="840"/>
      <point x="404" y="828"/>
      <point x="404" y="814" type="curve" smooth="yes"/>
      <point x="404" y="800"/>
      <point x="393" y="788"/>
    </contour>
  </outline>
</glyph>
<glyph name="Iacute" format="2">
  <advance width="234"/>
  <unicode hex="00CD"/>
  <outline>
    <contour>
      <point x="99" y="0" type="line"/>
      <point x="99" y="715" type="line"/>
      <point x="135" y="715" type="line"/>
      <point x="135" y="0" type="line"/>
    </contour>
    <contour>
      <point x="96" y="771" type="line"/>
      <point x="165" y="891" type="line"/>
      <point x="206" y="891" type="line"/>
      <point x="125" y="771" type="line"/>
    </contour>
  </outline>
</glyph>
<glyph name="Icircumflex" format="2">
  <advance width="234"/>
  <unicode hex="00CE"/>
  <outline>
    <contour>
      <point x="99" y="0" type="line"/>
      <point x="99" y="715" type="line"/>
      <point x="135" y="715" type="line"/>
      <point x="135" y="0" type="line"/>
    </contour>
    <contour>
      <point x="-11" y="771" type="line"/>
      <point x="101" y="891" type="line"/>
      <point x="135" y="891" type="line"/>
      <point x="245" y="771" type="line"/>
      <point x="215" y="771" type="line"/>
      <point x="118" y="861" type="line"/>
      <point x="19" y="771" type="line"/>
    </contour>
  </outline>
</glyph>
<glyph name="Idieresis" format="2">
  <advance width="234"/>
  <unicode hex="00CF"/>
  <outline>
    <contour>
      <point x="99" y="0" type="line"/>
      <point x="99" y="715" type="line"/>
      <point x="135" y="715" type="line"/>
      <point x="135" y="0" type="line"/>
    </contour>
    <contour>
      <point x="34" y="788" type="curve" smooth="yes"/>
      <point x="19" y="788"/>
      <point x="8" y="800"/>
      <point x="8" y="814" type="curve" smooth="yes"/>
      <point x="8" y="828"/>
      <point x="19" y="840"/>
      <point x="34" y="840" type="curve" smooth="yes"/>
      <point x="49" y="840"/>
      <point x="60" y="828"/>
      <point x="60" y="814" type="curve" smooth="yes"/>
      <point x="60" y="800"/>
      <point x="49" y="788"/>
    </contour>
    <contour>
      <point x="200" y="788" type="curve" smooth="yes"/>
      <point x="185" y="788"/>
      <point x="174" y="800"/>
      <point x="174" y="814" type="curve" smooth="yes"/>
      <point x="174" y="828"/>
      <point x="185" y="840"/>
      <point x="200" y="840" type="curve" smooth="yes"/>
      <point x="215" y="840"/>
      <point x="226" y="828"/>
      <point x="226" y="814" type="curve" smooth="yes"/>
      <point x="226" y="800"/>
      <point x="215" y="788"/>
    </contour>
  </outline>
</glyph>
<glyph name="Eth" format="2">
  <advance width="685"/>
  <unicode hex="00D0"/>
  <outline>
    <contour>
      <point x="24" y="345" type="line"/>
      <point x="24" y="375" type="line"/>
      <point x="99" y="375" type="line"/>
      <point x="99" y="715" type="line"/>
      <point x="282" y="715" type="line" smooth="yes"/>
      <point x="513" y="715"/>
      <point x="634" y="563"/>
      <point x="634" y="364" type="curve" smooth="yes"/>
      <point x="634" y="356" type="line" smooth="yes"/>
      <point x="634" y="158"/>
      <point x="521" y="0"/>
      <point x="280" y="0" type="curve" smooth="yes"/>
      <point x="99" y="0" type="line"/>
      <point x="99" y="345" type="line"/>
    </contour>
    <contour>
      <point x="135" y="31" type="line"/>
      <point x="278" y="31" type="line" smooth="yes"/>
      <point x="493" y="31"/>
      <point x="597" y="169"/>
      <point x="597" y="356" type="curve" smooth="yes"/>
      <point x="597" y="364" type="line" smooth="yes"/>
      <point x="597" y="546"/>
      <point x="496" y="685"/>
      <point x="277" y="685" type="curve" smooth="yes"/>
      <point x="135" y="685" type="line"/>
      <point x="135" y="375" type="line"/>
      <point x="344" y="375" type="line"/>
      <point x="344" y="345" type="line"/>
      <point x="135" y="345" type="line"/>
    </contour>
  </outline>
</glyph>
<glyph name="Ntilde" format="2">
  <advance width="707"/>
  <unicode hex="00D1"/>
  <outline>
    <contour>
      <point x="431" y="773" type="curve" smooth="yes"/>
      <point x="380" y="773"/>
      <point x="338" y="833"/>
      <point x="299" y="833" type="curve" smooth="yes"/>
      <point x="273" y="833"/>
      <point x="253" y="813"/>
      <point x="248" y="774" type="curve"/>
      <point x="221" y="774" type="line"/>
      <point x="228" y="833"/>
      <point x="259" y="863"/>
      <point x="299" y="863" type="curve" smooth="yes"/>
      <point x="348" y="863"/>
      <point x="391" y="803"/>
      <point x="431" y="803" type="curve" smooth="yes"/>
      <point x="456" y="803"/>
      <point x="476" y="823"/>
      <point x="481" y="862" type="curve"/>
      <point x="508" y="862" type="line"/>
      <point x="501" y="803"/>
      <point x="470" y="773"/>
    </contour>
    <contour>
      <point x="94" y="0" type="line"/>
      <point x="94" y="715" type="line"/>
      <point x="145" y="715" type="line"/>
      <point x="578" y="48" type="line"/>
      <point x="578" y="715" type="line"/>
      <point x="613" y="715" type="line"/>
      <point x="613" y="0" type="line"/>
      <point x="569" y="0" type="line"/>
      <point x="129" y="678" type="line"/>
      <point x="129" y="0" type="line"/>
    </contour>
  </outline>
</glyph>
<glyph name="Oacute" format="2">
  <advance width="795"/>
  <unicode hex="00D3"/>
  <outline>
    <contour>
      <point x="376" y="771" type="line"/>
      <point x="445" y="891" type="line"/>
      <point x="486" y="891" type="line"/>
      <point x="405" y="771" type="line"/>
    </contour>
    <contour>
      <point x="400" y="24" type="curve" smooth="yes"/>
      <point x="578" y="24"/>
      <point x="707" y="167"/>
      <point x="707" y="356" type="curve" smooth="yes"/>
      <point x="707" y="364" type="line" smooth="yes"/>
      <point x="707" y="547"/>
      <point x="579" y="692"/>
      <point x="398" y="692" type="curve" smooth="yes"/>
      <point x="216" y="692"/>
      <point x="88" y="549"/>
      <point x="88" y="361" type="curve" smooth="yes"/>
      <point x="88" y="353" type="line" smooth="yes"/>
      <point x="88" y="167"/>
      <point x="222" y="24"/>
    </contour>
    <contour>
      <point x="400" y="-7" type="curve" smooth="yes"/>
      <point x="200" y="-7"/>
      <point x="51" y="153"/>
      <point x="51" y="353" type="curve" smooth="yes"/>
      <point x="51" y="361" type="line" smooth="yes"/>
      <point x="51" y="564"/>
      <point x="202" y="722"/>
      <point x="398" y="722" type="curve" smooth="yes"/>
      <point x="595" y="722"/>
      <point x="744" y="565"/>
      <point x="744" y="364" type="curve" smooth="yes"/>
      <point x="744" y="356" type="line" smooth="yes"/>
      <point x="744" y="154"/>
      <point x="595" y="-7"/>
    </contour>
  </outline>
</glyph>
<glyph name="Otilde" format="2">
  <advance width="795"/>
  <unicode hex="00D5"/>
  <outline>
    <contour>
      <point x="464" y="773" type="curve" smooth="yes"/>
      <point x="413" y="773"/>
      <point x="371" y="833"/>
      <point x="332" y="833" type="curve" smooth="yes"/>
      <point x="306" y="833"/>
      <point x="286" y="813"/>
      <point x="281" y="774" type="curve"/>
      <point x="254" y="774" type="line"/>
      <point x="261" y="833"/>
      <point x="292" y="863"/>
      <point x="332" y="863" type="curve" smooth="yes"/>
      <point x="381" y="863"/>
      <point x="424" y="803"/>
      <point x="464" y="803" type="curve" smooth="yes"/>
      <point x="489" y="803"/>
      <point x="509" y="823"/>
      <point x="514" y="862" type="curve"/>
      <point x="541" y="862" type="line"/>
      <point x="534" y="803"/>
      <point x="503" y="773"/>
    </contour>
    <contour>
      <point x="400" y="24" type="curve" smooth="yes"/>
      <point x="578" y="24"/>
      <point x="707" y="167"/>
      <point x="707" y="356" type="curve" smooth="yes"/>
      <point x="707" y="364" type="line" smooth="yes"/>
      <point x="707" y="547"/>
      <point x="579" y="692"/>
      <point x="398" y="692" type="curve" smooth="yes"/>
      <point x="216" y="692"/>
      <point x="88" y="549"/>
      <point x="88" y="361" type="curve" smooth="yes"/>
      <point x="88" y="353" type="line" smooth="yes"/>
      <point x="88" y="167"/>
      <point x="222" y="24"/>
    </contour>
    <contour>
      <point x="400" y="-7" type="curve" smooth="yes"/>
      <point x="200" y="-7"/>
      <point x="51" y="153"/>
      <point x="51" y="353" type="curve" smooth="yes"/>
      <point x="51" y="361" type="line" smooth="yes"/>
      <point x="51" y="564"/>
      <point x="202" y="722"/>
      <point x="398" y="722" type="curve" smooth="yes"/>
      <point x="595" y="722"/>
      <point x="744" y="565"/>
      <point x="744" y="364" type="curve" smooth="yes"/>
      <point x="744" y="356" type="line" smooth="yes"/>
      <point x="744" y="154"/>
      <point x="595" y="-7"/>
    </contour>
  </outline>
</glyph>
<glyph name="multiply" format="2">
  <advance width="492"/>
  <unicode hex="00D7"/>
  <outline>
    <contour>
      <point x="74" y="150" type="line"/>
      <point x="53" y="171" type="line"/>
      <point x="219" y="335" type="line"/>
      <point x="53" y="501" type="line"/>
      <point x="74" y="522" type="line"/>
      <point x="239" y="357" type="line"/>
      <point x="404" y="522" type="line"/>
      <point x="425" y="501" type="line"/>
      <point x="260" y="335" type="line"/>
      <point x="425" y="171" type="line"/>
      <point x="404" y="150" type="line"/>
      <point x="239" y="315" type="line"/>
    </contour>
  </outline>
</glyph>
<glyph name="Oslash" format="2">
  <advance width="795"/>
  <unicode hex="00D8"/>
  <outline>
    <contour>
      <point x="67" y="-20" type="line"/>
      <point x="45" y="2" type="line"/>
      <point x="141" y="108" type="line"/>
      <point x="84" y="172"/>
      <point x="51" y="258"/>
      <point x="51" y="353" type="curve" smooth="yes"/>
      <point x="51" y="361" type="line" smooth="yes"/>
      <point x="51" y="564"/>
      <point x="202" y="722"/>
      <point x="398" y="722" type="curve" smooth="yes"/>
      <point x="484" y="722"/>
      <point x="562" y="691"/>
      <point x="621" y="640" type="curve"/>
      <point x="709" y="738" type="line"/>
      <point x="731" y="716" type="line"/>
      <point x="644" y="619" type="line"/>
      <point x="706" y="555"/>
      <point x="744" y="465"/>
      <point x="744" y="364" type="curve" smooth="yes"/>
      <point x="744" y="356" type="line" smooth="yes"/>
      <point x="744" y="154"/>
      <point x="595" y="-7"/>
      <point x="400" y="-7" type="curve" smooth="yes"/>
      <point x="306" y="-7"/>
      <point x="223" y="28"/>
      <point x="162" y="86" type="curve"/>
    </contour>
    <contour>
      <point x="400" y="24" type="curve" smooth="yes"/>
      <point x="578" y="24"/>
      <point x="707" y="167"/>
      <point x="707" y="356" type="curve" smooth="yes"/>
      <point x="707" y="364" type="line" smooth="yes"/>
      <point x="707" y="456"/>
      <point x="676" y="537"/>
      <point x="622" y="596" type="curve"/>
      <point x="184" y="110" type="line"/>
      <point x="239" y="56"/>
      <point x="314" y="24"/>
    </contour>
    <contour>
      <point x="88" y="353" type="line" smooth="yes"/>
      <point x="88" y="266"/>
      <point x="116" y="190"/>
      <point x="163" y="133" type="curve"/>
      <point x="600" y="617" type="line"/>
      <point x="547" y="664"/>
      <point x="478" y="692"/>
      <point x="398" y="692" type="curve" smooth="yes"/>
      <point x="216" y="692"/>
      <point x="88" y="549"/>
      <point x="88" y="361" type="curve" smooth="yes"/>
    </contour>
  </outline>
</glyph>
<glyph name="Uacute" format="2">
  <advance width="674"/>
  <unicode hex="00DA"/>
  <outline>
    <contour>
      <point x="315" y="771" type="line"/>
      <point x="384" y="891" type="line"/>
      <point x="425" y="891" type="line"/>
      <point x="344" y="771" type="line"/>
    </contour>
    <contour>
      <point x="336" y="-5" type="curve" smooth="yes"/>
      <point x="178" y="-5"/>
      <point x="80" y="84"/>
      <point x="80" y="253" type="curve" smooth="yes"/>
      <point x="80" y="715" type="line"/>
      <point x="116" y="715" type="line"/>
      <point x="116" y="256" type="line" smooth="yes"/>
      <point x="116" y="102"/>
      <point x="195" y="26"/>
      <point x="336" y="26" type="curve" smooth="yes"/>
      <point x="488" y="26"/>
      <point x="557" y="104"/>
      <point x="557" y="269" type="curve" smooth="yes"/>
      <point x="557" y="715" type="line"/>
      <point x="593" y="715" type="line"/>
      <point x="593" y="264" type="line" smooth="yes"/>
      <point x="593" y="95"/>
      <point x="511" y="-5"/>
    </contour>
  </outline>
</glyph>
<glyph name="Udieresis" format="2">
  <advance width="674"/>
  <unicode hex="00DC"/>
  <outline>
    <contour>
      <point x="336" y="-5" type="curve" smooth="yes"/>
      <point x="178" y="-5"/>
      <point x="80" y="84"/>
      <point x="80" y="253" type="curve" smooth="yes"/>
      <point x="80" y="715" type="line"/>
      <point x="116" y="715" type="line"/>
      <point x="116" y="256" type="line" smooth="yes"/>
      <point x="116" y="102"/>
      <point x="195" y="26"/>
      <point x="336" y="26" type="curve" smooth="yes"/>
      <point x="488" y="26"/>
      <point x="557" y="104"/>
      <point x="557" y="269" type="curve" smooth="yes"/>
      <point x="557" y="715" type="line"/>
      <point x="593" y="715" type="line"/>
      <point x="593" y="264" type="line" smooth="yes"/>
      <point x="593" y="95"/>
      <point x="511" y="-5"/>
    </contour>
    <contour>
      <point x="253" y="788" type="curve" smooth="yes"/>
      <point x="238" y="788"/>
      <point x="227" y="800"/>
      <point x="227" y="814" type="curve" smooth="yes"/>
      <point x="227" y="828"/>
      <point x="238" y="840"/>
      <point x="253" y="840" type="curve" smooth="yes"/>
      <point x="268" y="840"/>
      <point x="279" y="828"/>
      <point x="279" y="814" type="curve" smooth="yes"/>
      <point x="279" y="800"/>
      <point x="268" y="788"/>
    </contour>
    <contour>
      <point x="419" y="788" type="curve" smooth="yes"/>
      <point x="404" y="788"/>
      <point x="393" y="800"/>
      <point x="393" y="814" type="curve" smooth="yes"/>
      <point x="393" y="828"/>
      <point x="404" y="840"/>
      <point x="419" y="840" type="curve" smooth="yes"/>
      <point x="434" y="840"/>
      <point x="445" y="828"/>
      <point x="445" y="814" type="curve" smooth="yes"/>
      <point x="445" y="800"/>
      <point x="434" y="788"/>
    </contour>
  </outline>
</glyph>
<glyph name="Yacute" format="2">
  <advance width="565"/>
  <unicode hex="00DD"/>
  <outline>
    <contour>
      <point x="272" y="0" type="line"/>
      <point x="272" y="322" type="line"/>
      <point x="22" y="715" type="line"/>
      <point x="63" y="715" type="line"/>
      <point x="291" y="353" type="line"/>
      <point x="506" y="715" type="line"/>
      <point x="543" y="715" type="line"/>
      <point x="308" y="322" type="line"/>
      <point x="308" y="0" type="line"/>
    </contour>
    <contour>
      <point x="266" y="771" type="line"/>
      <point x="335" y="891" type="line"/>
      <point x="376" y="891" type="line"/>
      <point x="295" y="771" type="line"/>
    </contour>
  </outline>
</glyph>
<glyph name="Thorn" format="2">
  <advance width="559"/>
  <unicode hex="00DE"/>
  <outline>
    <contour>
      <point x="94" y="0" type="line"/>
      <point x="94" y="715" type="line"/>
      <point x="129" y="715" type="line"/>
      <point x="129" y="565" type="line"/>
      <point x="274" y="565" type="line" smooth="yes"/>
      <point x="414" y="565"/>
      <point x="513" y="515"/>
      <point x="513" y="374" type="curve" smooth="yes"/>
      <point x="513" y="370" type="line" smooth="yes"/>
      <point x="513" y="228"/>
      <point x="414" y="177"/>
      <point x="274" y="177" type="curve" smooth="yes"/>
      <point x="129" y="177" type="line"/>
      <point x="129" y="0" type="line"/>
    </contour>
    <contour>
      <point x="129" y="207" type="line"/>
      <point x="275" y="207" type="line" smooth="yes"/>
      <point x="399" y="207"/>
      <point x="477" y="249"/>
      <point x="477" y="370" type="curve" smooth="yes"/>
      <point x="477" y="374" type="line" smooth="yes"/>
      <point x="477" y="497"/>
      <point x="395" y="534"/>
      <point x="275" y="534" type="curve" smooth="yes"/>
      <point x="129" y="534" type="line"/>
    </contour>
  </outline>
</glyph>
<glyph name="germandbls" format="2">
  <advance width="557"/>
  <unicode hex="00DF"/>
  <outline>
    <contour>
      <point x="311" y="-5" type="curve" smooth="yes"/>
      <point x="270" y="-5"/>
      <point x="240" y="1"/>
      <point x="215" y="11" type="curve"/>
      <point x="215" y="41" type="line"/>
      <point x="243" y="30"/>
      <point x="271" y="24"/>
      <point x="310" y="24" type="curve" smooth="yes"/>
      <point x="397" y="24"/>
      <point x="482" y="69"/>
      <point x="482" y="206" type="curve" smooth="yes"/>
      <point x="482" y="213" type="line" smooth="yes"/>
      <point x="482" y="338"/>
      <point x="381" y="432"/>
      <point x="253" y="430" type="curve"/>
      <point x="253" y="460" type="line"/>
      <point x="365" y="460"/>
      <point x="419" y="534"/>
      <point x="419" y="609" type="curve" smooth="yes"/>
      <point x="419" y="613" type="line" smooth="yes"/>
      <point x="419" y="693"/>
      <point x="369" y="747"/>
      <point x="273" y="747" type="curve" smooth="yes"/>
      <point x="174" y="747"/>
      <point x="115" y="680"/>
      <point x="115" y="576" type="curve" smooth="yes"/>
      <point x="115" y="0" type="line"/>
      <point x="81" y="0" type="line"/>
      <point x="81" y="575" type="line" smooth="yes"/>
      <point x="81" y="699"/>
      <point x="162" y="776"/>
      <point x="274" y="776" type="curve" smooth="yes"/>
      <point x="387" y="776"/>
      <point x="453" y="706"/>
      <point x="453" y="613" type="curve" smooth="yes"/>
      <point x="453" y="609" type="line" smooth="yes"/>
      <point x="453" y="532"/>
      <point x="401" y="467"/>
      <point x="319" y="447" type="curve"/>
      <point x="421" y="429"/>
      <point x="517" y="340"/>
      <point x="517" y="214" type="curve" smooth="yes"/>
      <point x="517" y="207" type="line" smooth="yes"/>
      <point x="517" y="48"/>
      <point x="413" y="-5"/>
    </contour>
  </outline>
</glyph>
<glyph name="acircumflex" format="2">
  <advance width="521"/>
  <unicode hex="00E2"/>
  <outline>
    <contour>
      <point x="225" y="-8" type="curve" smooth="yes"/>
      <point x="117" y="-8"/>
      <point x="46" y="44"/>
      <point x="46" y="139" type="curve" smooth="yes"/>
      <point x="46" y="260"/>
      <point x="155" y="296"/>
      <point x="281" y="296" type="curve" smooth="yes"/>
      <point x="411" y="296" type="line"/>
      <point x="411" y="347" type="line" smooth="yes"/>
      <point x="411" y="454"/>
      <point x="366" y="501"/>
      <point x="265" y="501" type="curve" smooth="yes"/>
      <point x="182" y="501"/>
      <point x="117" y="465"/>
      <point x="103" y="380" type="curve"/>
      <point x="69" y="380" type="line"/>
      <point x="82" y="483"/>
      <point x="170" y="531"/>
      <point x="266" y="531" type="curve" smooth="yes"/>
      <point x="382" y="531"/>
      <point x="445" y="471"/>
      <point x="445" y="347" type="curve" smooth="yes"/>
      <point x="445" y="0" type="line"/>
      <point x="411" y="0" type="line"/>
      <point x="411" y="89" type="line"/>
      <point x="381" y="37"/>
      <point x="319" y="-8"/>
    </contour>
    <contour>
      <point x="227" y="21" type="curve" smooth="yes"/>
      <point x="327" y="21"/>
      <point x="411" y="83"/>
      <point x="411" y="160" type="curve" smooth="yes"/>
      <point x="411" y="268" type="line"/>
      <point x="281" y="268" type="line" smooth="yes"/>
      <point x="170" y="268"/>
      <point x="80" y="244"/>
      <point x="80" y="139" type="curve" smooth="yes"/>
      <point x="80" y="63"/>
      <point x="132" y="21"/>
    </contour>
    <contour>
      <point x="136" y="600" type="line"/>
      <point x="247" y="729" type="line"/>
      <point x="281" y="729" type="line"/>
      <point x="390" y="600" type="line"/>
      <point x="360" y="600" type="line"/>
      <point x="264" y="700" type="line"/>
      <point x="166" y="600" type="line"/>
    </contour>
  </outline>
</glyph>
<glyph name="atilde" format="2">
  <advance width="521"/>
  <unicode hex="00E3"/>
  <outline>
    <contour>
      <point x="225" y="-8" type="curve" smooth="yes"/>
      <point x="117" y="-8"/>
      <point x="46" y="44"/>
      <point x="46" y="139" type="curve" smooth="yes"/>
      <point x="46" y="260"/>
      <point x="155" y="296"/>
      <point x="281" y="296" type="curve" smooth="yes"/>
      <point x="411" y="296" type="line"/>
      <point x="411" y="347" type="line" smooth="yes"/>
      <point x="411" y="454"/>
      <point x="366" y="501"/>
      <point x="265" y="501" type="curve" smooth="yes"/>
      <point x="182" y="501"/>
      <point x="117" y="465"/>
      <point x="103" y="380" type="curve"/>
      <point x="69" y="380" type="line"/>
      <point x="82" y="483"/>
      <point x="170" y="531"/>
      <point x="266" y="531" type="curve" smooth="yes"/>
      <point x="382" y="531"/>
      <point x="445" y="471"/>
      <point x="445" y="347" type="curve" smooth="yes"/>
      <point x="445" y="0" type="line"/>
      <point x="411" y="0" type="line"/>
      <point x="411" y="89" type="line"/>
      <point x="381" y="37"/>
      <point x="319" y="-8"/>
    </contour>
    <contour>
      <point x="227" y="21" type="curve" smooth="yes"/>
      <point x="327" y="21"/>
      <point x="411" y="83"/>
      <point x="411" y="160" type="curve" smooth="yes"/>
      <point x="411" y="268" type="line"/>
      <point x="281" y="268" type="line" smooth="yes"/>
      <point x="170" y="268"/>
      <point x="80" y="244"/>
      <point x="80" y="139" type="curve" smooth="yes"/>
      <point x="80" y="63"/>
      <point x="132" y="21"/>
    </contour>
    <contour>
      <point x="333" y="615" type="curve" smooth="yes"/>
      <point x="282" y="615"/>
      <point x="239" y="673"/>
      <point x="200" y="673" type="curve" smooth="yes"/>
      <point x="177" y="673"/>
      <point x="155" y="654"/>
      <point x="150" y="615" type="curve"/>
      <point x="123" y="615" type="line"/>
      <point x="130" y="674"/>
      <point x="161" y="703"/>
      <point x="201" y="703" type="curve" smooth="yes"/>
      <point x="250" y="703"/>
      <point x="294" y="644"/>
      <point x="334" y="644" type="curve" smooth="yes"/>
      <point x="356" y="644"/>
      <point x="378" y="664"/>
      <point x="383" y="703" type="curve"/>
      <point x="410" y="703" type="line"/>
      <point x="403" y="644"/>
      <point x="372" y="615"/>
    </contour>
  </outline>
</glyph>
<glyph name="adieresis" format="2">
  <advance width="521"/>
  <unicode hex="00E4"/>
  <outline>
    <contour>
      <point x="225" y="-8" type="curve" smooth="yes"/>
      <point x="117" y="-8"/>
      <point x="46" y="44"/>
      <point x="46" y="139" type="curve" smooth="yes"/>
      <point x="46" y="260"/>
      <point x="155" y="296"/>
      <point x="281" y="296" type="curve" smooth="yes"/>
      <point x="411" y="296" type="line"/>
      <point x="411" y="347" type="line" smooth="yes"/>
      <point x="411" y="454"/>
      <point x="366" y="501"/>
      <point x="265" y="501" type="curve" smooth="yes"/>
      <point x="182" y="501"/>
      <point x="117" y="465"/>
      <point x="103" y="380" type="curve"/>
      <point x="69" y="380" type="line"/>
      <point x="82" y="483"/>
      <point x="170" y="531"/>
      <point x="266" y="531" type="curve" smooth="yes"/>
      <point x="382" y="531"/>
      <point x="445" y="471"/>
      <point x="445" y="347" type="curve" smooth="yes"/>
      <point x="445" y="0" type="line"/>
      <point x="411" y="0" type="line"/>
      <point x="411" y="89" type="line"/>
      <point x="381" y="37"/>
      <point x="319" y="-8"/>
    </contour>
    <contour>
      <point x="227" y="21" type="curve" smooth="yes"/>
      <point x="327" y="21"/>
      <point x="411" y="83"/>
      <point x="411" y="160" type="curve" smooth="yes"/>
      <point x="411" y="268" type="line"/>
      <point x="281" y="268" type="line" smooth="yes"/>
      <point x="170" y="268"/>
      <point x="80" y="244"/>
      <point x="80" y="139" type="curve" smooth="yes"/>
      <point x="80" y="63"/>
      <point x="132" y="21"/>
    </contour>
    <contour>
      <point x="189" y="638" type="curve" smooth="yes"/>
      <point x="175" y="638"/>
      <point x="163" y="650"/>
      <point x="163" y="664" type="curve" smooth="yes"/>
      <point x="163" y="678"/>
      <point x="175" y="690"/>
      <point x="189" y="690" type="curve" smooth="yes"/>
      <point x="204" y="690"/>
      <point x="215" y="678"/>
      <point x="215" y="664" type="curve" smooth="yes"/>
      <point x="215" y="650"/>
      <point x="204" y="638"/>
    </contour>
    <contour>
      <point x="343" y="638" type="curve" smooth="yes"/>
      <point x="328" y="638"/>
      <point x="317" y="650"/>
      <point x="317" y="664" type="curve" smooth="yes"/>
      <point x="317" y="678"/>
      <point x="328" y="690"/>
      <point x="343" y="690" type="curve" smooth="yes"/>
      <point x="358" y="690"/>
      <point x="369" y="678"/>
      <point x="369" y="664" type="curve" smooth="yes"/>
      <point x="369" y="650"/>
      <point x="358" y="638"/>
    </contour>
  </outline>
</glyph>
<glyph name="aring" format="2">
  <advance width="521"/>
  <unicode hex="00E5"/>
  <outline>
    <contour>
      <point x="225" y="-8" type="curve" smooth="yes"/>
      <point x="117" y="-8"/>
      <point x="46" y="44"/>
      <point x="46" y="139" type="curve" smooth="yes"/>
      <point x="46" y="260"/>
      <point x="155" y="296"/>
      <point x="281" y="296" type="curve" smooth="yes"/>
      <point x="411" y="296" type="line"/>
      <point x="411" y="347" type="line" smooth="yes"/>
      <point x="411" y="454"/>
      <point x="366" y="501"/>
      <point x="265" y="501" type="curve" smooth="yes"/>
      <point x="182" y="501"/>
      <point x="117" y="465"/>
      <point x="103" y="380" type="curve"/>
      <point x="69" y="380" type="line"/>
      <point x="82" y="483"/>
      <point x="170" y="531"/>
      <point x="266" y="531" type="curve" smooth="yes"/>
      <point x="382" y="531"/>
      <point x="445" y="471"/>
      <point x="445" y="347" type="curve" smooth="yes"/>
      <point x="445" y="0" type="line"/>
      <point x="411" y="0" type="line"/>
      <point x="411" y="89" type="line"/>
      <point x="381" y="37"/>
      <point x="319" y="-8"/>
    </contour>
    <contour>
      <point x="227" y="21" type="curve" smooth="yes"/>
      <point x="327" y="21"/>
      <point x="411" y="83"/>
      <point x="411" y="160" type="curve" smooth="yes"/>
      <point x="411" y="268" type="line"/>
      <point x="281" y="268" type="line" smooth="yes"/>
      <point x="170" y="268"/>
      <point x="80" y="244"/>
      <point x="80" y="139" type="curve" smooth="yes"/>
      <point x="80" y="63"/>
      <point x="132" y="21"/>
    </contour>
    <contour>
      <point x="266" y="625" type="curve" smooth="yes"/>
      <point x="304" y="625"/>
      <point x="333" y="655"/>
      <point x="333" y="692" type="curve" smooth="yes"/>
      <point x="333" y="731"/>
      <point x="304" y="760"/>
      <point x="266" y="760" type="curve" smooth="yes"/>
      <point x="230" y="760"/>
      <point x="200" y="731"/>
      <point x="200" y="692" type="curve" smooth="yes"/>
      <point x="200" y="655"/>
      <point x="230" y="625"/>
    </contour>
    <contour>
      <point x="266" y="603" type="curve" smooth="yes"/>
      <point x="216" y="603"/>
      <point x="174" y="644"/>
      <point x="174" y="692" type="curve" smooth="yes"/>
      <point x="174" y="742"/>
      <point x="216" y="783"/>
      <point x="266" y="783" type="curve" smooth="yes"/>
      <point x="318" y="783"/>
      <point x="359" y="742"/>
      <point x="359" y="692" type="curve" smooth="yes"/>
      <point x="359" y="644"/>
      <point x="318" y="603"/>
    </contour>
  </outline>
</glyph>
<glyph name="ccedilla" format="2">
  <advance width="547"/>
  <unicode hex="00E7"/>
  <outline>
    <contour>
      <point x="267" y="-211" type="curve" smooth="yes"/>
      <point x="217" y="-211"/>
      <point x="180" y="-182"/>
      <point x="175" y="-136" type="curve"/>
      <point x="207" y="-136" type="line"/>
      <point x="211" y="-164"/>
      <point x="232" y="-183"/>
      <point x="266" y="-183" type="curve" smooth="yes"/>
      <point x="301" y="-183"/>
      <point x="322" y="-163"/>
      <point x="322" y="-134" type="curve" smooth="yes"/>
      <point x="322" y="-99"/>
      <point x="297" y="-89"/>
      <point x="270" y="-89" type="curve" smooth="yes"/>
      <point x="251" y="-89"/>
      <point x="237" y="-96"/>
      <point x="231" y="-99" type="curve"/>
      <point x="211" y="-81" type="line"/>
      <point x="254" y="-5" type="line"/>
      <point x="133" y="10"/>
      <point x="42" y="112"/>
      <point x="42" y="257" type="curve" smooth="yes"/>
      <point x="42" y="265" type="line" smooth="yes"/>
      <point x="42" y="424"/>
      <point x="153" y="531"/>
      <point x="289" y="531" type="curve" smooth="yes"/>
      <point x="394" y="531"/>
      <point x="488" y="470"/>
      <point x="502" y="362" type="curve"/>
      <point x="468" y="362" type="line"/>
      <point x="456" y="453"/>
      <point x="377" y="501"/>
      <point x="289" y="501" type="curve" smooth="yes"/>
      <point x="172" y="501"/>
      <point x="77" y="411"/>
      <point x="77" y="265" type="curve" smooth="yes"/>
      <point x="77" y="257" type="line" smooth="yes"/>
      <point x="77" y="112"/>
      <point x="171" y="22"/>
      <point x="288" y="22" type="curve" smooth="yes"/>
      <point x="383" y="22"/>
      <point x="460" y="77"/>
      <point x="476" y="177" type="curve"/>
      <point x="508" y="177" type="line"/>
      <point x="492" y="65"/>
      <point x="402" y="-8"/>
      <point x="288" y="-8" type="curve" smooth="yes"/>
      <point x="284" y="-8" type="line"/>
      <point x="251" y="-67" type="line"/>
      <point x="301" y="-52"/>
      <point x="355" y="-73"/>
      <point x="355" y="-135" type="curve" smooth="yes"/>
      <point x="355" y="-184"/>
      <point x="317" y="-211"/>
    </contour>
  </outline>
</glyph>
<glyph name="edieresis" format="2">
  <advance width="545"/>
  <unicode hex="00EB"/>
  <outline>
    <contour>
      <point x="201" y="638" type="curve" smooth="yes"/>
      <point x="187" y="638"/>
      <point x="175" y="650"/>
      <point x="175" y="664" type="curve" smooth="yes"/>
      <point x="175" y="678"/>
      <point x="187" y="690"/>
      <point x="201" y="690" type="curve" smooth="yes"/>
      <point x="216" y="690"/>
      <point x="227" y="678"/>
      <point x="227" y="664" type="curve" smooth="yes"/>
      <point x="227" y="650"/>
      <point x="216" y="638"/>
    </contour>
    <contour>
      <point x="355" y="638" type="curve" smooth="yes"/>
      <point x="340" y="638"/>
      <point x="329" y="650"/>
      <point x="329" y="664" type="curve" smooth="yes"/>
      <point x="329" y="678"/>
      <point x="340" y="690"/>
      <point x="355" y="690" type="curve" smooth="yes"/>
      <point x="370" y="690"/>
      <point x="381" y="678"/>
      <point x="381" y="664" type="curve" smooth="yes"/>
      <point x="381" y="650"/>
      <point x="370" y="638"/>
    </contour>
    <contour>
      <point x="286" y="-8" type="curve" smooth="yes"/>
      <point x="134" y="-8"/>
      <point x="42" y="102"/>
      <point x="42" y="257" type="curve" smooth="yes"/>
      <point x="42" y="265" type="line" smooth="yes"/>
      <point x="42" y="421"/>
      <point x="142" y="531"/>
      <point x="279" y="531" type="curve" smooth="yes"/>
      <point x="408" y="531"/>
      <point x="503" y="443"/>
      <point x="503" y="279" type="curve" smooth="yes"/>
      <point x="503" y="264" type="line"/>
      <point x="77" y="264" type="line"/>
      <point x="78" y="112"/>
      <point x="152" y="22"/>
      <point x="286" y="22" type="curve" smooth="yes"/>
      <point x="376" y="22"/>
      <point x="444" y="62"/>
      <point x="465" y="144" type="curve"/>
      <point x="499" y="144" type="line"/>
      <point x="475" y="47"/>
      <point x="394" y="-8"/>
    </contour>
    <contour>
      <point x="78" y="293" type="curve"/>
      <point x="469" y="293" type="line"/>
      <point x="465" y="431"/>
      <point x="390" y="501"/>
      <point x="279" y="501" type="curve" smooth="yes"/>
      <point x="168" y="501"/>
      <point x="86" y="419"/>
    </contour>
  </outline>
</glyph>
<glyph name="igrave" format="2">
  <advance width="200"/>
  <unicode hex="00EC"/>
  <outline>
    <contour>
      <point x="83" y="0" type="line"/>
      <point x="83" y="523" type="line"/>
      <point x="117" y="523" type="line"/>
      <point x="117" y="0" type="line"/>
    </contour>
    <contour>
      <point x="86" y="600" type="line"/>
      <point x="2" y="747" type="line"/>
      <point x="43" y="747" type="line"/>
      <point x="115" y="600" type="line"/>
    </contour>
  </outline>
</glyph>
<glyph name="icircumflex" format="2">
  <advance width="200"/>
  <unicode hex="00EE"/>
  <outline>
    <contour>
      <point x="-27" y="600" type="line"/>
      <point x="84" y="729" type="line"/>
      <point x="118" y="729" type="line"/>
      <point x="227" y="600" type="line"/>
      <point x="197" y="600" type="line"/>
      <point x="101" y="700" type="line"/>
      <point x="3" y="600" type="line"/>
    </contour>
    <contour>
      <point x="83" y="0" type="line"/>
      <point x="83" y="523" type="line"/>
      <point x="117" y="523" type="line"/>
      <point x="117" y="0" type="line"/>
    </contour>
  </outline>
</glyph>
<glyph name="idieresis" format="2">
  <advance width="200"/>
  <unicode hex="00EF"/>
  <outline>
    <contour>
      <point x="36" y="638" type="curve" smooth="yes"/>
      <point x="21" y="638"/>
      <point x="10" y="650"/>
      <point x="10" y="664" type="curve" smooth="yes"/>
      <point x="10" y="678"/>
      <point x="21" y="690"/>
      <point x="36" y="690" type="curve" smooth="yes"/>
      <point x="50" y="690"/>
      <point x="62" y="678"/>
      <point x="62" y="664" type="curve" smooth="yes"/>
      <point x="62" y="650"/>
      <point x="50" y="638"/>
    </contour>
    <contour>
      <point x="165" y="638" type="curve" smooth="yes"/>
      <point x="150" y="638"/>
      <point x="139" y="650"/>
      <point x="139" y="664" type="curve" smooth="yes"/>
      <point x="139" y="678"/>
      <point x="150" y="690"/>
      <point x="165" y="690" type="curve" smooth="yes"/>
      <point x="179" y="690"/>
      <point x="191" y="678"/>
      <point x="191" y="664" type="curve" smooth="yes"/>
      <point x="191" y="650"/>
      <point x="179" y="638"/>
    </contour>
    <contour>
      <point x="83" y="0" type="line"/>
      <point x="83" y="523" type="line"/>
      <point x="117" y="523" type="line"/>
      <point x="117" y="0" type="line"/>
    </contour>
  </outline>
</glyph>
<glyph name="eth" format="2">
  <advance width="588"/>
  <unicode hex="00F0"/>
  <outline>
    <contour>
      <point x="144" y="589" type="line"/>
      <point x="130" y="612" type="line"/>
      <point x="264" y="690" type="line"/>
      <point x="226" y="719"/>
      <point x="184" y="747"/>
      <point x="141" y="773" type="curve"/>
      <point x="190" y="773" type="line"/>
      <point x="221" y="756"/>
      <point x="256" y="734"/>
      <point x="293" y="706" type="curve"/>
      <point x="401" y="769" type="line"/>
      <point x="416" y="745" type="line"/>
      <point x="316" y="688" type="line"/>
      <point x="428" y="596"/>
      <point x="541" y="456"/>
      <point x="541" y="275" type="curve" smooth="yes"/>
      <point x="541" y="258" type="line" smooth="yes"/>
      <point x="541" y="101"/>
      <point x="428" y="-8"/>
      <point x="291" y="-8" type="curve" smooth="yes"/>
      <point x="154" y="-8"/>
      <point x="42" y="103"/>
      <point x="42" y="257" type="curve" smooth="yes"/>
      <point x="42" y="265" type="line" smooth="yes"/>
      <point x="42" y="422"/>
      <point x="157" y="531"/>
      <point x="281" y="531" type="curve" smooth="yes"/>
      <point x="381" y="531"/>
      <point x="441" y="486"/>
      <point x="481" y="427" type="curve"/>
      <point x="440" y="521"/>
      <point x="372" y="602"/>
      <point x="288" y="671" type="curve"/>
    </contour>
    <contour>
      <point x="291" y="22" type="curve" smooth="yes"/>
      <point x="409" y="22"/>
      <point x="506" y="112"/>
      <point x="506" y="259" type="curve" smooth="yes"/>
      <point x="506" y="276" type="line" smooth="yes"/>
      <point x="506" y="412"/>
      <point x="410" y="501"/>
      <point x="287" y="501" type="curve" smooth="yes"/>
      <point x="176" y="501"/>
      <point x="77" y="411"/>
      <point x="77" y="265" type="curve" smooth="yes"/>
      <point x="77" y="257" type="line" smooth="yes"/>
      <point x="77" y="114"/>
      <point x="174" y="22"/>
    </contour>
  </outline>
</glyph>
<glyph name="ntilde" format="2">
  <advance width="573"/>
  <unicode hex="00F1"/>
  <outline>
    <contour>
      <point x="81" y="0" type="line"/>
      <point x="81" y="523" type="line"/>
      <point x="115" y="523" type="line"/>
      <point x="115" y="409" type="line"/>
      <point x="139" y="472"/>
      <point x="213" y="531"/>
      <point x="310" y="531" type="curve" smooth="yes"/>
      <point x="423" y="531"/>
      <point x="497" y="469"/>
      <point x="497" y="323" type="curve" smooth="yes"/>
      <point x="497" y="0" type="line"/>
      <point x="463" y="0" type="line"/>
      <point x="463" y="324" type="line" smooth="yes"/>
      <point x="463" y="447"/>
      <point x="404" y="501"/>
      <point x="305" y="501" type="curve" smooth="yes"/>
      <point x="212" y="501"/>
      <point x="115" y="437"/>
      <point x="115" y="317" type="curve" smooth="yes"/>
      <point x="115" y="0" type="line"/>
    </contour>
    <contour>
      <point x="352" y="615" type="curve" smooth="yes"/>
      <point x="301" y="615"/>
      <point x="258" y="673"/>
      <point x="219" y="673" type="curve" smooth="yes"/>
      <point x="196" y="673"/>
      <point x="174" y="654"/>
      <point x="169" y="615" type="curve"/>
      <point x="142" y="615" type="line"/>
      <point x="149" y="674"/>
      <point x="180" y="703"/>
      <point x="220" y="703" type="curve" smooth="yes"/>
      <point x="269" y="703"/>
      <point x="313" y="644"/>
      <point x="353" y="644" type="curve" smooth="yes"/>
      <point x="375" y="644"/>
      <point x="397" y="664"/>
      <point x="402" y="703" type="curve"/>
      <point x="429" y="703" type="line"/>
      <point x="422" y="644"/>
      <point x="391" y="615"/>
    </contour>
  </outline>
</glyph>
<glyph name="ograve" format="2">
  <advance width="583"/>
  <unicode hex="00F2"/>
  <outline>
    <contour>
      <point x="292" y="22" type="curve" smooth="yes"/>
      <point x="409" y="22"/>
      <point x="506" y="112"/>
      <point x="506" y="258" type="curve" smooth="yes"/>
      <point x="506" y="266" type="line" smooth="yes"/>
      <point x="506" y="414"/>
      <point x="408" y="501"/>
      <point x="293" y="501" type="curve" smooth="yes"/>
      <point x="176" y="501"/>
      <point x="77" y="411"/>
      <point x="77" y="265" type="curve" smooth="yes"/>
      <point x="77" y="257" type="line" smooth="yes"/>
      <point x="77" y="114"/>
      <point x="174" y="22"/>
    </contour>
    <contour>
      <point x="291" y="-8" type="curve" smooth="yes"/>
      <point x="154" y="-8"/>
      <point x="42" y="103"/>
      <point x="42" y="257" type="curve" smooth="yes"/>
      <point x="42" y="265" type="line" smooth="yes"/>
      <point x="42" y="422"/>
      <point x="157" y="530"/>
      <point x="293" y="530" type="curve" smooth="yes"/>
      <point x="429" y="530"/>
      <point x="541" y="426"/>
      <point x="541" y="266" type="curve" smooth="yes"/>
      <point x="541" y="258" type="line" smooth="yes"/>
      <point x="541" y="100"/>
      <point x="428" y="-8"/>
    </contour>
    <contour>
      <point x="282" y="600" type="line"/>
      <point x="198" y="747" type="line"/>
      <point x="239" y="747" type="line"/>
      <point x="311" y="600" type="line"/>
    </contour>
  </outline>
</glyph>
<glyph name="otilde" format="2">
  <advance width="583"/>
  <unicode hex="00F5"/>
  <outline>
    <contour>
      <point x="292" y="22" type="curve" smooth="yes"/>
      <point x="409" y="22"/>
      <point x="506" y="112"/>
      <point x="506" y="258" type="curve" smooth="yes"/>
      <point x="506" y="266" type="line" smooth="yes"/>
      <point x="506" y="414"/>
      <point x="408" y="501"/>
      <point x="293" y="501" type="curve" smooth="yes"/>
      <point x="176" y="501"/>
      <point x="77" y="411"/>
      <point x="77" y="265" type="curve" smooth="yes"/>
      <point x="77" y="257" type="line" smooth="yes"/>
      <point x="77" y="114"/>
      <point x="174" y="22"/>
    </contour>
    <contour>
      <point x="291" y="-8" type="curve" smooth="yes"/>
      <point x="154" y="-8"/>
      <point x="42" y="103"/>
      <point x="42" y="257" type="curve" smooth="yes"/>
      <point x="42" y="265" type="line" smooth="yes"/>
      <point x="42" y="422"/>
      <point x="157" y="530"/>
      <point x="293" y="530" type="curve" smooth="yes"/>
      <point x="429" y="530"/>
      <point x="541" y="426"/>
      <point x="541" y="266" type="curve" smooth="yes"/>
      <point x="541" y="258" type="line" smooth="yes"/>
      <point x="541" y="100"/>
      <point x="428" y="-8"/>
    </contour>
    <contour>
      <point x="358" y="615" type="curve" smooth="yes"/>
      <point x="307" y="615"/>
      <point x="264" y="673"/>
      <point x="225" y="673" type="curve" smooth="yes"/>
      <point x="202" y="673"/>
      <point x="180" y="654"/>
      <point x="175" y="615" type="curve"/>
      <point x="148" y="615" type="line"/>
      <point x="155" y="674"/>
      <point x="186" y="703"/>
      <point x="226" y="703" type="curve" smooth="yes"/>
      <point x="275" y="703"/>
      <point x="319" y="644"/>
      <point x="359" y="644" type="curve" smooth="yes"/>
      <point x="381" y="644"/>
      <point x="403" y="664"/>
      <point x="408" y="703" type="curve"/>
      <point x="435" y="703" type="line"/>
      <point x="428" y="644"/>
      <point x="397" y="615"/>
    </contour>
  </outline>
</glyph>
<glyph name="odieresis" format="2">
  <advance width="583"/>
  <unicode hex="00F6"/>
  <outline>
    <contour>
      <point x="214" y="638" type="curve" smooth="yes"/>
      <point x="200" y="638"/>
      <point x="188" y="650"/>
      <point x="188" y="664" type="curve" smooth="yes"/>
      <point x="188" y="678"/>
      <point x="200" y="690"/>
      <point x="214" y="690" type="curve" smooth="yes"/>
      <point x="229" y="690"/>
      <point x="240" y="678"/>
      <point x="240" y="664" type="curve" smooth="yes"/>
      <point x="240" y="650"/>
      <point x="229" y="638"/>
    </contour>
    <contour>
      <point x="368" y="638" type="curve" smooth="yes"/>
      <point x="353" y="638"/>
      <point x="342" y="650"/>
      <point x="342" y="664" type="curve" smooth="yes"/>
      <point x="342" y="678"/>
      <point x="353" y="690"/>
      <point x="368" y="690" type="curve" smooth="yes"/>
      <point x="383" y="690"/>
      <point x="394" y="678"/>
      <point x="394" y="664" type="curve" smooth="yes"/>
      <point x="394" y="650"/>
      <point x="383" y="638"/>
    </contour>
    <contour>
      <point x="292" y="22" type="curve" smooth="yes"/>
      <point x="409" y="22"/>
      <point x="506" y="112"/>
      <point x="506" y="258" type="curve" smooth="yes"/>
      <point x="506" y="266" type="line" smooth="yes"/>
      <point x="506" y="414"/>
      <point x="408" y="501"/>
      <point x="293" y="501" type="curve" smooth="yes"/>
      <point x="176" y="501"/>
      <point x="77" y="411"/>
      <point x="77" y="265" type="curve" smooth="yes"/>
      <point x="77" y="257" type="line" smooth="yes"/>
      <point x="77" y="114"/>
      <point x="174" y="22"/>
    </contour>
    <contour>
      <point x="291" y="-8" type="curve" smooth="yes"/>
      <point x="154" y="-8"/>
      <point x="42" y="103"/>
      <point x="42" y="257" type="curve" smooth="yes"/>
      <point x="42" y="265" type="line" smooth="yes"/>
      <point x="42" y="422"/>
      <point x="157" y="530"/>
      <point x="293" y="530" type="curve" smooth="yes"/>
      <point x="429" y="530"/>
      <point x="541" y="426"/>
      <point x="541" y="266" type="curve" smooth="yes"/>
      <point x="541" y="258" type="line" smooth="yes"/>
      <point x="541" y="100"/>
      <point x="428" y="-8"/>
    </contour>
  </outline>
</glyph>
<glyph name="divide" format="2">
  <advance width="505"/>
  <unicode hex="00F7"/>
  <outline>
    <contour>
      <point x="252" y="143" type="curve" smooth="yes"/>
      <point x="236" y="143"/>
      <point x="224" y="156"/>
      <point x="224" y="172" type="curve" smooth="yes"/>
      <point x="224" y="188"/>
      <point x="236" y="201"/>
      <point x="252" y="201" type="curve" smooth="yes"/>
      <point x="269" y="201"/>
      <point x="281" y="188"/>
      <point x="281" y="172" type="curve" smooth="yes"/>
      <point x="281" y="156"/>
      <point x="269" y="143"/>
    </contour>
    <contour>
      <point x="37" y="327" type="line"/>
      <point x="37" y="357" type="line"/>
      <point x="468" y="357" type="line"/>
      <point x="468" y="327" type="line"/>
    </contour>
    <contour>
      <point x="252" y="484" type="curve" smooth="yes"/>
      <point x="236" y="484"/>
      <point x="224" y="497"/>
      <point x="224" y="512" type="curve" smooth="yes"/>
      <point x="224" y="528"/>
      <point x="236" y="541"/>
      <point x="252" y="541" type="curve" smooth="yes"/>
      <point x="269" y="541"/>
      <point x="281" y="528"/>
      <point x="281" y="512" type="curve" smooth="yes"/>
      <point x="281" y="497"/>
      <point x="269" y="484"/>
    </contour>
  </outline>
</glyph>
<glyph name="oslash" format="2">
  <advance width="583"/>
  <unicode hex="00F8"/>
  <outline>
    <contour>
      <point x="58" y="-19" type="line"/>
      <point x="36" y="0" type="line"/>
      <point x="105" y="77" type="line"/>
      <point x="66" y="123"/>
      <point x="42" y="185"/>
      <point x="42" y="257" type="curve" smooth="yes"/>
      <point x="42" y="265" type="line" smooth="yes"/>
      <point x="42" y="422"/>
      <point x="157" y="530"/>
      <point x="293" y="530" type="curve" smooth="yes"/>
      <point x="355" y="530"/>
      <point x="412" y="508"/>
      <point x="455" y="470" type="curve"/>
      <point x="518" y="540" type="line"/>
      <point x="540" y="521" type="line"/>
      <point x="476" y="449" type="line"/>
      <point x="516" y="404"/>
      <point x="541" y="341"/>
      <point x="541" y="266" type="curve" smooth="yes"/>
      <point x="541" y="258" type="line" smooth="yes"/>
      <point x="541" y="100"/>
      <point x="428" y="-8"/>
      <point x="291" y="-8" type="curve" smooth="yes"/>
      <point x="227" y="-8"/>
      <point x="169" y="15"/>
      <point x="125" y="56" type="curve"/>
    </contour>
    <contour>
      <point x="292" y="22" type="curve" smooth="yes"/>
      <point x="409" y="22"/>
      <point x="506" y="112"/>
      <point x="506" y="258" type="curve" smooth="yes"/>
      <point x="506" y="266" type="line" smooth="yes"/>
      <point x="506" y="332"/>
      <point x="486" y="386"/>
      <point x="454" y="425" type="curve"/>
      <point x="146" y="80" type="line"/>
      <point x="185" y="43"/>
      <point x="236" y="22"/>
    </contour>
    <contour>
      <point x="77" y="257" type="line" smooth="yes"/>
      <point x="77" y="194"/>
      <point x="96" y="141"/>
      <point x="127" y="101" type="curve"/>
      <point x="434" y="446" type="line"/>
      <point x="396" y="482"/>
      <point x="346" y="501"/>
      <point x="293" y="501" type="curve" smooth="yes"/>
      <point x="176" y="501"/>
      <point x="77" y="411"/>
      <point x="77" y="265" type="curve" smooth="yes"/>
    </contour>
  </outline>
</glyph>
<glyph name="ucircumflex" format="2">
  <advance width="569"/>
  <unicode hex="00FB"/>
  <outline>
    <contour>
      <point x="158" y="600" type="line"/>
      <point x="269" y="729" type="line"/>
      <point x="303" y="729" type="line"/>
      <point x="412" y="600" type="line"/>
      <point x="382" y="600" type="line"/>
      <point x="286" y="700" type="line"/>
      <point x="188" y="600" type="line"/>
    </contour>
    <contour>
      <point x="262" y="-8" type="curve" smooth="yes"/>
      <point x="150" y="-8"/>
      <point x="76" y="48"/>
      <point x="76" y="193" type="curve" smooth="yes"/>
      <point x="76" y="523" type="line"/>
      <point x="110" y="523" type="line"/>
      <point x="110" y="194" type="line" smooth="yes"/>
      <point x="110" y="71"/>
      <point x="170" y="23"/>
      <point x="267" y="23" type="curve" smooth="yes"/>
      <point x="359" y="23"/>
      <point x="454" y="84"/>
      <point x="454" y="204" type="curve" smooth="yes"/>
      <point x="454" y="523" type="line"/>
      <point x="488" y="523" type="line"/>
      <point x="488" y="0" type="line"/>
      <point x="454" y="0" type="line"/>
      <point x="454" y="112" type="line"/>
      <point x="430" y="48"/>
      <point x="359" y="-8"/>
    </contour>
  </outline>
</glyph>
<glyph name="udieresis" format="2">
  <advance width="569"/>
  <unicode hex="00FC"/>
  <outline>
    <contour>
      <point x="208" y="638" type="curve" smooth="yes"/>
      <point x="194" y="638"/>
      <point x="182" y="650"/>
      <point x="182" y="664" type="curve" smooth="yes"/>
      <point x="182" y="678"/>
      <point x="194" y="690"/>
      <point x="208" y="690" type="curve" smooth="yes"/>
      <point x="223" y="690"/>
      <point x="234" y="678"/>
      <point x="234" y="664" type="curve" smooth="yes"/>
      <point x="234" y="650"/>
      <point x="223" y="638"/>
    </contour>
    <contour>
      <point x="362" y="638" type="curve" smooth="yes"/>
      <point x="347" y="638"/>
      <point x="336" y="650"/>
      <point x="336" y="664" type="curve" smooth="yes"/>
      <point x="336" y="678"/>
      <point x="347" y="690"/>
      <point x="362" y="690" type="curve" smooth="yes"/>
      <point x="377" y="690"/>
      <point x="388" y="678"/>
      <point x="388" y="664" type="curve" smooth="yes"/>
      <point x="388" y="650"/>
      <point x="377" y="638"/>
    </contour>
    <contour>
      <point x="262" y="-8" type="curve" smooth="yes"/>
      <point x="150" y="-8"/>
      <point x="76" y="48"/>
      <point x="76" y="193" type="curve" smooth="yes"/>
      <point x="76" y="523" type="line"/>
      <point x="110" y="523" type="line"/>
      <point x="110" y="194" type="line" smooth="yes"/>
      <point x="110" y="71"/>
      <point x="170" y="23"/>
      <point x="267" y="23" type="curve" smooth="yes"/>
      <point x="359" y="23"/>
      <point x="454" y="84"/>
      <point x="454" y="204" type="curve" smooth="yes"/>
      <point x="454" y="523" type="line"/>
      <point x="488" y="523" type="line"/>
      <point x="488" y="0" type="line"/>
      <point x="454" y="0" type="line"/>
      <point x="454" y="112" type="line"/>
      <point x="430" y="48"/>
      <point x="359" y="-8"/>
    </contour>
  </outline>
</glyph>
<glyph name="yacute" format="2">
  <advance width="495"/>
  <unicode hex="00FD"/>
  <outline>
    <contour>
      <point x="142" y="-182" type="line"/>
      <point x="234" y="40" type="line"/>
      <point x="26" y="523" type="line"/>
      <point x="62" y="523" type="line"/>
      <point x="252" y="79" type="line"/>
      <point x="433" y="523" type="line"/>
      <point x="469" y="523" type="line"/>
      <point x="177" y="-182" type="line"/>
    </contour>
    <contour>
      <point x="225" y="600" type="line"/>
      <point x="296" y="747" type="line"/>
      <point x="337" y="747" type="line"/>
      <point x="253" y="600" type="line"/>
    </contour>
  </outline>
</glyph>
<glyph name="ydieresis" format="2">
  <advance width="495"/>
  <unicode hex="00FF"/>
  <outline>
    <contour>
      <point x="142" y="-182" type="line"/>
      <point x="234" y="40" type="line"/>
      <point x="26" y="523" type="line"/>
      <point x="62" y="523" type="line"/>
      <point x="252" y="79" type="line"/>
      <point x="433" y="523" type="line"/>
      <point x="469" y="523" type="line"/>
      <point x="177" y="-182" type="line"/>
    </contour>
    <contour>
      <point x="174" y="638" type="curve" smooth="yes"/>
      <point x="160" y="638"/>
      <point x="148" y="650"/>
      <point x="148" y="664" type="curve" smooth="yes"/>
      <point x="148" y="678"/>
      <point x="160" y="690"/>
      <point x="174" y="690" type="curve" smooth="yes"/>
      <point x="189" y="690"/>
      <point x="200" y="678"/>
      <point x="200" y="664" type="curve" smooth="yes"/>
      <point x="200" y="650"/>
      <point x="189" y="638"/>
    </contour>
    <contour>
      <point x="328" y="638" type="curve" smooth="yes"/>
      <point x="313" y="638"/>
      <point x="302" y="650"/>
      <point x="302" y="664" type="curve" smooth="yes"/>
      <point x="302" y="678"/>
      <point x="313" y="690"/>
      <point x="328" y="690" type="curve" smooth="yes"/>
      <point x="343" y="690"/>
      <point x="354" y="678"/>
      <point x="354" y="664" type="curve" smooth="yes"/>
      <point x="354" y="650"/>
      <point x="343" y="638"/>
    </contour>
  </outline>
</glyph>
<glyph name="Abreve" format="2">
  <advance width="641"/>
  <unicode hex="0102"/>
  <outline>
    <contour>
      <point x="32" y="0" type="line"/>
      <point x="296" y="715" type="line"/>
      <point x="344" y="715" type="line"/>
      <point x="610" y="0" type="line"/>
      <point x="574" y="0" type="line"/>
      <point x="489" y="228" type="line"/>
      <point x="150" y="228" type="line"/>
      <point x="66" y="0" type="line"/>
    </contour>
    <contour>
      <point x="319" y="686" type="line"/>
      <point x="161" y="258" type="line"/>
      <point x="478" y="258" type="line"/>
    </contour>
    <contour>
      <point x="313" y="773" type="curve" smooth="yes"/>
      <point x="247" y="773"/>
      <point x="195" y="822"/>
      <point x="190" y="890" type="curve"/>
      <point x="220" y="890" type="line"/>
      <point x="225" y="839"/>
      <point x="263" y="802"/>
      <point x="313" y="802" type="curve" smooth="yes"/>
      <point x="362" y="802"/>
      <point x="402" y="839"/>
      <point x="408" y="890" type="curve"/>
      <point x="437" y="890" type="line"/>
      <point x="433" y="822"/>
      <point x="377" y="773"/>
    </contour>
  </outline>
</glyph>
<glyph name="abreve" format="2">
  <advance width="521"/>
  <unicode hex="0103"/>
  <outline>
    <contour>
      <point x="225" y="-8" type="curve" smooth="yes"/>
      <point x="117" y="-8"/>
      <point x="46" y="44"/>
      <point x="46" y="139" type="curve" smooth="yes"/>
      <point x="46" y="260"/>
      <point x="155" y="296"/>
      <point x="281" y="296" type="curve" smooth="yes"/>
      <point x="411" y="296" type="line"/>
      <point x="411" y="347" type="line" smooth="yes"/>
      <point x="411" y="454"/>
      <point x="366" y="501"/>
      <point x="265" y="501" type="curve" smooth="yes"/>
      <point x="182" y="501"/>
      <point x="117" y="465"/>
      <point x="103" y="380" type="curve"/>
      <point x="69" y="380" type="line"/>
      <point x="82" y="483"/>
      <point x="170" y="531"/>
      <point x="266" y="531" type="curve" smooth="yes"/>
      <point x="382" y="531"/>
      <point x="445" y="471"/>
      <point x="445" y="347" type="curve" smooth="yes"/>
      <point x="445" y="0" type="line"/>
      <point x="411" y="0" type="line"/>
      <point x="411" y="89" type="line"/>
      <point x="381" y="37"/>
      <point x="319" y="-8"/>
    </contour>
    <contour>
      <point x="227" y="21" type="curve" smooth="yes"/>
      <point x="327" y="21"/>
      <point x="411" y="83"/>
      <point x="411" y="160" type="curve" smooth="yes"/>
      <point x="411" y="268" type="line"/>
      <point x="281" y="268" type="line" smooth="yes"/>
      <point x="170" y="268"/>
      <point x="80" y="244"/>
      <point x="80" y="139" type="curve" smooth="yes"/>
      <point x="80" y="63"/>
      <point x="132" y="21"/>
    </contour>
    <contour>
      <point x="265" y="614" type="curve" smooth="yes"/>
      <point x="199" y="614"/>
      <point x="153" y="660"/>
      <point x="148" y="728" type="curve"/>
      <point x="178" y="728" type="line"/>
      <point x="183" y="677"/>
      <point x="215" y="643"/>
      <point x="265" y="643" type="curve" smooth="yes"/>
      <point x="314" y="643"/>
      <point x="348" y="677"/>
      <point x="354" y="728" type="curve"/>
      <point x="383" y="728" type="line"/>
      <point x="379" y="660"/>
      <point x="329" y="614"/>
    </contour>
  </outline>
</glyph>
<glyph name="Aogonek" format="2">
  <advance width="641"/>
  <unicode hex="0104"/>
  <outline>
    <contour>
      <point x="579" y="-182" type="curve" smooth="yes"/>
      <point x="524" y="-182"/>
      <point x="492" y="-151"/>
      <point x="492" y="-110" type="curve" smooth="yes"/>
      <point x="492" y="-64"/>
      <point x="530" y="-24"/>
      <point x="574" y="3" type="curve"/>
      <point x="572" y="3" type="line"/>
      <point x="488" y="228" type="line"/>
      <point x="150" y="228" type="line"/>
      <point x="66" y="0" type="line"/>
      <point x="32" y="0" type="line"/>
      <point x="296" y="715" type="line"/>
      <point x="344" y="715" type="line"/>
      <point x="609" y="1" type="line"/>
      <point x="555" y="-34"/>
      <point x="526" y="-66"/>
      <point x="526" y="-106" type="curve" smooth="yes"/>
      <point x="526" y="-134"/>
      <point x="543" y="-154"/>
      <point x="582" y="-154" type="curve" smooth="yes"/>
      <point x="599" y="-154"/>
      <point x="616" y="-151"/>
      <point x="631" y="-145" type="curve"/>
      <point x="631" y="-172" type="line"/>
      <point x="617" y="-178"/>
      <point x="600" y="-182"/>
    </contour>
    <contour>
      <point x="319" y="686" type="line"/>
      <point x="161" y="258" type="line"/>
      <point x="477" y="258" type="line"/>
    </contour>
  </outline>
</glyph>
<glyph name="aogonek" format="2">
  <advance width="521"/>
  <unicode hex="0105"/>
  <outline>
    <contour>
      <point x="417" y="-182" type="curve" smooth="yes"/>
      <point x="362" y="-182"/>
      <point x="330" y="-151"/>
      <point x="330" y="-110" type="curve" smooth="yes"/>
      <point x="330" y="-63"/>
      <point x="370" y="-22"/>
      <point x="412" y="4" type="curve"/>
      <point x="411" y="4" type="line"/>
      <point x="411" y="89" type="line"/>
      <point x="381" y="37"/>
      <point x="319" y="-8"/>
      <point x="225" y="-8" type="curve" smooth="yes"/>
      <point x="117" y="-8"/>
      <point x="46" y="44"/>
      <point x="46" y="139" type="curve" smooth="yes"/>
      <point x="46" y="260"/>
      <point x="155" y="296"/>
      <point x="281" y="296" type="curve" smooth="yes"/>
      <point x="411" y="296" type="line"/>
      <point x="411" y="347" type="line" smooth="yes"/>
      <point x="411" y="454"/>
      <point x="366" y="501"/>
      <point x="265" y="501" type="curve" smooth="yes"/>
      <point x="182" y="501"/>
      <point x="117" y="465"/>
      <point x="103" y="380" type="curve"/>
      <point x="69" y="380" type="line"/>
      <point x="82" y="483"/>
      <point x="170" y="531"/>
      <point x="266" y="531" type="curve" smooth="yes"/>
      <point x="382" y="531"/>
      <point x="445" y="471"/>
      <point x="445" y="347" type="curve" smooth="yes"/>
      <point x="445" y="1" type="line"/>
      <point x="393" y="-32"/>
      <point x="363" y="-67"/>
      <point x="363" y="-106" type="curve" smooth="yes"/>
      <point x="363" y="-134"/>
      <point x="381" y="-155"/>
      <point x="420" y="-155" type="curve" smooth="yes"/>
      <point x="437" y="-155"/>
      <point x="453" y="-152"/>
      <point x="469" y="-146" type="curve"/>
      <point x="469" y="-172" type="line"/>
      <point x="455" y="-178"/>
      <point x="437" y="-182"/>
    </contour>
    <contour>
      <point x="227" y="21" type="curve" smooth="yes"/>
      <point x="327" y="21"/>
      <point x="411" y="83"/>
      <point x="411" y="160" type="curve" smooth="yes"/>
      <point x="411" y="269" type="line"/>
      <point x="281" y="269" type="line" smooth="yes"/>
      <point x="170" y="269"/>
      <point x="80" y="244"/>
      <point x="80" y="139" type="curve" smooth="yes"/>
      <point x="80" y="63"/>
      <point x="132" y="21"/>
    </contour>
  </outline>
</glyph>
<glyph name="Ccircumflex" format="2">
  <advance width="723"/>
  <unicode hex="0108"/>
  <outline>
    <contour>
      <point x="255" y="771" type="line"/>
      <point x="367" y="891" type="line"/>
      <point x="401" y="891" type="line"/>
      <point x="511" y="771" type="line"/>
      <point x="481" y="771" type="line"/>
      <point x="384" y="861" type="line"/>
      <point x="285" y="771" type="line"/>
    </contour>
    <contour>
      <point x="382" y="-7" type="curve" smooth="yes"/>
      <point x="181" y="-7"/>
      <point x="51" y="140"/>
      <point x="51" y="353" type="curve" smooth="yes"/>
      <point x="51" y="361" type="line" smooth="yes"/>
      <point x="51" y="572"/>
      <point x="199" y="722"/>
      <point x="382" y="722" type="curve" smooth="yes"/>
      <point x="528" y="722"/>
      <point x="644" y="646"/>
      <point x="669" y="506" type="curve"/>
      <point x="633" y="506" type="line"/>
      <point x="608" y="624"/>
      <point x="520" y="692"/>
      <point x="382" y="692" type="curve" smooth="yes"/>
      <point x="214" y="692"/>
      <point x="88" y="556"/>
      <point x="88" y="362" type="curve" smooth="yes"/>
      <point x="88" y="354" type="line" smooth="yes"/>
      <point x="88" y="155"/>
      <point x="203" y="24"/>
      <point x="383" y="24" type="curve" smooth="yes"/>
      <point x="519" y="24"/>
      <point x="619" y="99"/>
      <point x="645" y="225" type="curve"/>
      <point x="678" y="225" type="line"/>
      <point x="651" y="78"/>
      <point x="533" y="-7"/>
    </contour>
  </outline>
</glyph>
<glyph name="Cdotaccent" format="2">
  <advance width="723"/>
  <unicode hex="010A"/>
  <outline>
    <contour>
      <point x="382" y="-7" type="curve" smooth="yes"/>
      <point x="181" y="-7"/>
      <point x="51" y="140"/>
      <point x="51" y="353" type="curve" smooth="yes"/>
      <point x="51" y="361" type="line" smooth="yes"/>
      <point x="51" y="572"/>
      <point x="199" y="722"/>
      <point x="382" y="722" type="curve" smooth="yes"/>
      <point x="528" y="722"/>
      <point x="644" y="646"/>
      <point x="669" y="506" type="curve"/>
      <point x="633" y="506" type="line"/>
      <point x="608" y="624"/>
      <point x="520" y="692"/>
      <point x="382" y="692" type="curve" smooth="yes"/>
      <point x="214" y="692"/>
      <point x="88" y="556"/>
      <point x="88" y="362" type="curve" smooth="yes"/>
      <point x="88" y="354" type="line" smooth="yes"/>
      <point x="88" y="155"/>
      <point x="203" y="24"/>
      <point x="383" y="24" type="curve" smooth="yes"/>
      <point x="519" y="24"/>
      <point x="619" y="99"/>
      <point x="645" y="225" type="curve"/>
      <point x="678" y="225" type="line"/>
      <point x="651" y="78"/>
      <point x="533" y="-7"/>
    </contour>
    <contour>
      <point x="382" y="787" type="curve" smooth="yes"/>
      <point x="367" y="787"/>
      <point x="356" y="799"/>
      <point x="356" y="814" type="curve" smooth="yes"/>
      <point x="356" y="828"/>
      <point x="367" y="840"/>
      <point x="382" y="840" type="curve" smooth="yes"/>
      <point x="397" y="840"/>
      <point x="409" y="828"/>
      <point x="409" y="814" type="curve" smooth="yes"/>
      <point x="409" y="799"/>
      <point x="397" y="787"/>
    </contour>
  </outline>
</glyph>
<glyph name="cdotaccent" format="2">
  <advance width="547"/>
  <unicode hex="010B"/>
  <outline>
    <contour>
      <point x="288" y="-8" type="curve" smooth="yes"/>
      <point x="151" y="-8"/>
      <point x="42" y="99"/>
      <point x="42" y="257" type="curve" smooth="yes"/>
      <point x="42" y="265" type="line" smooth="yes"/>
      <point x="42" y="424"/>
      <point x="153" y="531"/>
      <point x="289" y="531" type="curve" smooth="yes"/>
      <point x="394" y="531"/>
      <point x="488" y="470"/>
      <point x="502" y="362" type="curve"/>
      <point x="468" y="362" type="line"/>
      <point x="456" y="453"/>
      <point x="377" y="501"/>
      <point x="289" y="501" type="curve" smooth="yes"/>
      <point x="172" y="501"/>
      <point x="77" y="411"/>
      <point x="77" y="265" type="curve" smooth="yes"/>
      <point x="77" y="257" type="line" smooth="yes"/>
      <point x="77" y="112"/>
      <point x="171" y="22"/>
      <point x="288" y="22" type="curve" smooth="yes"/>
      <point x="383" y="22"/>
      <point x="460" y="77"/>
      <point x="476" y="177" type="curve"/>
      <point x="508" y="177" type="line"/>
      <point x="492" y="65"/>
      <point x="402" y="-8"/>
    </contour>
    <contour>
      <point x="284" y="637" type="curve" smooth="yes"/>
      <point x="269" y="637"/>
      <point x="258" y="650"/>
      <point x="258" y="664" type="curve" smooth="yes"/>
      <point x="258" y="678"/>
      <point x="269" y="690"/>
      <point x="284" y="690" type="curve" smooth="yes"/>
      <point x="299" y="690"/>
      <point x="311" y="678"/>
      <point x="311" y="664" type="curve" smooth="yes"/>
      <point x="311" y="650"/>
      <point x="299" y="637"/>
    </contour>
  </outline>
</glyph>
<glyph name="ccaron" format="2">
  <advance width="547"/>
  <unicode hex="010D"/>
  <outline>
    <contour>
      <point x="266" y="613" type="line"/>
      <point x="157" y="742" type="line"/>
      <point x="187" y="742" type="line"/>
      <point x="284" y="642" type="line"/>
      <point x="381" y="742" type="line"/>
      <point x="411" y="742" type="line"/>
      <point x="300" y="613" type="line"/>
    </contour>
    <contour>
      <point x="288" y="-8" type="curve" smooth="yes"/>
      <point x="151" y="-8"/>
      <point x="42" y="99"/>
      <point x="42" y="257" type="curve" smooth="yes"/>
      <point x="42" y="265" type="line" smooth="yes"/>
      <point x="42" y="424"/>
      <point x="153" y="531"/>
      <point x="289" y="531" type="curve" smooth="yes"/>
      <point x="394" y="531"/>
      <point x="488" y="470"/>
      <point x="502" y="362" type="curve"/>
      <point x="468" y="362" type="line"/>
      <point x="456" y="453"/>
      <point x="377" y="501"/>
      <point x="289" y="501" type="curve" smooth="yes"/>
      <point x="172" y="501"/>
      <point x="77" y="411"/>
      <point x="77" y="265" type="curve" smooth="yes"/>
      <point x="77" y="257" type="line" smooth="yes"/>
      <point x="77" y="112"/>
      <point x="171" y="22"/>
      <point x="288" y="22" type="curve" smooth="yes"/>
      <point x="383" y="22"/>
      <point x="460" y="77"/>
      <point x="476" y="177" type="curve"/>
      <point x="508" y="177" type="line"/>
      <point x="492" y="65"/>
      <point x="402" y="-8"/>
    </contour>
  </outline>
</glyph>
<glyph name="Dcaron" format="2">
  <advance width="680"/>
  <unicode hex="010E"/>
  <outline>
    <contour>
      <point x="295" y="771" type="line"/>
      <point x="184" y="891" type="line"/>
      <point x="214" y="891" type="line"/>
      <point x="313" y="800" type="line"/>
      <point x="413" y="891" type="line"/>
      <point x="442" y="891" type="line"/>
      <point x="329" y="771" type="line"/>
    </contour>
    <contour>
      <point x="130" y="31" type="line"/>
      <point x="273" y="31" type="line" smooth="yes"/>
      <point x="488" y="31"/>
      <point x="592" y="169"/>
      <point x="592" y="356" type="curve" smooth="yes"/>
      <point x="592" y="364" type="line" smooth="yes"/>
      <point x="592" y="546"/>
      <point x="491" y="685"/>
      <point x="272" y="685" type="curve" smooth="yes"/>
      <point x="130" y="685" type="line"/>
    </contour>
    <contour>
      <point x="94" y="0" type="line"/>
      <point x="94" y="715" type="line"/>
      <point x="277" y="715" type="line" smooth="yes"/>
      <point x="508" y="715"/>
      <point x="629" y="563"/>
      <point x="629" y="364" type="curve" smooth="yes"/>
      <point x="629" y="356" type="line" smooth="yes"/>
      <point x="629" y="158"/>
      <point x="516" y="0"/>
      <point x="275" y="0" type="curve" smooth="yes"/>
    </contour>
  </outline>
</glyph>
<glyph name="dcroat" format="2">
  <advance width="602"/>
  <unicode hex="0111"/>
  <outline>
    <contour>
      <point x="292" y="629" type="line"/>
      <point x="292" y="656" type="line"/>
      <point x="487" y="656" type="line"/>
      <point x="487" y="773" type="line"/>
      <point x="521" y="773" type="line"/>
      <point x="521" y="656" type="line"/>
      <point x="601" y="656" type="line"/>
      <point x="601" y="629" type="line"/>
      <point x="521" y="629" type="line"/>
      <point x="521" y="0" type="line"/>
      <point x="487" y="0" type="line"/>
      <point x="487" y="140" type="line"/>
      <point x="462" y="71"/>
      <point x="389" y="-8"/>
      <point x="277" y="-8" type="curve" smooth="yes"/>
      <point x="146" y="-8"/>
      <point x="42" y="88"/>
      <point x="42" y="256" type="curve" smooth="yes"/>
      <point x="42" y="264" type="line" smooth="yes"/>
      <point x="42" y="426"/>
      <point x="150" y="531"/>
      <point x="285" y="531" type="curve" smooth="yes"/>
      <point x="397" y="531"/>
      <point x="459" y="460"/>
      <point x="487" y="387" type="curve"/>
      <point x="487" y="629" type="line"/>
    </contour>
    <contour>
      <point x="279" y="22" type="curve" smooth="yes"/>
      <point x="391" y="22"/>
      <point x="488" y="108"/>
      <point x="488" y="257" type="curve" smooth="yes"/>
      <point x="488" y="265" type="line" smooth="yes"/>
      <point x="488" y="416"/>
      <point x="401" y="501"/>
      <point x="287" y="501" type="curve" smooth="yes"/>
      <point x="171" y="501"/>
      <point x="77" y="415"/>
      <point x="77" y="265" type="curve" smooth="yes"/>
      <point x="77" y="257" type="line" smooth="yes"/>
      <point x="77" y="107"/>
      <point x="165" y="22"/>
    </contour>
  </outline>
</glyph>
<glyph name="Ebreve" format="2">
  <advance width="566"/>
  <unicode hex="0114"/>
  <outline>
    <contour>
      <point x="94" y="0" type="line"/>
      <point x="94" y="715" type="line"/>
      <point x="500" y="715" type="line"/>
      <point x="500" y="685" type="line"/>
      <point x="130" y="685" type="line"/>
      <point x="130" y="384" type="line"/>
      <point x="431" y="384" type="line"/>
      <point x="431" y="353" type="line"/>
      <point x="130" y="353" type="line"/>
      <point x="130" y="31" type="line"/>
      <point x="518" y="31" type="line"/>
      <point x="518" y="0" type="line"/>
    </contour>
    <contour>
      <point x="296" y="773" type="curve" smooth="yes"/>
      <point x="230" y="773"/>
      <point x="178" y="822"/>
      <point x="173" y="890" type="curve"/>
      <point x="203" y="890" type="line"/>
      <point x="208" y="839"/>
      <point x="246" y="802"/>
      <point x="296" y="802" type="curve" smooth="yes"/>
      <point x="345" y="802"/>
      <point x="385" y="839"/>
      <point x="391" y="890" type="curve"/>
      <point x="420" y="890" type="line"/>
      <point x="416" y="822"/>
      <point x="360" y="773"/>
    </contour>
  </outline>
</glyph>
<glyph name="ebreve" format="2">
  <advance width="545"/>
  <unicode hex="0115"/>
  <outline>
    <contour>
      <point x="286" y="-8" type="curve" smooth="yes"/>
      <point x="134" y="-8"/>
      <point x="42" y="102"/>
      <point x="42" y="257" type="curve" smooth="yes"/>
      <point x="42" y="265" type="line" smooth="yes"/>
      <point x="42" y="421"/>
      <point x="142" y="531"/>
      <point x="279" y="531" type="curve" smooth="yes"/>
      <point x="408" y="531"/>
      <point x="503" y="443"/>
      <point x="503" y="279" type="curve" smooth="yes"/>
      <point x="503" y="264" type="line"/>
      <point x="77" y="264" type="line"/>
      <point x="78" y="112"/>
      <point x="152" y="22"/>
      <point x="286" y="22" type="curve" smooth="yes"/>
      <point x="376" y="22"/>
      <point x="444" y="62"/>
      <point x="465" y="144" type="curve"/>
      <point x="499" y="144" type="line"/>
      <point x="475" y="47"/>
      <point x="394" y="-8"/>
    </contour>
    <contour>
      <point x="78" y="293" type="curve"/>
      <point x="469" y="293" type="line"/>
      <point x="465" y="431"/>
      <point x="390" y="501"/>
      <point x="279" y="501" type="curve" smooth="yes"/>
      <point x="168" y="501"/>
      <point x="86" y="419"/>
    </contour>
    <contour>
      <point x="275" y="614" type="curve" smooth="yes"/>
      <point x="209" y="614"/>
      <point x="163" y="660"/>
      <point x="158" y="728" type="curve"/>
      <point x="188" y="728" type="line"/>
      <point x="193" y="677"/>
      <point x="225" y="643"/>
      <point x="275" y="643" type="curve" smooth="yes"/>
      <point x="324" y="643"/>
      <point x="358" y="677"/>
      <point x="364" y="728" type="curve"/>
      <point x="393" y="728" type="line"/>
      <point x="389" y="660"/>
      <point x="339" y="614"/>
    </contour>
  </outline>
</glyph>
<glyph name="Edotaccent" format="2">
  <advance width="566"/>
  <unicode hex="0116"/>
  <outline>
    <contour>
      <point x="295" y="787" type="curve" smooth="yes"/>
      <point x="280" y="787"/>
      <point x="269" y="799"/>
      <point x="269" y="814" type="curve" smooth="yes"/>
      <point x="269" y="828"/>
      <point x="280" y="840"/>
      <point x="295" y="840" type="curve" smooth="yes"/>
      <point x="310" y="840"/>
      <point x="322" y="828"/>
      <point x="322" y="814" type="curve" smooth="yes"/>
      <point x="322" y="799"/>
      <point x="310" y="787"/>
    </contour>
    <contour>
      <point x="94" y="0" type="line"/>
      <point x="94" y="715" type="line"/>
      <point x="500" y="715" type="line"/>
      <point x="500" y="685" type="line"/>
      <point x="130" y="685" type="line"/>
      <point x="130" y="384" type="line"/>
      <point x="431" y="384" type="line"/>
      <point x="431" y="353" type="line"/>
      <point x="130" y="353" type="line"/>
      <point x="130" y="31" type="line"/>
      <point x="518" y="31" type="line"/>
      <point x="518" y="0" type="line"/>
    </contour>
  </outline>
</glyph>
<glyph name="Eogonek" format="2">
  <advance width="566"/>
  <unicode hex="0118"/>
  <outline>
    <contour>
      <point x="426" y="-182" type="curve" smooth="yes"/>
      <point x="370" y="-182"/>
      <point x="339" y="-151"/>
      <point x="339" y="-110" type="curve" smooth="yes"/>
      <point x="339" y="-65"/>
      <point x="374" y="-26"/>
      <point x="416" y="0" type="curve"/>
      <point x="94" y="0" type="line"/>
      <point x="94" y="715" type="line"/>
      <point x="500" y="715" type="line"/>
      <point x="500" y="685" type="line"/>
      <point x="130" y="685" type="line"/>
      <point x="130" y="384" type="line"/>
      <point x="431" y="384" type="line"/>
      <point x="431" y="353" type="line"/>
      <point x="130" y="353" type="line"/>
      <point x="130" y="31" type="line"/>
      <point x="518" y="31" type="line"/>
      <point x="518" y="0" type="line"/>
      <point x="454" y="0" type="line"/>
      <point x="402" y="-34"/>
      <point x="373" y="-66"/>
      <point x="373" y="-106" type="curve" smooth="yes"/>
      <point x="373" y="-134"/>
      <point x="390" y="-154"/>
      <point x="429" y="-154" type="curve" smooth="yes"/>
      <point x="446" y="-154"/>
      <point x="462" y="-151"/>
      <point x="478" y="-145" type="curve"/>
      <point x="478" y="-172" type="line"/>
      <point x="464" y="-178"/>
      <point x="446" y="-182"/>
    </contour>
  </outline>
</glyph>
<glyph name="eogonek" format="2">
  <advance width="545"/>
  <unicode hex="0119"/>
  <outline>
    <contour>
      <point x="366" y="-182" type="curve" smooth="yes"/>
      <point x="310" y="-182"/>
      <point x="279" y="-151"/>
      <point x="279" y="-110" type="curve" smooth="yes"/>
      <point x="279" y="-65"/>
      <point x="316" y="-24"/>
      <point x="361" y="4" type="curve"/>
      <point x="337" y="-4"/>
      <point x="313" y="-8"/>
      <point x="286" y="-8" type="curve" smooth="yes"/>
      <point x="134" y="-8"/>
      <point x="42" y="102"/>
      <point x="42" y="257" type="curve" smooth="yes"/>
      <point x="42" y="265" type="line" smooth="yes"/>
      <point x="42" y="421"/>
      <point x="142" y="531"/>
      <point x="279" y="531" type="curve" smooth="yes"/>
      <point x="408" y="531"/>
      <point x="503" y="443"/>
      <point x="503" y="279" type="curve" smooth="yes"/>
      <point x="503" y="264" type="line"/>
      <point x="77" y="264" type="line"/>
      <point x="78" y="112"/>
      <point x="152" y="22"/>
      <point x="286" y="22" type="curve" smooth="yes"/>
      <point x="376" y="22"/>
      <point x="444" y="62"/>
      <point x="465" y="144" type="curve"/>
      <point x="499" y="144" type="line"/>
      <point x="485" y="87"/>
      <point x="455" y="55"/>
      <point x="426" y="31" type="curve" smooth="yes"/>
      <point x="379" y="-9"/>
      <point x="312" y="-47"/>
      <point x="312" y="-106" type="curve" smooth="yes"/>
      <point x="312" y="-134"/>
      <point x="330" y="-155"/>
      <point x="369" y="-155" type="curve" smooth="yes"/>
      <point x="386" y="-155"/>
      <point x="402" y="-152"/>
      <point x="418" y="-146" type="curve"/>
      <point x="418" y="-172" type="line"/>
      <point x="404" y="-178"/>
      <point x="386" y="-182"/>
    </contour>
    <contour>
      <point x="78" y="293" type="curve"/>
      <point x="469" y="293" type="line"/>
      <point x="465" y="431"/>
      <point x="390" y="501"/>
      <point x="279" y="501" type="curve" smooth="yes"/>
      <point x="168" y="501"/>
      <point x="86" y="419"/>
    </contour>
  </outline>
</glyph>
<glyph name="ecaron" format="2">
  <advance width="545"/>
  <unicode hex="011B"/>
  <outline>
    <contour>
      <point x="260" y="613" type="line"/>
      <point x="151" y="742" type="line"/>
      <point x="181" y="742" type="line"/>
      <point x="278" y="642" type="line"/>
      <point x="375" y="742" type="line"/>
      <point x="405" y="742" type="line"/>
      <point x="294" y="613" type="line"/>
    </contour>
    <contour>
      <point x="286" y="-8" type="curve" smooth="yes"/>
      <point x="134" y="-8"/>
      <point x="42" y="102"/>
      <point x="42" y="257" type="curve" smooth="yes"/>
      <point x="42" y="265" type="line" smooth="yes"/>
      <point x="42" y="421"/>
      <point x="142" y="531"/>
      <point x="279" y="531" type="curve" smooth="yes"/>
      <point x="408" y="531"/>
      <point x="503" y="443"/>
      <point x="503" y="279" type="curve" smooth="yes"/>
      <point x="503" y="264" type="line"/>
      <point x="77" y="264" type="line"/>
      <point x="78" y="112"/>
      <point x="152" y="22"/>
      <point x="286" y="22" type="curve" smooth="yes"/>
      <point x="376" y="22"/>
      <point x="444" y="62"/>
      <point x="465" y="144" type="curve"/>
      <point x="499" y="144" type="line"/>
      <point x="475" y="47"/>
      <point x="394" y="-8"/>
    </contour>
    <contour>
      <point x="78" y="293" type="curve"/>
      <point x="469" y="293" type="line"/>
      <point x="465" y="431"/>
      <point x="390" y="501"/>
      <point x="279" y="501" type="curve" smooth="yes"/>
      <point x="168" y="501"/>
      <point x="86" y="419"/>
    </contour>
  </outline>
</glyph>
<glyph name="gcommaaccent" format="2">
  <advance width="602"/>
  <unicode hex="0123"/>
  <outline>
    <contour>
      <point x="297" y="610" type="line"/>
      <point x="263" y="619" type="line"/>
      <point x="331" y="761" type="line"/>
      <point x="355" y="750" type="line"/>
    </contour>
    <contour>
      <point x="286" y="-187" type="curve" smooth="yes"/>
      <point x="136" y="-187"/>
      <point x="66" y="-112"/>
      <point x="53" y="-30" type="curve"/>
      <point x="88" y="-30" type="line"/>
      <point x="102" y="-102"/>
      <point x="162" y="-157"/>
      <point x="285" y="-157" type="curve" smooth="yes"/>
      <point x="401" y="-157"/>
      <point x="487" y="-104"/>
      <point x="487" y="36" type="curve" smooth="yes"/>
      <point x="487" y="161" type="line"/>
      <point x="462" y="91"/>
      <point x="388" y="17"/>
      <point x="277" y="17" type="curve" smooth="yes"/>
      <point x="146" y="17"/>
      <point x="42" y="111"/>
      <point x="42" y="268" type="curve" smooth="yes"/>
      <point x="42" y="276" type="line" smooth="yes"/>
      <point x="42" y="428"/>
      <point x="150" y="531"/>
      <point x="285" y="531" type="curve" smooth="yes"/>
      <point x="397" y="531"/>
      <point x="459" y="465"/>
      <point x="487" y="392" type="curve"/>
      <point x="487" y="523" type="line"/>
      <point x="521" y="523" type="line"/>
      <point x="521" y="34" type="line" smooth="yes"/>
      <point x="521" y="-121"/>
      <point x="421" y="-187"/>
    </contour>
    <contour>
      <point x="279" y="46" type="curve" smooth="yes"/>
      <point x="391" y="46"/>
      <point x="488" y="129"/>
      <point x="488" y="270" type="curve" smooth="yes"/>
      <point x="488" y="277" type="line" smooth="yes"/>
      <point x="488" y="419"/>
      <point x="401" y="501"/>
      <point x="287" y="501" type="curve" smooth="yes"/>
      <point x="171" y="501"/>
      <point x="77" y="418"/>
      <point x="77" y="277" type="curve" smooth="yes"/>
      <point x="77" y="269" type="line" smooth="yes"/>
      <point x="77" y="128"/>
      <point x="165" y="46"/>
    </contour>
  </outline>
</glyph>
<glyph name="Hcircumflex" format="2">
  <advance width="709"/>
  <unicode hex="0124"/>
  <outline>
    <contour>
      <point x="94" y="0" type="line"/>
      <point x="94" y="715" type="line"/>
      <point x="130" y="715" type="line"/>
      <point x="130" y="376" type="line"/>
      <point x="579" y="376" type="line"/>
      <point x="579" y="715" type="line"/>
      <point x="615" y="715" type="line"/>
      <point x="615" y="0" type="line"/>
      <point x="579" y="0" type="line"/>
      <point x="579" y="345" type="line"/>
      <point x="130" y="345" type="line"/>
      <point x="130" y="0" type="line"/>
    </contour>
    <contour>
      <point x="226" y="771" type="line"/>
      <point x="338" y="891" type="line"/>
      <point x="372" y="891" type="line"/>
      <point x="482" y="771" type="line"/>
      <point x="452" y="771" type="line"/>
      <point x="355" y="861" type="line"/>
      <point x="256" y="771" type="line"/>
    </contour>
  </outline>
</glyph>
<glyph name="Hbar" format="2">
  <advance width="709"/>
  <unicode hex="0126"/>
  <outline>
    <contour>
      <point x="8" y="522" type="line"/>
      <point x="8" y="550" type="line"/>
      <point x="94" y="550" type="line"/>
      <point x="94" y="715" type="line"/>
      <point x="130" y="715" type="line"/>
      <point x="130" y="550" type="line"/>
      <point x="579" y="550" type="line"/>
      <point x="579" y="715" type="line"/>
      <point x="615" y="715" type="line"/>
      <point x="615" y="550" type="line"/>
      <point x="701" y="550" type="line"/>
      <point x="701" y="522" type="line"/>
      <point x="615" y="522" type="line"/>
      <point x="615" y="0" type="line"/>
      <point x="579" y="0" type="line"/>
      <point x="579" y="345" type="line"/>
      <point x="130" y="345" type="line"/>
      <point x="130" y="0" type="line"/>
      <point x="94" y="0" type="line"/>
      <point x="94" y="522" type="line"/>
    </contour>
    <contour>
      <point x="130" y="376" type="line"/>
      <point x="579" y="376" type="line"/>
      <point x="579" y="522" type="line"/>
      <point x="130" y="522" type="line"/>
    </contour>
  </outline>
</glyph>
<glyph name="Itilde" format="2">
  <advance width="234"/>
  <unicode hex="0128"/>
  <outline>
    <contour>
      <point x="99" y="0" type="line"/>
      <point x="99" y="715" type="line"/>
      <point x="135" y="715" type="line"/>
      <point x="135" y="0" type="line"/>
    </contour>
    <contour>
      <point x="184" y="773" type="curve" smooth="yes"/>
      <point x="133" y="773"/>
      <point x="91" y="833"/>
      <point x="52" y="833" type="curve" smooth="yes"/>
      <point x="26" y="833"/>
      <point x="6" y="813"/>
      <point x="1" y="774" type="curve"/>
      <point x="-26" y="774" type="line"/>
      <point x="-19" y="833"/>
      <point x="12" y="863"/>
      <point x="52" y="863" type="curve" smooth="yes"/>
      <point x="101" y="863"/>
      <point x="144" y="803"/>
      <point x="184" y="803" type="curve" smooth="yes"/>
      <point x="209" y="803"/>
      <point x="229" y="823"/>
      <point x="234" y="862" type="curve"/>
      <point x="261" y="862" type="line"/>
      <point x="254" y="803"/>
      <point x="223" y="773"/>
    </contour>
  </outline>
</glyph>
<glyph name="itilde" format="2">
  <advance width="200"/>
  <unicode hex="0129"/>
  <outline>
    <contour>
      <point x="83" y="0" type="line"/>
      <point x="83" y="523" type="line"/>
      <point x="117" y="523" type="line"/>
      <point x="117" y="0" type="line"/>
    </contour>
    <contour>
      <point x="168" y="615" type="curve" smooth="yes"/>
      <point x="117" y="615"/>
      <point x="74" y="673"/>
      <point x="35" y="673" type="curve" smooth="yes"/>
      <point x="12" y="673"/>
      <point x="-10" y="654"/>
      <point x="-15" y="615" type="curve"/>
      <point x="-42" y="615" type="line"/>
      <point x="-35" y="674"/>
      <point x="-4" y="703"/>
      <point x="36" y="703" type="curve" smooth="yes"/>
      <point x="85" y="703"/>
      <point x="129" y="644"/>
      <point x="169" y="644" type="curve" smooth="yes"/>
      <point x="191" y="644"/>
      <point x="213" y="664"/>
      <point x="218" y="703" type="curve"/>
      <point x="245" y="703" type="line"/>
      <point x="238" y="644"/>
      <point x="207" y="615"/>
    </contour>
  </outline>
</glyph>
<glyph name="Imacron" format="2">
  <advance width="234"/>
  <unicode hex="012A"/>
  <outline>
    <contour>
      <point x="99" y="0" type="line"/>
      <point x="99" y="715" type="line"/>
      <point x="135" y="715" type="line"/>
      <point x="135" y="0" type="line"/>
    </contour>
    <contour>
      <point x="-1" y="794" type="line"/>
      <point x="-1" y="823" type="line"/>
      <point x="235" y="823" type="line"/>
      <point x="235" y="794" type="line"/>
    </contour>
  </outline>
</glyph>
<glyph name="imacron" format="2">
  <advance width="200"/>
  <unicode hex="012B"/>
  <outline>
    <contour>
      <point x="20" y="647" type="line"/>
      <point x="20" y="675" type="line"/>
      <point x="181" y="675" type="line"/>
      <point x="181" y="647" type="line"/>
    </contour>
    <contour>
      <point x="83" y="0" type="line"/>
      <point x="83" y="523" type="line"/>
      <point x="117" y="523" type="line"/>
      <point x="117" y="0" type="line"/>
    </contour>
  </outline>
</glyph>
<glyph name="Ibreve" format="2">
  <advance width="234"/>
  <unicode hex="012C"/>
  <outline>
    <contour>
      <point x="99" y="0" type="line"/>
      <point x="99" y="715" type="line"/>
      <point x="135" y="715" type="line"/>
      <point x="135" y="0" type="line"/>
    </contour>
    <contour>
      <point x="116" y="773" type="curve" smooth="yes"/>
      <point x="50" y="773"/>
      <point x="-2" y="822"/>
      <point x="-7" y="890" type="curve"/>
      <point x="23" y="890" type="line"/>
      <point x="28" y="839"/>
      <point x="66" y="802"/>
      <point x="116" y="802" type="curve" smooth="yes"/>
      <point x="165" y="802"/>
      <point x="205" y="839"/>
      <point x="211" y="890" type="curve"/>
      <point x="240" y="890" type="line"/>
      <point x="236" y="822"/>
      <point x="180" y="773"/>
    </contour>
  </outline>
</glyph>
<glyph name="ibreve" format="2">
  <advance width="200"/>
  <unicode hex="012D"/>
  <outline>
    <contour>
      <point x="83" y="0" type="line"/>
      <point x="83" y="523" type="line"/>
      <point x="117" y="523" type="line"/>
      <point x="117" y="0" type="line"/>
    </contour>
    <contour>
      <point x="100" y="614" type="curve" smooth="yes"/>
      <point x="34" y="614"/>
      <point x="-12" y="660"/>
      <point x="-17" y="728" type="curve"/>
      <point x="13" y="728" type="line"/>
      <point x="18" y="677"/>
      <point x="50" y="643"/>
      <point x="100" y="643" type="curve" smooth="yes"/>
      <point x="149" y="643"/>
      <point x="183" y="677"/>
      <point x="189" y="728" type="curve"/>
      <point x="218" y="728" type="line"/>
      <point x="214" y="660"/>
      <point x="164" y="614"/>
    </contour>
  </outline>
</glyph>
<glyph name="Iogonek" format="2">
  <advance width="234"/>
  <unicode hex="012E"/>
  <outline>
    <contour>
      <point x="120" y="-182" type="curve" smooth="yes"/>
      <point x="64" y="-182"/>
      <point x="33" y="-151"/>
      <point x="33" y="-110" type="curve" smooth="yes"/>
      <point x="33" y="-62"/>
      <point x="66" y="-26"/>
      <point x="101" y="3" type="curve"/>
      <point x="99" y="3" type="line"/>
      <point x="99" y="715" type="line"/>
      <point x="135" y="715" type="line"/>
      <point x="135" y="1" type="line"/>
      <point x="98" y="-28"/>
      <point x="67" y="-63"/>
      <point x="67" y="-106" type="curve" smooth="yes"/>
      <point x="67" y="-134"/>
      <point x="84" y="-154"/>
      <point x="123" y="-154" type="curve" smooth="yes"/>
      <point x="140" y="-154"/>
      <point x="156" y="-151"/>
      <point x="172" y="-145" type="curve"/>
      <point x="172" y="-172" type="line"/>
      <point x="158" y="-178"/>
      <point x="140" y="-182"/>
    </contour>
  </outline>
</glyph>
<glyph name="iogonek" format="2">
  <advance width="200"/>
  <unicode hex="012F"/>
  <outline>
    <contour>
      <point x="109" y="-182" type="curve" smooth="yes"/>
      <point x="54" y="-182"/>
      <point x="22" y="-151"/>
      <point x="22" y="-110" type="curve" smooth="yes"/>
      <point x="22" y="-63"/>
      <point x="53" y="-27"/>
      <point x="85" y="2" type="curve"/>
      <point x="83" y="2" type="line"/>
      <point x="83" y="523" type="line"/>
      <point x="117" y="523" type="line"/>
      <point x="117" y="1" type="line"/>
      <point x="84" y="-30"/>
      <point x="55" y="-63"/>
      <point x="55" y="-106" type="curve" smooth="yes"/>
      <point x="55" y="-134"/>
      <point x="73" y="-155"/>
      <point x="112" y="-155" type="curve" smooth="yes"/>
      <point x="129" y="-155"/>
      <point x="145" y="-152"/>
      <point x="161" y="-146" type="curve"/>
      <point x="161" y="-172" type="line"/>
      <point x="147" y="-178"/>
      <point x="129" y="-182"/>
    </contour>
    <contour>
      <point x="100" y="637" type="curve" smooth="yes"/>
      <point x="85" y="637"/>
      <point x="73" y="650"/>
      <point x="73" y="664" type="curve" smooth="yes"/>
      <point x="73" y="678"/>
      <point x="85" y="690"/>
      <point x="100" y="690" type="curve" smooth="yes"/>
      <point x="115" y="690"/>
      <point x="126" y="678"/>
      <point x="126" y="664" type="curve" smooth="yes"/>
      <point x="126" y="650"/>
      <point x="115" y="637"/>
    </contour>
  </outline>
</glyph>
<glyph name="Idotaccent" format="2">
  <advance width="234"/>
  <unicode hex="0130"/>
  <outline>
    <contour>
      <point x="99" y="0" type="line"/>
      <point x="99" y="715" type="line"/>
      <point x="135" y="715" type="line"/>
      <point x="135" y="0" type="line"/>
    </contour>
    <contour>
      <point x="117" y="787" type="curve" smooth="yes"/>
      <point x="102" y="787"/>
      <point x="91" y="799"/>
      <point x="91" y="814" type="curve" smooth="yes"/>
      <point x="91" y="828"/>
      <point x="102" y="840"/>
      <point x="117" y="840" type="curve" smooth="yes"/>
      <point x="132" y="840"/>
      <point x="144" y="828"/>
      <point x="144" y="814" type="curve" smooth="yes"/>
      <point x="144" y="799"/>
      <point x="132" y="787"/>
    </contour>
  </outline>
</glyph>
<glyph name="IJ" format="2">
  <advance width="590"/>
  <unicode hex="0132"/>
  <outline>
    <contour>
      <point x="99" y="0" type="line"/>
      <point x="99" y="715" type="line"/>
      <point x="135" y="715" type="line"/>
      <point x="135" y="0" type="line"/>
    </contour>
    <contour>
      <point x="338" y="-5" type="curve" smooth="yes"/>
      <point x="290" y="-5"/>
      <point x="256" y="6"/>
      <point x="237" y="15" type="curve"/>
      <point x="237" y="47" type="line"/>
      <point x="261" y="36"/>
      <point x="293" y="25"/>
      <point x="336" y="25" type="curve" smooth="yes"/>
      <point x="421" y="25"/>
      <point x="473" y="67"/>
      <point x="473" y="173" type="curve" smooth="yes"/>
      <point x="473" y="715" type="line"/>
      <point x="509" y="715" type="line"/>
      <point x="509" y="172" type="line" smooth="yes"/>
      <point x="509" y="47"/>
      <point x="439" y="-5"/>
    </contour>
  </outline>
</glyph>
